<svg version="1.1" xmlns="http://www.w3.org/2000/svg" style="display: block;" viewBox="0 0 2048 2048" width="1024" height="1024" preserveAspectRatio="none">
<path transform="translate(0,0)" fill="rgb(255,255,255)" d="M 0 0 L 2048 0 L 2048 2048 L 0 2048 L 0 0 z"/>
<path transform="translate(0,0)" fill="rgb(121,192,207)" d="M 870.379 260.415 C 892.493 247.649 915.074 239.198 936.96 225.157 C 950.438 216.368 963.634 207.156 976.531 197.535 C 994.072 184.405 1061.45 126.319 1079.27 169.939 C 1085.16 184.359 1075.74 209.993 1068.78 223.895 C 1142.34 213.491 1195.46 250.727 1259.57 276.878 C 1280.83 284.936 1306.03 287.585 1326.5 297.483 C 1372.75 319.846 1355.3 355.577 1314.66 370.586 C 1317.15 372.683 1319.6 374.83 1322.01 377.025 C 1345.49 398.7 1354.26 420.353 1373.23 444.402 C 1382.49 455.908 1398.46 465.634 1406.21 478.106 C 1428 513.177 1393.98 522.472 1367.72 523.259 C 1370.05 548.398 1370.82 560.886 1365.17 585.279 C 1417.04 594.757 1453.03 624.402 1443.6 680.651 C 1434.08 737.364 1371.85 745.348 1327.13 757.098 C 1325.22 766.76 1321.99 786.286 1319.41 794.887 C 1334.45 804.405 1352.57 831.478 1356.38 849.106 C 1358.02 856.7 1357.84 862.501 1357.2 870.224 L 1356.18 876.718 C 1352.95 895.8 1350.34 914.979 1348.33 934.226 C 1346.98 948.065 1346.31 963.172 1344.72 976.695 C 1345.11 978.636 1345.25 980.034 1345.97 981.825 L 1347.07 981.71 L 1356.34 979.502 C 1357.91 997.827 1357.72 1016.26 1355.78 1034.55 C 1369.97 1035.15 1389.91 1036.03 1399.59 1047.7 C 1418.91 1070.97 1419.12 1137.86 1417.45 1167.49 C 1415.92 1194.47 1410.91 1257.82 1391.84 1275.56 C 1377.37 1289.03 1350.14 1287.35 1331.83 1285.7 C 1320.59 1312.03 1301.92 1327.14 1272.91 1330.26 C 1269.09 1363.19 1271.94 1394.18 1273.93 1427.02 C 1274.2 1431.4 1272.92 1438.29 1270.97 1442.29 C 1263.37 1447.79 1229.88 1455.32 1220.13 1456.32 L 1214.24 1457.56 C 1214.55 1465.21 1215.03 1473.45 1214.89 1481.05 C 1173.6 1494.7 1144.34 1499.01 1100.65 1501.71 C 1099.69 1496.18 1099.68 1483.15 1098.85 1475.65 L 1093.9 1476.49 C 1086.13 1477.47 1069.15 1480.05 1062.36 1478.51 C 1036.15 1472.58 1057.12 1405.48 1026.43 1402.97 C 992.688 1400.21 1009.22 1461.39 992.271 1476.76 C 985.944 1482.5 963.009 1477.81 954.848 1476.76 L 949.197 1476.03 C 921.776 1473.15 859.52 1463.95 833.878 1457.29 L 828.73 1456.46 C 817.562 1455.27 789.128 1449.2 779.095 1443.3 C 775.115 1441.47 774.332 1435.05 774.487 1430.84 C 775.917 1392.01 780.617 1356.9 773.422 1318.03 C 752.95 1311 746.256 1299.2 737.357 1281.22 C 725.192 1282.79 719.088 1282.63 706.835 1281.63 C 705.889 1279.4 705.12 1277.24 704.282 1274.97 C 694.574 1247.78 698.47 1228.69 704.484 1201.08 C 706.22 1194.64 707.41 1187.38 708.64 1180.77 C 707.922 1177.59 706.82 1175.62 705.434 1172.71 C 699.316 1157.94 686.617 1139.25 704.945 1129.66 C 696.039 1085.85 701.605 1064.44 703.181 1020.73 C 703.923 996.906 703.313 973.058 701.354 949.302 L 700.28 940.823 C 701.842 915.749 686.908 875.312 691.691 849.843 C 694.894 832.79 714.648 804.238 729 794.766 C 726.755 788.845 723.436 769.47 722.108 762.477 C 701.756 758.993 686.626 756.68 666.382 749.748 C 608.869 730.055 579.135 664.131 625.634 616.775 C 634.892 607.347 644.64 602.885 656.975 597.602 C 653.328 573.21 668.307 567.989 673.061 548.478 C 677.399 530.676 672.688 509.428 677.197 489.295 C 681.753 463.373 697.619 439.804 706.436 415.859 C 722.103 373.311 733.773 327.762 776.98 304.359 C 785.663 299.656 794.876 296.098 804.118 292.077 C 814.277 268.939 813.771 242.179 826.705 220.154 C 832.287 210.648 845.825 204.836 855.021 211.987 C 866.662 221.041 868.349 246.693 870.379 260.415 z"/>
<path transform="translate(0,0)" fill="rgb(228,133,65)" d="M 870.379 260.415 C 892.493 247.649 915.074 239.198 936.96 225.157 C 950.438 216.368 963.634 207.156 976.531 197.535 C 994.072 184.405 1061.45 126.319 1079.27 169.939 C 1085.16 184.359 1075.74 209.993 1068.78 223.895 C 1142.34 213.491 1195.46 250.727 1259.57 276.878 C 1280.83 284.936 1306.03 287.585 1326.5 297.483 C 1372.75 319.846 1355.3 355.577 1314.66 370.586 C 1317.15 372.683 1319.6 374.83 1322.01 377.025 C 1345.49 398.7 1354.26 420.353 1373.23 444.402 C 1382.49 455.908 1398.46 465.634 1406.21 478.106 C 1428 513.177 1393.98 522.472 1367.72 523.259 C 1370.05 548.398 1370.82 560.886 1365.17 585.279 L 1359.43 585.005 C 1351.98 584.063 1347.14 584.541 1339.73 585.085 L 1337.55 591.077 C 1335.2 594.849 1332.44 599.566 1329.92 603.125 L 1328.1 598.5 C 1326.16 592.118 1323.6 584.39 1322.59 577.894 L 1316.27 571.988 C 1314.42 563.875 1310.62 556.664 1308.99 548.503 C 1294.93 546.989 1273.72 534.465 1263.36 525.017 C 1257.03 526.287 1251.83 527.026 1245.42 527.853 C 1244.3 519.445 1238.11 513.369 1238 510.677 C 1233.47 509.041 1232.77 508.73 1228.07 508.212 L 1224.05 505.446 C 1215.27 501.22 1205.97 494.317 1198.24 488.472 C 1196.05 485.443 1194.77 484.654 1191.89 482.369 C 1181.26 479.013 1170.36 476.586 1159.3 475.117 C 1157.93 473.831 1158.52 474.272 1157.31 473.44 C 1144.26 464.486 1131.87 454.189 1119.6 444.202 C 1117.82 463.582 1116.39 470.085 1108.57 487.599 C 1109.33 489.596 1110.13 491.071 1108.71 493.38 C 1103.22 502.317 1094.39 510.758 1083.93 512.959 C 1041.67 521.853 1009.56 485.577 980.502 461.264 C 969.184 451.794 961.952 446.789 949.992 439.416 C 943.59 457.231 937.426 468.649 922.246 480.139 C 902.266 471.968 886.281 474.338 865.92 479.115 C 859.375 480.877 854.579 482.362 848.197 484.638 C 844.161 486.915 816.148 503.731 815.254 503.892 C 813.951 505.5 810.579 509.471 809.706 511.03 C 804.527 520.845 801.127 524.652 806.277 535.327 C 789.786 548.684 774.683 547.524 754.822 546.882 C 751.801 564.266 750.149 581.149 749.012 598.764 C 747.924 615.617 741.848 636.126 720.921 631.903 L 719.993 631.707 L 715.207 629.495 C 712.201 626.953 708.712 623.557 705.754 620.84 C 699.116 612.097 695.693 606.321 691.73 596.187 L 689.988 591.935 C 679.192 592.127 674.208 592.758 663.71 595.703 L 656.975 597.602 C 653.328 573.21 668.307 567.989 673.061 548.478 C 677.399 530.676 672.688 509.428 677.197 489.295 C 681.753 463.373 697.619 439.804 706.436 415.859 C 722.103 373.311 733.773 327.762 776.98 304.359 C 785.663 299.656 794.876 296.098 804.118 292.077 C 814.277 268.939 813.771 242.179 826.705 220.154 C 832.287 210.648 845.825 204.836 855.021 211.987 C 866.662 221.041 868.349 246.693 870.379 260.415 z"/>
<path transform="translate(0,0)" fill="rgb(144,60,19)" d="M 1065.24 308.178 L 1067.21 305.616 C 1078.53 304.602 1097.78 340.83 1104.1 348.406 C 1112.33 351.348 1125.15 360.215 1132.16 365.563 C 1147.89 377.368 1161.89 391.308 1173.77 406.98 C 1181.35 416.88 1188.53 427.081 1195.29 437.56 C 1208.75 458.538 1227.63 494.861 1251.46 502.455 C 1248.53 504.003 1248.38 504.209 1245.04 504.992 L 1238.75 504.504 C 1231.19 508.26 1231.71 506.176 1224.05 505.446 C 1215.27 501.22 1205.97 494.317 1198.24 488.472 C 1196.05 485.443 1194.77 484.654 1191.89 482.369 C 1181.26 479.013 1170.36 476.586 1159.3 475.117 C 1157.93 473.831 1158.52 474.272 1157.31 473.44 C 1144.26 464.486 1131.87 454.189 1119.6 444.202 C 1117.82 463.582 1116.39 470.085 1108.57 487.599 C 1109.33 489.596 1110.13 491.071 1108.71 493.38 C 1103.22 502.317 1094.39 510.758 1083.93 512.959 C 1041.67 521.853 1009.56 485.577 980.502 461.264 C 969.184 451.794 961.952 446.789 949.992 439.416 C 943.59 457.231 937.426 468.649 922.246 480.139 C 902.266 471.968 886.281 474.338 865.92 479.115 C 859.375 480.877 854.579 482.362 848.197 484.638 C 844.161 486.915 816.148 503.731 815.254 503.892 C 813.951 505.5 810.579 509.471 809.706 511.03 C 804.527 520.845 801.127 524.652 806.277 535.327 C 789.786 548.684 774.683 547.524 754.822 546.882 C 751.801 564.266 750.149 581.149 749.012 598.764 C 747.924 615.617 741.848 636.126 720.921 631.903 L 719.993 631.707 L 715.207 629.495 C 712.201 626.953 708.712 623.557 705.754 620.84 C 699.116 612.097 695.693 606.321 691.73 596.187 L 689.988 591.935 C 679.192 592.127 674.208 592.758 663.71 595.703 L 662.487 594.63 C 660.96 588.013 662.975 582.956 666.059 577.146 C 674.682 560.896 680.404 549.159 680.972 530.546 C 713.295 567.725 721.625 499.009 728.037 478.816 C 725.932 468.089 721.329 446.138 723.242 435.917 C 725.444 433.647 724.152 434.089 726.985 433.995 C 728.862 436.575 728.772 449.187 729.353 454.182 C 732.003 476.987 742.245 508.582 763.752 520.251 C 801.276 501.97 810.473 444.51 816.56 407.251 C 818.039 398.194 820.096 386.696 820.105 377.777 C 819.408 370.242 817.008 365.538 823.026 360.738 C 826.072 368.891 824.94 377.958 827.015 386.3 C 836.337 423.778 862.893 462.857 905.287 462.352 C 932.292 455.693 934.087 424.68 942.417 403.66 L 942.752 402.84 C 958.289 408.809 985.03 427.409 997.418 438.57 C 1020.19 459.092 1057.24 502.803 1092.91 494.898 C 1097.65 492.228 1099.15 491.193 1102.32 486.93 C 1106.56 480.182 1109.26 472.039 1110.94 464.277 C 1124.6 401.207 1110.69 353.108 1065.24 308.178 z"/>
<path transform="translate(0,0)" fill="rgb(213,107,42)" d="M 728.037 478.816 C 735.062 495.912 741.492 509.811 755.307 522.595 L 754.798 523.941 C 747.523 543.424 746.458 567.76 744.469 588.485 C 743.18 601.924 741.559 630.281 721.501 626.538 C 703.507 623.096 691.006 569.166 684.382 565.878 C 682.276 572.176 687.699 585.696 689.988 591.935 C 679.192 592.127 674.208 592.758 663.71 595.703 L 662.487 594.63 C 660.96 588.013 662.975 582.956 666.059 577.146 C 674.682 560.896 680.404 549.159 680.972 530.546 C 713.295 567.725 721.625 499.009 728.037 478.816 z"/>
<path transform="translate(0,0)" fill="rgb(86,159,173)" d="M 946.057 410.336 C 963.475 419.392 983.514 433.158 997.834 446.149 C 1012.44 459.544 1025.68 475.894 1042.68 486.449 C 1064.82 500.206 1089.01 511.622 1108.57 487.599 C 1109.33 489.596 1110.13 491.071 1108.71 493.38 C 1103.22 502.317 1094.39 510.758 1083.93 512.959 C 1041.67 521.853 1009.56 485.577 980.502 461.264 C 969.184 451.794 961.952 446.789 949.992 439.416 C 943.59 457.231 937.426 468.649 922.246 480.139 C 902.266 471.968 886.281 474.338 865.92 479.115 C 859.375 480.877 854.579 482.362 848.197 484.638 C 844.161 486.915 816.148 503.731 815.254 503.892 C 830.004 483.706 837.583 461.354 845.791 438.138 C 868.111 462.006 905.755 487.109 930.958 449.393 C 939.108 437.197 942.298 424.344 946.057 410.336 z"/>
<path transform="translate(0,0)" fill="rgb(121,192,207)" d="M 848.197 484.638 C 849.205 479.304 851.087 475.207 853.089 470.182 C 858.929 473.587 860.721 474.643 865.92 479.115 C 859.375 480.877 854.579 482.362 848.197 484.638 z"/>
<path transform="translate(0,0)" fill="rgb(213,107,42)" d="M 1104.1 348.406 C 1112.33 351.348 1125.15 360.215 1132.16 365.563 C 1147.89 377.368 1161.89 391.308 1173.77 406.98 C 1181.35 416.88 1188.53 427.081 1195.29 437.56 C 1208.75 458.538 1227.63 494.861 1251.46 502.455 C 1248.53 504.003 1248.38 504.209 1245.04 504.992 L 1238.75 504.504 C 1210.43 496.118 1193.93 475.448 1172.36 456.684 C 1155.78 442.267 1140.43 428.979 1121.14 418.142 C 1121.23 390.397 1115.21 373.022 1104.1 348.406 z"/>
<path transform="translate(0,0)" fill="rgb(213,107,42)" d="M 820.105 377.777 C 824.064 402.385 828.732 411.705 841.975 432.841 C 832.214 460.552 822.419 489.538 801.59 511.184 C 791.785 521.373 777.147 528.541 763.752 520.251 C 801.276 501.97 810.473 444.51 816.56 407.251 C 818.039 398.194 820.096 386.696 820.105 377.777 z"/>
<path transform="translate(0,0)" fill="rgb(86,159,173)" d="M 1120.89 424.652 C 1146.56 439.106 1170.2 462.231 1191.89 482.369 C 1181.26 479.013 1170.36 476.586 1159.3 475.117 C 1157.93 473.831 1158.52 474.272 1157.31 473.44 C 1144.26 464.486 1131.87 454.189 1119.6 444.202 C 1119.93 438.098 1120.15 430.608 1120.89 424.652 z"/>
<path transform="translate(0,0)" fill="rgb(86,159,173)" d="M 759.98 526.063 C 783.724 533.759 792.582 527.613 809.706 511.03 C 804.527 520.845 801.127 524.652 806.277 535.327 C 789.786 548.684 774.683 547.524 754.822 546.882 C 756.326 539.467 757.948 533.368 759.98 526.063 z"/>
<path transform="translate(0,0)" fill="rgb(144,60,19)" d="M 870.379 260.415 C 892.493 247.649 915.074 239.198 936.96 225.157 C 950.438 216.368 963.634 207.156 976.531 197.535 C 994.072 184.405 1061.45 126.319 1079.27 169.939 C 1085.16 184.359 1075.74 209.993 1068.78 223.895 C 1142.34 213.491 1195.46 250.727 1259.57 276.878 C 1280.83 284.936 1306.03 287.585 1326.5 297.483 C 1372.75 319.846 1355.3 355.577 1314.66 370.586 C 1317.15 372.683 1319.6 374.83 1322.01 377.025 C 1345.49 398.7 1354.26 420.353 1373.23 444.402 C 1382.49 455.908 1398.46 465.634 1406.21 478.106 C 1428 513.177 1393.98 522.472 1367.72 523.259 C 1370.05 548.398 1370.82 560.886 1365.17 585.279 L 1359.43 585.005 C 1351.98 584.063 1347.14 584.541 1339.73 585.085 L 1337.55 591.077 C 1335.2 594.849 1332.44 599.566 1329.92 603.125 L 1328.1 598.5 C 1326.16 592.118 1323.6 584.39 1322.59 577.894 L 1316.27 571.988 C 1314.42 563.875 1310.62 556.664 1308.99 548.503 C 1294.93 546.989 1273.72 534.465 1263.36 525.017 C 1257.03 526.287 1251.83 527.026 1245.42 527.853 C 1244.3 519.445 1238.11 513.369 1238 510.677 C 1233.47 509.041 1232.77 508.73 1228.07 508.212 L 1224.05 505.446 C 1231.71 506.176 1231.19 508.26 1238.75 504.504 L 1245.04 504.992 C 1248.38 504.209 1248.53 504.003 1251.46 502.455 L 1253.49 501.69 C 1253.48 498.462 1254.42 491.492 1254.86 488.304 C 1262.48 433.887 1249.48 381.362 1219.5 335.652 C 1216.97 331.8 1211.54 323.499 1211.23 318.945 L 1210.23 316.399 C 1210.45 315.902 1211.36 314.763 1211.73 314.268 C 1216.19 314.294 1224.26 322.64 1227.47 325.978 C 1262.54 362.354 1276.99 403.929 1277.03 453.845 C 1305.78 497.15 1307.74 498.055 1349.99 528.699 C 1350.68 528.314 1351.36 527.929 1352.05 527.544 C 1383.16 514.414 1341.25 453.646 1345.18 444.051 L 1346.91 443.743 C 1359.66 459.712 1368.75 496.172 1367.82 517.899 C 1371.36 517.667 1374.9 517.378 1378.42 517.032 C 1393.11 515.502 1409.67 510.006 1406.71 492.133 C 1400.5 472.719 1377.8 460.331 1365.71 444.018 C 1347.21 419.066 1333.49 389.66 1306.68 372.374 L 1305.98 371.785 L 1305.14 369.873 C 1309.84 363.518 1333.12 361.469 1344.55 342.416 C 1348.56 335.487 1349.87 327.889 1345.81 320.704 L 1344.78 321.212 C 1330.33 313.741 1319.04 313.548 1303.19 310.357 C 1292.16 308.122 1281.25 305.284 1270.53 301.857 C 1252.25 295.953 1231.49 286.961 1214.63 278.575 C 1155.49 249.148 1093.52 236.968 1028.12 249.011 C 1022.68 250.012 998.715 254.931 995.165 253.837 C 992.48 252.062 993.334 253.219 992.231 250.487 C 994.291 245.527 1006.55 240.563 1011.95 237.938 C 1016.26 231.472 1035.39 216.395 1042.01 210.245 C 1056.06 197.194 1063.92 186.794 1074.2 170.711 C 1071.87 166.212 1071.81 165.944 1068.07 162.69 C 1062.95 165.424 1050.31 165.237 1044.03 169.667 C 1013.66 191.096 987.841 218.266 955.769 237.554 C 935.841 249.602 915.695 258.622 892.787 263.506 C 888.89 264.383 876.417 267.839 873.448 265.525 L 869.858 267.16 C 858.735 266.223 867.094 232.557 851.534 215.983 C 832.63 227.788 828.322 271.474 819.811 294.157 C 815.883 295.87 811.223 298.549 807.254 297.019 C 737.03 327.211 737.75 351.53 711.098 419.221 C 694.029 462.573 677.463 479.503 680.972 530.546 C 680.404 549.159 674.682 560.896 666.059 577.146 C 662.975 582.956 660.96 588.013 662.487 594.63 L 663.71 595.703 L 656.975 597.602 C 653.328 573.21 668.307 567.989 673.061 548.478 C 677.399 530.676 672.688 509.428 677.197 489.295 C 681.753 463.373 697.619 439.804 706.436 415.859 C 722.103 373.311 733.773 327.762 776.98 304.359 C 785.663 299.656 794.876 296.098 804.118 292.077 C 814.277 268.939 813.771 242.179 826.705 220.154 C 832.287 210.648 845.825 204.836 855.021 211.987 C 866.662 221.041 868.349 246.693 870.379 260.415 z"/>
<path transform="translate(0,0)" fill="rgb(248,165,97)" d="M 995.165 253.837 C 1035.11 228.263 1090.77 223.151 1136.25 232.888 C 1176.58 241.521 1213.39 264.073 1251.57 279.814 C 1276.86 290.239 1333.14 296.567 1345.81 320.704 L 1344.78 321.212 C 1330.33 313.741 1319.04 313.548 1303.19 310.357 C 1292.16 308.122 1281.25 305.284 1270.53 301.857 C 1252.25 295.953 1231.49 286.961 1214.63 278.575 C 1155.49 249.148 1093.52 236.968 1028.12 249.011 C 1022.68 250.012 998.715 254.931 995.165 253.837 z"/>
<path transform="translate(0,0)" fill="rgb(248,165,97)" d="M 873.448 265.525 C 892.931 253.362 920.399 241.338 941.457 229.494 C 970.843 212.967 1036.23 146.784 1068.07 162.69 C 1062.95 165.424 1050.31 165.237 1044.03 169.667 C 1013.66 191.096 987.841 218.266 955.769 237.554 C 935.841 249.602 915.695 258.622 892.787 263.506 C 888.89 264.383 876.417 267.839 873.448 265.525 z"/>
<path transform="translate(0,0)" fill="rgb(248,165,97)" d="M 1211.23 318.945 C 1259.45 352.448 1289.53 443.11 1259.09 496.844 L 1253.49 501.69 C 1253.48 498.462 1254.42 491.492 1254.86 488.304 C 1262.48 433.887 1249.48 381.362 1219.5 335.652 C 1216.97 331.8 1211.54 323.499 1211.23 318.945 z"/>
<path transform="translate(0,0)" fill="rgb(213,107,42)" d="M 1277.03 453.845 C 1305.78 497.15 1307.74 498.055 1349.99 528.699 C 1319.35 532.306 1286.89 517.83 1266.7 495.025 C 1273.59 477.738 1274.75 472.199 1277.03 453.845 z"/>
<path transform="translate(0,0)" fill="rgb(86,159,173)" d="M 1253.49 501.69 L 1259.09 496.844 L 1260.71 498.267 L 1262.52 498.127 C 1267 501.329 1288.47 517.348 1290.22 520.423 L 1300.29 526.437 C 1303.31 533.77 1306.37 541.013 1308.99 548.503 C 1294.93 546.989 1273.72 534.465 1263.36 525.017 C 1257.03 526.287 1251.83 527.026 1245.42 527.853 C 1244.3 519.445 1238.11 513.369 1238 510.677 C 1233.47 509.041 1232.77 508.73 1228.07 508.212 L 1224.05 505.446 C 1231.71 506.176 1231.19 508.26 1238.75 504.504 L 1245.04 504.992 C 1248.38 504.209 1248.53 504.003 1251.46 502.455 L 1253.49 501.69 z"/>
<path transform="translate(0,0)" fill="rgb(133,60,27)" d="M 1253.49 501.69 L 1259.09 496.844 L 1260.71 498.267 L 1262.52 498.127 C 1267 501.329 1288.47 517.348 1290.22 520.423 C 1280.1 515.813 1270.7 508.04 1262.89 500.245 C 1260.91 502.333 1258.49 504.514 1256.36 506.513 C 1249.21 510.492 1246.13 511.005 1238 510.677 C 1233.47 509.041 1232.77 508.73 1228.07 508.212 L 1224.05 505.446 C 1231.71 506.176 1231.19 508.26 1238.75 504.504 L 1245.04 504.992 C 1248.38 504.209 1248.53 504.003 1251.46 502.455 L 1253.49 501.69 z"/>
<path transform="translate(0,0)" fill="rgb(213,107,42)" d="M 1306.19 528.723 C 1322.41 533.425 1327.46 534.923 1344.07 535.432 L 1342.47 536.677 C 1342.41 544.731 1344.38 551.347 1343.99 559.515 C 1344.16 567.633 1342.79 577.558 1339.73 585.085 L 1337.55 591.077 C 1335.2 594.849 1332.44 599.566 1329.92 603.125 L 1328.1 598.5 C 1326.16 592.118 1323.6 584.39 1322.59 577.894 C 1319.03 561.428 1312.67 544.291 1306.19 528.723 z"/>
<path transform="translate(0,0)" fill="rgb(144,60,19)" d="M 1328.1 598.5 C 1334.74 586.579 1335.39 580.245 1338.67 567.326 C 1340.1 561.697 1339.88 561.969 1343.99 559.515 C 1344.16 567.633 1342.79 577.558 1339.73 585.085 L 1337.55 591.077 C 1335.2 594.849 1332.44 599.566 1329.92 603.125 L 1328.1 598.5 z"/>
<path transform="translate(0,0)" fill="rgb(213,107,42)" d="M 1074.2 170.711 C 1077 190.721 1071.98 207.361 1061.61 224.561 C 1041.56 228.349 1031.23 231.405 1011.95 237.938 C 1016.26 231.472 1035.39 216.395 1042.01 210.245 C 1056.06 197.194 1063.92 186.794 1074.2 170.711 z"/>
<path transform="translate(0,0)" fill="rgb(228,133,65)" d="M 1344.07 535.432 C 1352.84 533.799 1355.1 532.667 1362.42 527.517 C 1364.17 547.452 1365.32 565.358 1359.43 585.005 C 1351.98 584.063 1347.14 584.541 1339.73 585.085 C 1342.79 577.558 1344.16 567.633 1343.99 559.515 C 1344.38 551.347 1342.41 544.731 1342.47 536.677 L 1344.07 535.432 z"/>
<path transform="translate(0,0)" fill="rgb(248,165,97)" d="M 807.254 297.019 C 820.305 278.731 821.468 203.725 851.534 215.983 C 832.63 227.788 828.322 271.474 819.811 294.157 C 815.883 295.87 811.223 298.549 807.254 297.019 z"/>
<path transform="translate(0,0)" fill="rgb(213,107,42)" d="M 940.188 347.941 C 963.182 379.316 990.84 388.784 1017.37 414.569 C 1049.95 446.222 1051.16 471.464 1092.91 494.898 C 1057.24 502.803 1020.19 459.092 997.418 438.57 C 985.03 427.409 958.289 408.809 942.752 402.84 C 944.502 383.037 945.176 367.631 940.188 347.941 z"/>
<path transform="translate(0,0)" fill="rgb(213,107,42)" d="M 823.026 360.738 C 823.322 339.485 838.978 317.638 855.135 305.035 C 841.029 341.906 843.342 371.32 858.604 408.343 C 863.966 421.35 875.912 439.784 886.82 448.834 C 892.277 453.363 899.732 457.33 905.287 462.352 C 862.893 462.857 836.337 423.778 827.015 386.3 C 824.94 377.958 826.072 368.891 823.026 360.738 z"/>
<path transform="translate(0,0)" fill="rgb(248,165,97)" d="M 1042.28 296.65 C 1049.55 299.434 1059.46 302.923 1065.24 308.178 C 1110.69 353.108 1124.6 401.207 1110.94 464.277 C 1109.26 472.039 1106.56 480.182 1102.32 486.93 C 1100.51 483.376 1103.82 463.406 1103.78 457.371 C 1103.46 411.925 1092.34 366.59 1067.77 328.049 C 1060.5 316.654 1052.59 305.273 1042.28 296.65 z"/>
<path transform="translate(0,0)" fill="rgb(248,165,97)" d="M 1306.68 372.374 C 1333.49 389.66 1347.21 419.066 1365.71 444.018 C 1377.8 460.331 1400.5 472.719 1406.71 492.133 C 1405.92 493.207 1406.46 492.729 1404.92 493.356 C 1396.99 487.889 1386.34 480.419 1378.79 473.143 C 1373.84 468.383 1364.04 459.598 1359.04 453.03 C 1340.58 428.758 1325 400.031 1306.81 375.332 C 1306.77 374.346 1306.72 373.36 1306.68 372.374 z"/>
<path transform="translate(0,0)" fill="rgb(213,107,42)" d="M 1260.24 356.144 C 1293.88 357.351 1313.44 351.244 1344.55 342.416 C 1333.12 361.469 1309.84 363.518 1305.14 369.873 L 1305.98 371.785 C 1291.57 373.337 1272.02 363.72 1260.24 356.144 z"/>
<path transform="translate(0,0)" fill="rgb(144,60,19)" d="M 708.64 1180.77 C 714.977 1189.54 718.821 1205.56 729.956 1208.69 C 732.273 1209.34 736.866 1206.47 739.012 1205.27 C 740.491 1206.58 740.089 1205.95 740.593 1206.88 C 740.478 1202.19 741.806 1198.2 742.945 1193.62 C 875.049 1247.15 1172.74 1248.41 1304.88 1193.33 C 1306.02 1196.68 1308.17 1201.77 1308.3 1205.03 C 1299.06 1245.78 1279.74 1286.96 1273.57 1324.77 L 1272.91 1330.26 C 1269.09 1363.19 1271.94 1394.18 1273.93 1427.02 C 1274.2 1431.4 1272.92 1438.29 1270.97 1442.29 C 1263.37 1447.79 1229.88 1455.32 1220.13 1456.32 L 1214.24 1457.56 C 1214.55 1465.21 1215.03 1473.45 1214.89 1481.05 C 1173.6 1494.7 1144.34 1499.01 1100.65 1501.71 C 1099.69 1496.18 1099.68 1483.15 1098.85 1475.65 L 1093.9 1476.49 C 1086.13 1477.47 1069.15 1480.05 1062.36 1478.51 C 1036.15 1472.58 1057.12 1405.48 1026.43 1402.97 C 992.688 1400.21 1009.22 1461.39 992.271 1476.76 C 985.944 1482.5 963.009 1477.81 954.848 1476.76 L 949.197 1476.03 C 921.776 1473.15 859.52 1463.95 833.878 1457.29 L 828.73 1456.46 C 817.562 1455.27 789.128 1449.2 779.095 1443.3 C 775.115 1441.47 774.332 1435.05 774.487 1430.84 C 775.917 1392.01 780.617 1356.9 773.422 1318.03 C 752.95 1311 746.256 1299.2 737.357 1281.22 C 725.192 1282.79 719.088 1282.63 706.835 1281.63 C 705.889 1279.4 705.12 1277.24 704.282 1274.97 C 694.574 1247.78 698.47 1228.69 704.484 1201.08 C 706.22 1194.64 707.41 1187.38 708.64 1180.77 z"/>
<path transform="translate(0,0)" fill="rgb(207,169,73)" d="M 708.64 1180.77 C 714.977 1189.54 718.821 1205.56 729.956 1208.69 C 732.273 1209.34 736.866 1206.47 739.012 1205.27 C 740.491 1206.58 740.089 1205.95 740.593 1206.88 C 748.52 1245.02 763.432 1274.91 772.674 1311.86 L 773.422 1318.03 C 752.95 1311 746.256 1299.2 737.357 1281.22 C 725.192 1282.79 719.088 1282.63 706.835 1281.63 C 705.889 1279.4 705.12 1277.24 704.282 1274.97 C 694.574 1247.78 698.47 1228.69 704.484 1201.08 C 706.22 1194.64 707.41 1187.38 708.64 1180.77 z"/>
<path transform="translate(0,0)" fill="rgb(157,116,41)" d="M 740.406 1274.99 C 750.466 1294.67 753.381 1300.75 772.674 1311.86 L 773.422 1318.03 C 752.95 1311 746.256 1299.2 737.357 1281.22 C 725.192 1282.79 719.088 1282.63 706.835 1281.63 C 705.889 1279.4 705.12 1277.24 704.282 1274.97 C 718.376 1277.27 726.098 1277.28 740.406 1274.99 z"/>
<path transform="translate(0,0)" fill="rgb(86,159,173)" d="M 1098.85 1475.65 C 1107.84 1475.43 1128.84 1472.26 1138.38 1470.78 C 1161.77 1467.13 1191.64 1463.46 1214.24 1457.56 C 1214.55 1465.21 1215.03 1473.45 1214.89 1481.05 C 1173.6 1494.7 1144.34 1499.01 1100.65 1501.71 C 1099.69 1496.18 1099.68 1483.15 1098.85 1475.65 z"/>
<path transform="translate(0,0)" fill="rgb(228,133,65)" d="M 1024.94 1239.21 C 1115.55 1238.82 1218.8 1231.79 1303.9 1199.27 C 1300.76 1211.91 1296.86 1228.39 1292.73 1240.63 C 1278.81 1281.85 1267.17 1308.17 1265.63 1353.09 C 1265.13 1367.87 1265.42 1382.66 1266.5 1397.4 C 1267.18 1408.19 1269.78 1422.35 1267.95 1432.9 C 1267.38 1436.17 1266.28 1437.56 1263.41 1439.2 C 1246.31 1448.99 1080.87 1477.25 1063.73 1472.38 C 1060.5 1471.46 1058.23 1469.55 1056.69 1466.55 C 1052.09 1457.59 1052.1 1436.68 1049.71 1425.71 C 1047.88 1416.67 1046.91 1411.9 1041.96 1403.76 C 1068.89 1401.54 1083.13 1397.07 1107.71 1387.15 L 1108.72 1386.03 L 1107.5 1383.39 C 1101.52 1381.83 1090.77 1388.47 1084.49 1390.42 C 1066.06 1396.13 1044.06 1400.01 1024.82 1397.22 L 1024.94 1239.21 z"/>
<path transform="translate(0,0)" fill="rgb(213,107,42)" d="M 1041.96 1403.76 C 1068.89 1401.54 1083.13 1397.07 1107.71 1387.15 C 1099 1402.82 1066.66 1421.23 1049.71 1425.71 C 1047.88 1416.67 1046.91 1411.9 1041.96 1403.76 z"/>
<path transform="translate(0,0)" fill="rgb(144,60,19)" d="M 1032.99 1360.11 C 1034.44 1360.46 1035.34 1360.87 1036.73 1361.41 C 1039.42 1366.7 1037.97 1373.62 1037.33 1379.61 C 1034.26 1379.78 1035.51 1380.27 1033.36 1378.39 C 1031.96 1372.6 1032.71 1366.18 1032.99 1360.11 z"/>
<path transform="translate(0,0)" fill="rgb(144,60,19)" d="M 1033.72 1241.3 C 1036.16 1242.25 1035.31 1241.78 1037.27 1243.61 C 1038.95 1250.43 1038.14 1254.77 1037.34 1261.8 C 1034.41 1261.02 1035.55 1261.84 1033.52 1259.83 C 1031.99 1253.11 1032.79 1248.11 1033.72 1241.3 z"/>
<path transform="translate(0,0)" fill="rgb(144,60,19)" d="M 1033.56 1330.21 C 1036.57 1331.22 1035.35 1330.39 1037.4 1332.71 C 1038.87 1339.33 1038.2 1344.14 1037.05 1350.81 C 1034.64 1349.96 1035.45 1350.42 1033.59 1348.66 C 1032.07 1341.94 1032.93 1337.03 1033.56 1330.21 z"/>
<path transform="translate(0,0)" fill="rgb(144,60,19)" d="M 1033.08 1271.18 L 1036.05 1271.97 C 1039.56 1276.24 1037.98 1285.08 1037.61 1290.95 C 1034.35 1290.79 1035.58 1291.49 1033.55 1289.36 C 1032.23 1283.61 1032.87 1277.18 1033.08 1271.18 z"/>
<path transform="translate(0,0)" fill="rgb(144,60,19)" d="M 1033.87 1300.4 C 1036.16 1301.07 1035.98 1301.14 1037.46 1303.07 C 1038.71 1309.09 1038.35 1315.17 1036.73 1321.08 C 1034.51 1320.65 1035.58 1321.01 1033.67 1319.31 C 1032.29 1313.15 1032.69 1306.56 1033.87 1300.4 z"/>
<path transform="translate(0,0)" fill="rgb(228,133,65)" d="M 744.022 1199.43 C 819.299 1229.06 939.16 1238.94 1020.12 1239.15 C 1020.93 1290.78 1020.64 1345.83 1020.21 1397.61 C 1003.45 1400.64 979.497 1395.39 963.082 1390.3 C 957.085 1388.44 950.627 1383.81 943.001 1383.17 C 940.927 1384.63 941.672 1383.66 941.16 1386.44 L 943.02 1388.19 C 971.124 1398.59 976.301 1400.65 1005.91 1404.18 C 1002.11 1412.77 1000.54 1417.52 998.602 1426.81 C 997.062 1436.17 995.849 1460.09 992.129 1467.35 C 990.849 1469.85 988.536 1471.48 985.912 1472.3 C 967.391 1478.15 800.83 1447.91 784.48 1439.18 C 782.021 1437.87 781.232 1437.04 780.702 1434.25 C 778.376 1421.93 781.426 1406.24 782.17 1393.7 C 783.022 1380.36 783.258 1366.98 782.878 1353.62 C 781.656 1310.3 770.095 1281.72 756.079 1242.09 C 751.699 1229.7 747.376 1212.24 744.022 1199.43 z"/>
<path transform="translate(0,0)" fill="rgb(213,107,42)" d="M 943.02 1388.19 C 971.124 1398.59 976.301 1400.65 1005.91 1404.18 C 1002.11 1412.77 1000.54 1417.52 998.602 1426.81 C 994.298 1421.04 957.487 1412.98 943.02 1388.19 z"/>
<path transform="translate(0,0)" fill="rgb(228,133,65)" d="M 745.716 1150.41 C 746.276 1146.3 745.32 1147.76 747.963 1145.47 L 758.38 1149.19 C 897.217 1192.48 1151.5 1195.44 1291.02 1149.38 L 1301.28 1145.45 C 1301.95 1147.02 1302.91 1148.9 1303.2 1150.51 C 1311.67 1172.66 1305.11 1173.51 1304.88 1193.33 C 1172.74 1248.41 875.049 1247.15 742.945 1193.62 C 742.826 1182.13 737.501 1159.54 745.716 1150.41 z"/>
<path transform="translate(0,0)" fill="rgb(144,60,19)" d="M 745.716 1150.41 C 746.276 1146.3 745.32 1147.76 747.963 1145.47 L 758.38 1149.19 C 897.217 1192.48 1151.5 1195.44 1291.02 1149.38 L 1301.28 1145.45 C 1301.95 1147.02 1302.91 1148.9 1303.2 1150.51 C 1278.7 1159.94 1253.08 1167.28 1227.28 1172.1 C 1102.43 1195.43 861.813 1196.04 745.716 1150.41 z"/>
<path transform="translate(0,0)" fill="rgb(233,201,103)" d="M 1347.07 981.71 L 1356.34 979.502 C 1357.91 997.827 1357.72 1016.26 1355.78 1034.55 C 1369.97 1035.15 1389.91 1036.03 1399.59 1047.7 C 1418.91 1070.97 1419.12 1137.86 1417.45 1167.49 C 1415.92 1194.47 1410.91 1257.82 1391.84 1275.56 C 1377.37 1289.03 1350.14 1287.35 1331.83 1285.7 C 1320.59 1312.03 1301.92 1327.14 1272.91 1330.26 L 1273.57 1324.77 C 1279.74 1286.96 1299.06 1245.78 1308.3 1205.03 C 1318.69 1210.65 1320.45 1209.54 1328.34 1201.35 C 1335.83 1185.98 1354.01 1155.62 1351.74 1137.94 C 1351.26 1134.28 1346.15 1131.4 1343.05 1129.71 C 1347.32 1111.76 1348.07 1103.41 1348.33 1086.1 C 1348.57 1070.65 1341.92 991.09 1345.97 981.825 L 1347.07 981.71 z"/>
<path transform="translate(0,0)" fill="rgb(207,169,73)" d="M 1328.34 1201.35 C 1330.68 1221.51 1325.82 1258.84 1328.38 1277.87 C 1330.3 1279.17 1329.42 1278.82 1330.85 1279.24 L 1328.58 1279.77 C 1324.86 1285.99 1322.21 1295.25 1316.48 1302.1 C 1307.77 1312.5 1290.57 1320.64 1277.96 1323.78 C 1276.51 1324.15 1275.04 1324.48 1273.57 1324.77 C 1279.74 1286.96 1299.06 1245.78 1308.3 1205.03 C 1318.69 1210.65 1320.45 1209.54 1328.34 1201.35 z"/>
<path transform="translate(0,0)" fill="rgb(157,116,41)" d="M 1347.07 981.71 L 1356.34 979.502 C 1357.91 997.827 1357.72 1016.26 1355.78 1034.55 C 1369.97 1035.15 1389.91 1036.03 1399.59 1047.7 C 1418.91 1070.97 1419.12 1137.86 1417.45 1167.49 C 1415.92 1194.47 1410.91 1257.82 1391.84 1275.56 C 1377.37 1289.03 1350.14 1287.35 1331.83 1285.7 C 1320.59 1312.03 1301.92 1327.14 1272.91 1330.26 L 1273.57 1324.77 C 1275.04 1324.48 1276.51 1324.15 1277.96 1323.78 C 1290.57 1320.64 1307.77 1312.5 1316.48 1302.1 C 1322.21 1295.25 1324.86 1285.99 1328.58 1279.77 L 1330.85 1279.24 C 1345.45 1282.64 1377.87 1282.27 1388 1270.97 C 1403.82 1253.33 1408.31 1209.82 1410.51 1185.29 C 1414.11 1145.31 1415.88 1089.15 1396.32 1052.98 C 1388.68 1041.1 1363.3 1040.36 1349.56 1039.58 C 1350.52 1029.63 1354.44 988.421 1349.9 981.788 L 1347.07 981.71 z"/>
<path transform="translate(0,0)" fill="rgb(157,116,41)" d="M 1319.41 794.887 C 1334.45 804.405 1352.57 831.478 1356.38 849.106 C 1358.02 856.7 1357.84 862.501 1357.2 870.224 L 1356.18 876.718 C 1352.95 895.8 1350.34 914.979 1348.33 934.226 C 1346.98 948.065 1346.31 963.172 1344.72 976.695 C 1345.11 978.636 1345.25 980.034 1345.97 981.825 C 1341.92 991.09 1348.57 1070.65 1348.33 1086.1 C 1348.07 1103.41 1347.32 1111.76 1343.05 1129.71 C 1346.15 1131.4 1351.26 1134.28 1351.74 1137.94 C 1354.01 1155.62 1335.83 1185.98 1328.34 1201.35 C 1320.45 1209.54 1318.69 1210.65 1308.3 1205.03 C 1308.17 1201.77 1306.02 1196.68 1304.88 1193.33 C 1305.11 1173.51 1311.67 1172.66 1303.2 1150.51 C 1302.91 1148.9 1301.95 1147.02 1301.28 1145.45 C 1286.06 1074.19 1280.34 1008.76 1285.28 935.511 C 1286.9 911.49 1292.39 889.19 1294.31 866.773 C 1299.82 850.066 1304.88 831.16 1309.76 814.133 C 1313.25 807.924 1314.73 800.443 1319.41 794.887 z"/>
<path transform="translate(0,0)" fill="rgb(233,201,103)" d="M 1320.45 803.472 C 1332.04 810.35 1351.43 842.435 1351.85 856.769 C 1352.18 867.924 1349.65 882.335 1347.91 893.551 C 1341.88 930.58 1338.96 968.048 1339.17 1005.56 C 1339.92 1055.36 1347.14 1081.22 1337.41 1131.56 C 1326.99 1138.76 1324.64 1140.41 1317.21 1150.85 L 1312.48 1160.08 C 1302.02 1129.96 1297.47 1099.2 1293.92 1067.72 C 1283.41 974.58 1288.16 891.596 1320.45 803.472 z"/>
<path transform="translate(0,0)" fill="rgb(233,201,103)" d="M 1339.5 1136.73 C 1341.34 1136.7 1342.26 1136.94 1344.09 1137.21 C 1345.58 1138.78 1347.17 1140.3 1346.86 1142.88 C 1345.27 1156.01 1326.23 1195.59 1318.15 1203.65 C 1309.93 1199.15 1309.23 1190.76 1310.94 1182.2 C 1314.57 1163.99 1323.79 1147.17 1339.5 1136.73 z"/>
<path transform="translate(0,0)" fill="rgb(157,116,41)" d="M 700.28 940.823 C 701.842 915.749 686.908 875.312 691.691 849.843 C 694.894 832.79 714.648 804.238 729 794.766 C 733.552 801.563 734.977 809.414 738.236 814.111 C 743.348 830.945 748.247 847.842 752.935 864.798 C 753.33 879.814 759.152 899.578 760.806 915.085 C 766.994 973.109 765.31 1031.07 757.655 1088.85 C 756.835 1095.04 747.447 1143.76 747.963 1145.47 C 745.32 1147.76 746.276 1146.3 745.716 1150.41 C 737.501 1159.54 742.826 1182.13 742.945 1193.62 C 741.806 1198.2 740.478 1202.19 740.593 1206.88 C 740.089 1205.95 740.491 1206.58 739.012 1205.27 C 736.866 1206.47 732.273 1209.34 729.956 1208.69 C 718.821 1205.56 714.977 1189.54 708.64 1180.77 C 707.922 1177.59 706.82 1175.62 705.434 1172.71 C 699.316 1157.94 686.617 1139.25 704.945 1129.66 C 696.039 1085.85 701.605 1064.44 703.181 1020.73 C 703.923 996.906 703.313 973.058 701.354 949.302 L 700.28 940.823 z"/>
<path transform="translate(0,0)" fill="rgb(233,201,103)" d="M 726.554 803.773 C 729.67 806.873 733.73 819.853 735.259 824.67 C 748.706 867.147 756.522 911.205 758.508 955.715 C 761.018 1009.03 756.609 1062.66 747.382 1115.18 C 746.279 1121.45 739.265 1153.89 736.35 1157.1 C 733.454 1156.24 733.493 1154.91 731.301 1151.62 C 724.122 1141.46 721.564 1139.27 711.569 1131.67 C 700.591 1092.92 709.636 1030.98 708.909 986.722 C 708.453 962.065 706.564 937.456 703.252 913.018 C 700.879 895.816 697.351 877.141 696.494 859.973 C 695.619 842.449 714.198 815.812 726.554 803.773 z"/>
<path transform="translate(0,0)" fill="rgb(233,201,103)" d="M 704.72 1135.51 C 726.173 1144.45 747.104 1183.02 732.661 1203.66 C 719.707 1198.75 705.129 1157.25 701.41 1143.53 C 700.556 1140.37 702.908 1137.68 704.72 1135.51 z"/>
<path transform="translate(0,0)" fill="rgb(121,192,207)" d="M 1316.27 571.988 L 1322.59 577.894 C 1323.6 584.39 1326.16 592.118 1328.1 598.5 L 1329.92 603.125 C 1332.44 599.566 1335.2 594.849 1337.55 591.077 L 1339.73 585.085 C 1347.14 584.541 1351.98 584.063 1359.43 585.005 L 1365.17 585.279 C 1417.04 594.757 1453.03 624.402 1443.6 680.651 C 1434.08 737.364 1371.85 745.348 1327.13 757.098 C 1325.22 766.76 1321.99 786.286 1319.41 794.887 C 1314.73 800.443 1313.25 807.924 1309.76 814.133 C 1312.91 794.573 1318.69 771.423 1322.31 751.398 C 1334.45 684.342 1333.26 637.638 1316.27 571.988 z"/>
<path transform="translate(0,0)" fill="rgb(86,159,173)" d="M 1331.75 616.055 C 1355.95 615.79 1378.51 615.603 1397.66 633.178 C 1417.56 651.436 1415.2 681.129 1396.14 698.85 C 1379.64 714.2 1353.89 719.107 1332.38 722.565 C 1336.22 684.165 1336.81 654.512 1331.75 616.055 z"/>
<path transform="translate(0,0)" fill="rgb(36,94,111)" d="M 1316.27 571.988 L 1322.59 577.894 C 1323.6 584.39 1326.16 592.118 1328.1 598.5 L 1329.92 603.125 C 1330.46 607.591 1330.98 611.624 1331.75 616.055 C 1336.81 654.512 1336.22 684.165 1332.38 722.565 C 1331.36 731.918 1329.64 741.232 1328.05 750.512 C 1361.42 741.887 1397.77 738.251 1422.94 711.065 C 1435.65 696.965 1440.36 678.665 1439.24 660.068 C 1436.08 607.406 1383.47 587.644 1337.55 591.077 L 1339.73 585.085 C 1347.14 584.541 1351.98 584.063 1359.43 585.005 L 1365.17 585.279 C 1417.04 594.757 1453.03 624.402 1443.6 680.651 C 1434.08 737.364 1371.85 745.348 1327.13 757.098 C 1325.22 766.76 1321.99 786.286 1319.41 794.887 C 1314.73 800.443 1313.25 807.924 1309.76 814.133 C 1312.91 794.573 1318.69 771.423 1322.31 751.398 C 1334.45 684.342 1333.26 637.638 1316.27 571.988 z"/>
<path transform="translate(0,0)" fill="rgb(121,192,207)" d="M 689.988 591.935 L 691.73 596.187 C 695.693 606.321 699.116 612.097 705.754 620.84 C 708.712 623.557 712.201 626.953 715.207 629.495 L 719.993 631.707 C 715.631 677.818 718.236 711.52 727.04 757.294 C 729.896 772.14 736.82 800.351 738.236 814.111 C 734.977 809.414 733.552 801.563 729 794.766 C 726.755 788.845 723.436 769.47 722.108 762.477 C 701.756 758.993 686.626 756.68 666.382 749.748 C 608.869 730.055 579.135 664.131 625.634 616.775 C 634.892 607.347 644.64 602.885 656.975 597.602 L 663.71 595.703 C 674.208 592.758 679.192 592.127 689.988 591.935 z"/>
<path transform="translate(0,0)" fill="rgb(86,159,173)" d="M 705.754 620.84 C 708.712 623.557 712.201 626.953 715.207 629.495 C 711.023 663.463 712.857 693.417 716.244 727.174 C 682.686 725.811 636.97 710.029 636.306 668.68 C 635.995 649.335 653.552 633.753 670.059 626.896 C 681.864 621.994 694.9 623.865 705.754 620.84 z"/>
<path transform="translate(0,0)" fill="rgb(36,94,111)" d="M 689.988 591.935 L 691.73 596.187 C 675.157 598.055 665.329 599.833 650.311 606.835 C 598.864 630.822 594.911 695.692 639.897 728.782 C 666.339 748.231 689.957 750.853 721.014 756.101 C 719.386 746.678 717.452 736.606 716.244 727.174 C 712.857 693.417 711.023 663.463 715.207 629.495 L 719.993 631.707 C 715.631 677.818 718.236 711.52 727.04 757.294 C 729.896 772.14 736.82 800.351 738.236 814.111 C 734.977 809.414 733.552 801.563 729 794.766 C 726.755 788.845 723.436 769.47 722.108 762.477 C 701.756 758.993 686.626 756.68 666.382 749.748 C 608.869 730.055 579.135 664.131 625.634 616.775 C 634.892 607.347 644.64 602.885 656.975 597.602 L 663.71 595.703 C 674.208 592.758 679.192 592.127 689.988 591.935 z"/>
<path transform="translate(0,0)" fill="rgb(36,94,111)" d="M 865.92 479.115 C 886.281 474.338 902.266 471.968 922.246 480.139 C 936.152 491.938 933.247 512.798 915.412 511.935 C 893.407 510.869 881.993 512.087 860.77 516.408 C 844.362 519.748 819.989 539.355 806.277 535.327 C 801.127 524.652 804.527 520.845 809.706 511.03 C 810.579 509.471 813.951 505.5 815.254 503.892 C 816.148 503.731 844.161 486.915 848.197 484.638 C 854.579 482.362 859.375 480.877 865.92 479.115 z"/>
<path transform="translate(0,0)" fill="rgb(86,159,173)" d="M 887.543 480.382 C 898.741 479.407 917.867 478.517 924.913 489.932 C 928.281 495.033 925.149 506.495 918.413 506.611 C 887.07 507.147 868.835 506.495 838.748 519.402 C 830.542 522.888 815.172 534.938 808.246 528.281 C 807.703 523.574 810.315 519.022 813.378 515.471 C 832.099 493.769 860.354 483.559 887.543 480.382 z"/>
<path transform="translate(0,0)" fill="rgb(86,159,173)" d="M 1159.3 475.117 C 1170.36 476.586 1181.26 479.013 1191.89 482.369 C 1194.77 484.654 1196.05 485.443 1198.24 488.472 C 1205.97 494.317 1215.27 501.22 1224.05 505.446 L 1228.07 508.212 C 1232.77 508.73 1233.47 509.041 1238 510.677 C 1238.11 513.369 1244.3 519.445 1245.42 527.853 C 1238.95 541.321 1230.68 535.845 1219.66 530.142 C 1199.48 519.698 1178.8 511.46 1155.72 511.567 C 1142.55 511.628 1117.46 517.299 1117.18 497.24 C 1117.15 491.609 1119.5 486.229 1123.65 482.419 C 1132.85 474.068 1147.75 474.914 1159.3 475.117 z"/>
<path transform="translate(0,0)" fill="rgb(36,94,111)" d="M 1159.3 475.117 C 1170.36 476.586 1181.26 479.013 1191.89 482.369 C 1194.77 484.654 1196.05 485.443 1198.24 488.472 C 1184.19 484.889 1125.28 467.827 1121.65 493.936 C 1121.12 497.431 1122.18 500.979 1124.52 503.626 C 1130.32 510.2 1151.42 505.955 1160.21 506.671 C 1182.73 508.506 1203.08 515.345 1222.81 526.169 C 1228.82 529.413 1234.51 533.014 1239.32 528.644 C 1241.42 521.169 1232.84 513.364 1228.07 508.212 C 1232.77 508.73 1233.47 509.041 1238 510.677 C 1238.11 513.369 1244.3 519.445 1245.42 527.853 C 1238.95 541.321 1230.68 535.845 1219.66 530.142 C 1199.48 519.698 1178.8 511.46 1155.72 511.567 C 1142.55 511.628 1117.46 517.299 1117.18 497.24 C 1117.15 491.609 1119.5 486.229 1123.65 482.419 C 1132.85 474.068 1147.75 474.914 1159.3 475.117 z"/>
<path transform="translate(0,0)" fill="rgb(86,159,173)" d="M 752.935 864.798 C 758.63 874.452 765.197 895.296 767.958 906.976 C 786.14 983.893 783.345 1052.52 763.875 1128.1 L 758.38 1149.19 L 747.963 1145.47 C 747.447 1143.76 756.835 1095.04 757.655 1088.85 C 765.31 1031.07 766.994 973.109 760.806 915.085 C 759.152 899.578 753.33 879.814 752.935 864.798 z"/>
<path transform="translate(0,0)" fill="rgb(86,159,173)" d="M 1291.02 1149.38 C 1288.43 1141.77 1285.9 1132.8 1283.78 1125 C 1265.04 1055.28 1263.62 982.028 1279.63 911.626 C 1282.89 897.41 1287.05 879.45 1294.31 866.773 C 1292.39 889.19 1286.9 911.49 1285.28 935.511 C 1280.34 1008.76 1286.06 1074.19 1301.28 1145.45 L 1291.02 1149.38 z"/>
<path transform="translate(0,0)" fill="rgb(36,94,111)" d="M 877.912 533.413 C 981.798 524.036 1010.91 697.332 874.69 705.876 C 868.144 705.724 860.901 705.809 854.428 705.064 C 816.505 700.703 786.779 677.112 783.251 637.96 C 781.162 612.838 789.2 587.924 805.576 568.76 C 824.449 546.709 849.408 535.787 877.912 533.413 z"/>
<path transform="translate(0,0)" fill="rgb(255,255,255)" d="M 883.03 537.413 C 928.499 538.776 960.91 571.357 962.176 616.816 C 962.89 638.347 954.897 659.257 940.004 674.822 C 919.939 695.514 894.881 701.139 867.251 701.725 C 846.409 700.212 826.729 696.224 810.454 682.397 C 777.012 653.985 782.363 601.52 809.87 571.063 C 829.969 548.808 853.992 539.481 883.03 537.413 z"/>
<path transform="translate(0,0)" fill="rgb(36,94,111)" d="M 882.251 564.641 C 912.506 559.506 941.224 579.783 946.508 610.013 C 951.793 640.242 931.656 669.06 901.453 674.493 C 871.039 679.964 841.976 659.656 836.655 629.215 C 831.334 598.775 851.784 569.812 882.251 564.641 z"/>
<path transform="translate(0,0)" fill="rgb(255,255,255)" d="M 911.316 582.401 C 915.652 580.633 920.604 581.338 924.274 584.246 C 927.944 587.154 929.763 591.814 929.034 596.439 C 928.304 601.065 925.14 604.938 920.753 606.575 C 914.109 609.055 906.706 605.742 904.127 599.137 C 901.548 592.531 904.75 585.079 911.316 582.401 z"/>
<path transform="translate(0,0)" fill="rgb(36,94,111)" d="M 1163.27 533.403 C 1272.44 528.792 1315.21 696.5 1184.56 705.802 C 1157.78 706.325 1132.55 701.478 1111.41 683.995 C 1094.41 669.991 1083.83 649.672 1082.12 627.712 C 1077.84 574.537 1110.48 537.391 1163.27 533.403 z"/>
<path transform="translate(0,0)" fill="rgb(255,255,255)" d="M 1164.83 537.414 C 1187.32 537.173 1212.49 547.241 1229.4 561.893 C 1247.69 577.796 1258.94 600.293 1260.68 624.465 C 1263.98 674.674 1227.62 698.953 1181.63 701.533 C 1157.56 702.295 1132.46 695.554 1113.82 679.868 C 1097.78 666.273 1087.86 646.811 1086.29 625.843 C 1082.08 575.685 1115.81 540.982 1164.83 537.414 z"/>
<path transform="translate(0,0)" fill="rgb(36,94,111)" d="M 1146.82 564.653 C 1177.37 559.2 1206.5 579.702 1211.68 610.297 C 1216.86 640.892 1196.1 669.841 1165.46 674.749 C 1135.21 679.594 1106.7 659.15 1101.58 628.938 C 1096.47 598.726 1116.66 570.037 1146.82 564.653 z"/>
<path transform="translate(0,0)" fill="rgb(255,255,255)" d="M 1177.37 582.405 C 1183.99 579.813 1191.47 583.036 1194.13 589.63 C 1196.78 596.224 1193.64 603.73 1187.07 606.454 C 1182.76 608.241 1177.83 607.577 1174.14 604.716 C 1170.46 601.855 1168.6 597.237 1169.27 592.622 C 1169.94 588.007 1173.03 584.106 1177.37 582.405 z"/>
<path transform="translate(0,0)" fill="rgb(36,94,111)" d="M 949.012 704.304 C 953.559 705.902 966.598 716.481 972.06 719.824 C 1000.72 737.36 1045.96 738.653 1074.91 720.976 C 1081.84 716.742 1093.02 706.225 1098.49 705.069 C 1102.11 705.886 1100.89 704.904 1102.63 707.635 C 1102.27 712.76 1102.74 710.838 1099.87 715.334 C 1065.76 747.396 1012.36 751.893 971.051 730.963 C 962.164 726.461 951.276 720.414 946.592 711.363 C 946.475 707.087 946.418 708.524 949.012 704.304 z"/>
<path transform="translate(0,0)" fill="rgb(36,94,111)" d="M 1017.14 628.186 C 1050.49 626.163 1061.52 656.172 1032.01 668.324 C 1019.99 669.847 1006.26 667.56 1001.02 655.042 C 999.158 650.689 999.147 645.768 1000.98 641.407 C 1004.19 633.896 1010.2 631.03 1017.14 628.186 z"/>
<path transform="translate(0,0)" fill="rgb(222,183,181)" d="M 1022.66 632.25 C 1045.96 632.811 1054.2 656.655 1027.06 664.242 C 1001.01 664.052 994.597 638.001 1022.66 632.25 z"/>
<path transform="translate(0,0)" fill="rgb(255,255,255)" d="M 828.73 1456.46 L 833.878 1457.29 C 859.52 1463.95 921.776 1473.15 949.197 1476.03 L 954.848 1476.76 C 953.012 1515.56 951.591 1557.14 947.716 1595.82 C 965.631 1607.64 963.653 1628.12 959.968 1647.32 C 985.601 1662.87 991.049 1683.12 998.561 1711.3 C 1002.75 1727 1010.83 1780.49 1008.71 1795.17 C 1011.14 1796.73 1013.32 1798.66 1015.15 1800.89 C 1023.64 1811.25 1020.29 1843.96 1019.35 1857.4 C 1017.62 1868.41 1019.02 1894.41 1008.07 1901.06 C 985.541 1914.72 951.035 1931.94 926.022 1938.39 C 869.561 1952.96 808.369 1950.53 750.645 1944.82 C 731.506 1942.93 688.351 1938.03 674.109 1922.84 C 665.764 1910.56 664.501 1858.05 666.08 1841.14 C 666.817 1833.25 670.593 1828.47 676.708 1824.01 C 683.562 1753.54 705.25 1711.19 770.631 1678.44 C 785.511 1669.84 798.394 1664.78 814.96 1660.79 C 812.236 1637.18 808.327 1612.43 830.223 1597.73 C 828.894 1586.11 828.686 1571.12 828.267 1559.26 C 827.106 1525 827.261 1490.71 828.73 1456.46 z"/>
<path transform="translate(0,0)" fill="rgb(36,94,111)" d="M 676.708 1824.01 C 683.562 1753.54 705.25 1711.19 770.631 1678.44 L 775.352 1681.5 C 766.55 1686.27 738.002 1701.05 735.372 1708.93 C 698.114 1739.74 683.732 1780.65 682.854 1828.27 C 724.116 1845.68 825.169 1850.31 871.245 1848.41 C 890.326 1847.63 914.888 1844.22 933.353 1839.63 C 940.708 1838.17 951.293 1834.68 958.294 1831.96 C 973.794 1825.52 991.749 1817.73 1004.48 1806.79 C 1004.84 1801.95 1006.15 1799.14 1008.71 1795.17 C 1011.14 1796.73 1013.32 1798.66 1015.15 1800.89 C 1023.64 1811.25 1020.29 1843.96 1019.35 1857.4 C 1017.62 1868.41 1019.02 1894.41 1008.07 1901.06 C 985.541 1914.72 951.035 1931.94 926.022 1938.39 C 869.561 1952.96 808.369 1950.53 750.645 1944.82 C 731.506 1942.93 688.351 1938.03 674.109 1922.84 C 665.764 1910.56 664.501 1858.05 666.08 1841.14 C 666.817 1833.25 670.593 1828.47 676.708 1824.01 z"/>
<path transform="translate(0,0)" fill="rgb(255,255,255)" d="M 1009.85 1804.02 C 1020.96 1815.79 1011.5 1866.17 1011.19 1882.86 C 1010.86 1900.93 973.001 1912.38 957.78 1920.29 C 926.327 1936.64 886.182 1941.54 850.932 1943.06 C 814.741 1944.33 703.397 1942.52 677.581 1918.73 C 672.313 1903.03 666.287 1843.5 676.504 1830.82 C 680.722 1833.33 686.337 1836.73 691.026 1837.88 C 724.213 1845.73 754.669 1849.94 789.164 1852.43 C 859.641 1857.53 937.854 1857.5 999.558 1818.01 C 1005.34 1814.31 1007.95 1810.31 1009.85 1804.02 z"/>
<path transform="translate(0,0)" fill="rgb(121,192,207)" d="M 828.73 1456.46 L 833.878 1457.29 C 859.52 1463.95 921.776 1473.15 949.197 1476.03 L 954.848 1476.76 C 953.012 1515.56 951.591 1557.14 947.716 1595.82 C 965.631 1607.64 963.653 1628.12 959.968 1647.32 L 959.882 1654.02 C 961.229 1655.14 966.24 1659.47 967.442 1660.06 C 969.586 1669.92 971.487 1679.84 965.603 1689.02 C 964.863 1690.16 964.086 1691.27 963.273 1692.36 C 960.775 1691.75 958.477 1691.47 955.939 1691.09 L 952.237 1692.82 L 949.555 1691.57 C 940.065 1686.7 929.868 1679.99 919.987 1674.95 C 885.02 1657.09 858.405 1653.55 820.319 1659.63 C 818.743 1660.01 816.503 1660.63 814.96 1660.79 C 812.236 1637.18 808.327 1612.43 830.223 1597.73 C 828.894 1586.11 828.686 1571.12 828.267 1559.26 C 827.106 1525 827.261 1490.71 828.73 1456.46 z"/>
<path transform="translate(0,0)" fill="rgb(255,255,255)" d="M 820.319 1659.63 C 819.598 1644.96 814.821 1614.3 829.274 1605.64 C 833.771 1614.01 830.87 1618.36 841.858 1623.15 C 871.125 1635.88 903.132 1634.38 932.469 1622.76 C 951.308 1615.29 943.816 1607.78 948.825 1604.01 C 963.268 1613.14 951.156 1675.9 949.555 1691.57 C 940.065 1686.7 929.868 1679.99 919.987 1674.95 C 885.02 1657.09 858.405 1653.55 820.319 1659.63 z"/>
<path transform="translate(0,0)" fill="rgb(36,94,111)" d="M 828.73 1456.46 L 833.878 1457.29 C 833.544 1468.48 832.68 1484.24 833.131 1495.1 C 832.628 1522.92 833.149 1550.74 834.693 1578.52 C 835.165 1587.89 835.678 1604.29 837.176 1613.23 C 863.905 1632.61 913.532 1628.72 940.598 1611.76 C 943.98 1575.17 946.448 1538.5 948.001 1501.79 L 949.197 1476.03 L 954.848 1476.76 C 953.012 1515.56 951.591 1557.14 947.716 1595.82 C 965.631 1607.64 963.653 1628.12 959.968 1647.32 L 959.882 1654.02 C 961.229 1655.14 966.24 1659.47 967.442 1660.06 C 969.586 1669.92 971.487 1679.84 965.603 1689.02 C 964.863 1690.16 964.086 1691.27 963.273 1692.36 C 960.775 1691.75 958.477 1691.47 955.939 1691.09 L 952.237 1692.82 L 949.555 1691.57 C 951.156 1675.9 963.268 1613.14 948.825 1604.01 C 943.816 1607.78 951.308 1615.29 932.469 1622.76 C 903.132 1634.38 871.125 1635.88 841.858 1623.15 C 830.87 1618.36 833.771 1614.01 829.274 1605.64 C 814.821 1614.3 819.598 1644.96 820.319 1659.63 C 818.743 1660.01 816.503 1660.63 814.96 1660.79 C 812.236 1637.18 808.327 1612.43 830.223 1597.73 C 828.894 1586.11 828.686 1571.12 828.267 1559.26 C 827.106 1525 827.261 1490.71 828.73 1456.46 z"/>
<path transform="translate(0,0)" fill="rgb(131,115,181)" d="M 959.882 1654.02 C 961.229 1655.14 966.24 1659.47 967.442 1660.06 C 969.586 1669.92 971.487 1679.84 965.603 1689.02 C 964.863 1690.16 964.086 1691.27 963.273 1692.36 C 960.775 1691.75 958.477 1691.47 955.939 1691.09 C 955.695 1684.93 958.915 1661.4 959.882 1654.02 z"/>
<path transform="translate(0,0)" fill="rgb(86,159,173)" d="M 833.878 1457.29 C 859.52 1463.95 921.776 1473.15 949.197 1476.03 L 948.001 1501.79 C 907.612 1499.68 872.499 1494.14 834.238 1481 C 834.135 1486.54 833.818 1489.68 833.131 1495.1 C 832.68 1484.24 833.544 1468.48 833.878 1457.29 z"/>
<path transform="translate(0,0)" fill="rgb(228,133,65)" d="M 959.968 1647.32 C 985.601 1662.87 991.049 1683.12 998.561 1711.3 C 1002.75 1727 1010.83 1780.49 1008.71 1795.17 C 1006.15 1799.14 1004.84 1801.95 1004.48 1806.79 C 991.749 1817.73 973.794 1825.52 958.294 1831.96 C 956.434 1792.72 946.159 1750.21 920.227 1719.76 C 893.219 1688.04 850.966 1672.74 809.955 1673.34 C 804.935 1673.41 800.641 1673.79 795.573 1673.32 C 790.371 1674.95 779.876 1678.75 775.352 1681.5 L 770.631 1678.44 C 785.511 1669.84 798.394 1664.78 814.96 1660.79 C 816.503 1660.63 818.743 1660.01 820.319 1659.63 C 858.405 1653.55 885.02 1657.09 919.987 1674.95 C 929.868 1679.99 940.065 1686.7 949.555 1691.57 L 952.237 1692.82 L 955.939 1691.09 C 958.477 1691.47 960.775 1691.75 963.273 1692.36 C 964.086 1691.27 964.863 1690.16 965.603 1689.02 C 971.487 1679.84 969.586 1669.92 967.442 1660.06 C 966.24 1659.47 961.229 1655.14 959.882 1654.02 L 959.968 1647.32 z"/>
<path transform="translate(0,0)" fill="rgb(144,60,19)" d="M 820.319 1659.63 C 858.405 1653.55 885.02 1657.09 919.987 1674.95 C 929.868 1679.99 940.065 1686.7 949.555 1691.57 L 952.237 1692.82 L 955.939 1691.09 C 958.477 1691.47 960.775 1691.75 963.273 1692.36 C 957.492 1699.25 953.794 1698.42 945.616 1695.83 C 928.047 1686.9 916.699 1677.76 896.821 1670.74 C 865.735 1659.77 825.598 1658.87 795.573 1673.32 C 790.371 1674.95 779.876 1678.75 775.352 1681.5 L 770.631 1678.44 C 785.511 1669.84 798.394 1664.78 814.96 1660.79 C 816.503 1660.63 818.743 1660.01 820.319 1659.63 z"/>
<path transform="translate(0,0)" fill="rgb(144,60,19)" d="M 959.968 1647.32 C 985.601 1662.87 991.049 1683.12 998.561 1711.3 C 1002.75 1727 1010.83 1780.49 1008.71 1795.17 C 1006.15 1799.14 1004.84 1801.95 1004.48 1806.79 C 1004.02 1792.96 1003.04 1779.16 1001.54 1765.4 C 998.422 1736.03 990.986 1679.1 967.442 1660.06 C 966.24 1659.47 961.229 1655.14 959.882 1654.02 L 959.968 1647.32 z"/>
<path transform="translate(0,0)" fill="rgb(131,115,181)" d="M 775.352 1681.5 C 779.876 1678.75 790.371 1674.95 795.573 1673.32 C 800.641 1673.79 804.935 1673.41 809.955 1673.34 C 850.966 1672.74 893.219 1688.04 920.227 1719.76 C 946.159 1750.21 956.434 1792.72 958.294 1831.96 C 951.293 1834.68 940.708 1838.17 933.353 1839.63 C 930.787 1777.17 903.674 1717.53 840.254 1698 C 803.365 1686.64 769.08 1689.4 735.372 1708.93 C 738.002 1701.05 766.55 1686.27 775.352 1681.5 z"/>
<path transform="translate(0,0)" fill="rgb(255,255,255)" d="M 1214.24 1457.56 L 1220.13 1456.32 C 1221.91 1507.04 1220.08 1547.87 1218.74 1597.93 C 1240.54 1613.58 1235.87 1636.63 1234 1660.76 C 1246.52 1663.11 1265.19 1671.25 1276.34 1677.5 C 1293.2 1685.16 1311.76 1698.67 1325.21 1711.22 C 1357.21 1741.46 1369.28 1780.01 1371.58 1823.25 C 1378.06 1828.17 1381.92 1834.01 1382.62 1842.83 C 1383.9 1858.94 1383.03 1912.04 1374.11 1923.64 C 1360.59 1937.66 1321.21 1942.46 1302.89 1944.31 C 1227.52 1951.92 1144.38 1955.57 1075.31 1919.59 C 1055.54 1909.29 1033 1905.07 1031.18 1879.58 C 1029.68 1858.67 1027.51 1837.54 1027.8 1816.53 C 1027.8 1807.55 1032.58 1801.18 1039.33 1796.05 C 1041.23 1757.76 1045.26 1716.69 1059.76 1680.9 C 1065.97 1665.56 1073.46 1656.25 1087.93 1647.99 C 1088.11 1625.34 1079.73 1611.24 1100.97 1595.67 C 1096.57 1560.76 1095.26 1511.75 1093.9 1476.49 L 1098.85 1475.65 C 1099.68 1483.15 1099.69 1496.18 1100.65 1501.71 C 1144.34 1499.01 1173.6 1494.7 1214.89 1481.05 C 1215.03 1473.45 1214.55 1465.21 1214.24 1457.56 z"/>
<path transform="translate(0,0)" fill="rgb(36,94,111)" d="M 1321.2 1715.28 C 1322.97 1712.99 1322.97 1713.17 1325.21 1711.22 C 1357.21 1741.46 1369.28 1780.01 1371.58 1823.25 C 1378.06 1828.17 1381.92 1834.01 1382.62 1842.83 C 1383.9 1858.94 1383.03 1912.04 1374.11 1923.64 C 1360.59 1937.66 1321.21 1942.46 1302.89 1944.31 C 1227.52 1951.92 1144.38 1955.57 1075.31 1919.59 C 1055.54 1909.29 1033 1905.07 1031.18 1879.58 C 1029.68 1858.67 1027.51 1837.54 1027.8 1816.53 C 1027.8 1807.55 1032.58 1801.18 1039.33 1796.05 C 1041.38 1800.6 1041.85 1803.15 1044.92 1807.08 C 1053.2 1816.34 1079.01 1827.18 1090.88 1831.88 C 1098.22 1835.27 1107.44 1836.73 1115.04 1839.63 C 1132.49 1843.62 1150.23 1846.29 1168.08 1847.62 C 1215.13 1851.02 1323.34 1846.79 1365.72 1828.07 C 1364.19 1781.86 1353.62 1748.44 1321.2 1715.28 z"/>
<path transform="translate(0,0)" fill="rgb(255,255,255)" d="M 1038.59 1803.75 C 1041.74 1806.88 1039.08 1811.09 1046.08 1815.84 C 1102.06 1853.76 1173.7 1856.7 1239.18 1853.77 C 1278.78 1852 1321.11 1847.59 1359.55 1837.1 C 1364.19 1835.83 1367.92 1832.23 1372.37 1831.56 C 1383.09 1842.12 1375.58 1902.31 1371.52 1917.72 C 1362.92 1928.72 1342.09 1932.63 1328.32 1934.82 C 1264.7 1944.75 1197.29 1948.13 1133.83 1935.39 C 1109.84 1929.59 1087.59 1918.58 1065.28 1908.3 C 1052.9 1902.6 1036.6 1895.5 1036.78 1879.5 C 1036.99 1861.07 1027.64 1817.9 1038.59 1803.75 z"/>
<path transform="translate(0,0)" fill="rgb(121,192,207)" d="M 1214.24 1457.56 L 1220.13 1456.32 C 1221.91 1507.04 1220.08 1547.87 1218.74 1597.93 C 1240.54 1613.58 1235.87 1636.63 1234 1660.76 L 1228.38 1659.52 C 1192.57 1653.65 1163.92 1657.43 1131.02 1673.78 C 1119.94 1679.28 1110.19 1685.93 1099.58 1691.68 L 1094 1692.67 C 1090.73 1691.07 1087.89 1690.87 1084.29 1690.28 C 1076.97 1680.55 1077.83 1669.74 1082.57 1659.14 L 1088.67 1653.81 L 1087.93 1647.99 C 1088.11 1625.34 1079.73 1611.24 1100.97 1595.67 C 1096.57 1560.76 1095.26 1511.75 1093.9 1476.49 L 1098.85 1475.65 C 1099.68 1483.15 1099.69 1496.18 1100.65 1501.71 C 1144.34 1499.01 1173.6 1494.7 1214.89 1481.05 C 1215.03 1473.45 1214.55 1465.21 1214.24 1457.56 z"/>
<path transform="translate(0,0)" fill="rgb(255,255,255)" d="M 1099.58 1691.68 C 1096.83 1675.69 1084.93 1611.89 1100.24 1604.01 L 1101.56 1605.06 C 1102.05 1607.88 1102.55 1612.14 1104.32 1614.31 C 1112.11 1623.87 1131.49 1628.4 1143.11 1630.28 C 1165.24 1633.87 1194.28 1632.26 1213.19 1618.92 C 1216.21 1616.79 1217.54 1613.35 1217.74 1609.87 C 1217.88 1607.31 1217.8 1607.63 1219 1605.59 C 1233.38 1610.84 1229.01 1646.76 1228.38 1659.52 C 1192.57 1653.65 1163.92 1657.43 1131.02 1673.78 C 1119.94 1679.28 1110.19 1685.93 1099.58 1691.68 z"/>
<path transform="translate(0,0)" fill="rgb(36,94,111)" d="M 1214.24 1457.56 L 1220.13 1456.32 C 1221.91 1507.04 1220.08 1547.87 1218.74 1597.93 C 1240.54 1613.58 1235.87 1636.63 1234 1660.76 L 1228.38 1659.52 C 1229.01 1646.76 1233.38 1610.84 1219 1605.59 C 1217.8 1607.63 1217.88 1607.31 1217.74 1609.87 C 1217.54 1613.35 1216.21 1616.79 1213.19 1618.92 C 1194.28 1632.26 1165.24 1633.87 1143.11 1630.28 C 1131.49 1628.4 1112.11 1623.87 1104.32 1614.31 C 1102.55 1612.14 1102.05 1607.88 1101.56 1605.06 L 1100.24 1604.01 C 1084.93 1611.89 1096.83 1675.69 1099.58 1691.68 L 1094 1692.67 C 1090.73 1691.07 1087.89 1690.87 1084.29 1690.28 C 1076.97 1680.55 1077.83 1669.74 1082.57 1659.14 L 1088.67 1653.81 L 1087.93 1647.99 C 1088.11 1625.34 1079.73 1611.24 1100.97 1595.67 C 1096.57 1560.76 1095.26 1511.75 1093.9 1476.49 L 1098.85 1475.65 C 1099.68 1483.15 1099.69 1496.18 1100.65 1501.71 C 1101.98 1535.63 1104.04 1577.53 1107.98 1611.15 C 1135.77 1628.97 1184.16 1632.67 1211.77 1613.02 C 1214.05 1565.24 1216.39 1529.29 1214.89 1481.05 C 1215.03 1473.45 1214.55 1465.21 1214.24 1457.56 z"/>
<path transform="translate(0,0)" fill="rgb(131,115,181)" d="M 1088.67 1653.81 C 1090.31 1666.78 1092.09 1679.74 1094 1692.67 C 1090.73 1691.07 1087.89 1690.87 1084.29 1690.28 C 1076.97 1680.55 1077.83 1669.74 1082.57 1659.14 L 1088.67 1653.81 z"/>
<path transform="translate(0,0)" fill="rgb(228,133,65)" d="M 1087.93 1647.99 L 1088.67 1653.81 L 1082.57 1659.14 C 1077.83 1669.74 1076.97 1680.55 1084.29 1690.28 C 1087.89 1690.87 1090.73 1691.07 1094 1692.67 L 1099.58 1691.68 C 1110.19 1685.93 1119.94 1679.28 1131.02 1673.78 C 1163.92 1657.43 1192.57 1653.65 1228.38 1659.52 L 1234 1660.76 C 1246.52 1663.11 1265.19 1671.25 1276.34 1677.5 C 1273.79 1679.74 1274.31 1679.86 1271.33 1680.61 C 1266.77 1678.51 1261.09 1676.32 1256.38 1674.38 C 1245.58 1675.29 1234.34 1673.19 1223.1 1673.98 C 1188 1676.44 1153.92 1691.36 1130.22 1717.69 C 1103.75 1747.11 1090.87 1792.73 1090.88 1831.88 C 1079.01 1827.18 1053.2 1816.34 1044.92 1807.08 C 1041.85 1803.15 1041.38 1800.6 1039.33 1796.05 C 1041.23 1757.76 1045.26 1716.69 1059.76 1680.9 C 1065.97 1665.56 1073.46 1656.25 1087.93 1647.99 z"/>
<path transform="translate(0,0)" fill="rgb(144,60,19)" d="M 1099.58 1691.68 C 1110.19 1685.93 1119.94 1679.28 1131.02 1673.78 C 1163.92 1657.43 1192.57 1653.65 1228.38 1659.52 L 1234 1660.76 C 1246.52 1663.11 1265.19 1671.25 1276.34 1677.5 C 1273.79 1679.74 1274.31 1679.86 1271.33 1680.61 C 1266.77 1678.51 1261.09 1676.32 1256.38 1674.38 C 1213.72 1656.51 1170.93 1659.24 1129.86 1680.65 C 1117.16 1687.27 1094.99 1708.26 1084.29 1690.28 C 1087.89 1690.87 1090.73 1691.07 1094 1692.67 L 1099.58 1691.68 z"/>
<path transform="translate(0,0)" fill="rgb(144,60,19)" d="M 1087.93 1647.99 L 1088.67 1653.81 L 1082.57 1659.14 C 1053.36 1684.67 1047.71 1747.57 1045.26 1784.97 C 1044.84 1792.33 1044.73 1799.71 1044.92 1807.08 C 1041.85 1803.15 1041.38 1800.6 1039.33 1796.05 C 1041.23 1757.76 1045.26 1716.69 1059.76 1680.9 C 1065.97 1665.56 1073.46 1656.25 1087.93 1647.99 z"/>
<path transform="translate(0,0)" fill="rgb(131,115,181)" d="M 1090.88 1831.88 C 1090.87 1792.73 1103.75 1747.11 1130.22 1717.69 C 1153.92 1691.36 1188 1676.44 1223.1 1673.98 C 1234.34 1673.19 1245.58 1675.29 1256.38 1674.38 C 1261.09 1676.32 1266.77 1678.51 1271.33 1680.61 C 1274.31 1679.86 1273.79 1679.74 1276.34 1677.5 C 1293.2 1685.16 1311.76 1698.67 1325.21 1711.22 C 1322.97 1713.17 1322.97 1712.99 1321.2 1715.28 C 1316.49 1710.87 1312.25 1708.24 1306.89 1704.67 C 1267.27 1688.77 1237.84 1685.34 1197.27 1702.22 C 1136.9 1727.33 1121.5 1780.01 1115.04 1839.63 C 1107.44 1836.73 1098.22 1835.27 1090.88 1831.88 z"/>
<path transform="translate(0,0)" fill="rgb(90,67,119)" d="M 1276.34 1677.5 C 1293.2 1685.16 1311.76 1698.67 1325.21 1711.22 C 1322.97 1713.17 1322.97 1712.99 1321.2 1715.28 C 1316.49 1710.87 1312.25 1708.24 1306.89 1704.67 C 1303.74 1698.37 1278.96 1685.35 1271.33 1680.61 C 1274.31 1679.86 1273.79 1679.74 1276.34 1677.5 z"/>
<path transform="translate(0,0)" fill="rgb(121,192,207)" d="M 1565.3 630.99 C 1589.15 610.04 1599.65 567.298 1621.99 543.968 C 1632.69 532.786 1649.52 532.162 1659.42 544.334 C 1677.33 566.361 1651.79 598.482 1643.98 619.983 L 1645.04 618.815 C 1660.64 601.322 1676.07 568.171 1700.57 564.647 C 1714.41 562.657 1729.04 578.631 1728.77 591.936 C 1728.95 612.791 1712.32 626.488 1700.94 641.958 C 1695.22 649.703 1692.12 655.025 1687.7 663.349 C 1688.04 663.093 1688.39 662.837 1688.74 662.581 C 1707.12 647.819 1733.32 608.917 1757.52 638.504 C 1766.17 649.085 1759.6 666.382 1752.31 675.634 C 1741.02 689.959 1727.01 701.414 1715.06 715.114 C 1692.08 744.313 1673.82 777.358 1643.95 800.647 C 1633.44 808.843 1620.66 814.728 1610.55 823.506 C 1592.11 839.81 1575.34 858.146 1557.61 875.129 C 1537.49 894.688 1515.27 911.962 1491.35 926.637 C 1454.55 949.348 1398.93 970.961 1356.34 979.502 L 1347.07 981.71 L 1345.97 981.825 C 1345.25 980.034 1345.11 978.636 1344.72 976.695 C 1346.31 963.172 1346.98 948.065 1348.33 934.226 C 1350.34 914.979 1352.95 895.8 1356.18 876.718 L 1357.2 870.224 C 1404.19 850.351 1447.36 830.42 1480.15 789.231 C 1497.37 767.599 1511.45 748.881 1511.69 720.129 C 1511.93 690.259 1492.06 606.652 1528.36 592.069 C 1534.28 589.637 1540.94 589.705 1546.81 592.257 C 1562.88 599.174 1563.84 616.09 1565.3 630.99 z"/>
<path transform="translate(0,0)" fill="rgb(36,94,111)" d="M 1565.3 630.99 C 1589.15 610.04 1599.65 567.298 1621.99 543.968 C 1632.69 532.786 1649.52 532.162 1659.42 544.334 C 1677.33 566.361 1651.79 598.482 1643.98 619.983 L 1645.04 618.815 C 1660.64 601.322 1676.07 568.171 1700.57 564.647 C 1714.41 562.657 1729.04 578.631 1728.77 591.936 C 1728.95 612.791 1712.32 626.488 1700.94 641.958 C 1695.22 649.703 1692.12 655.025 1687.7 663.349 C 1688.04 663.093 1688.39 662.837 1688.74 662.581 C 1707.12 647.819 1733.32 608.917 1757.52 638.504 C 1766.17 649.085 1759.6 666.382 1752.31 675.634 C 1741.02 689.959 1727.01 701.414 1715.06 715.114 C 1692.08 744.313 1673.82 777.358 1643.95 800.647 C 1633.44 808.843 1620.66 814.728 1610.55 823.506 C 1592.11 839.81 1575.34 858.146 1557.61 875.129 C 1537.49 894.688 1515.27 911.962 1491.35 926.637 C 1454.55 949.348 1398.93 970.961 1356.34 979.502 L 1347.07 981.71 L 1345.97 981.825 C 1345.25 980.034 1345.11 978.636 1344.72 976.695 C 1357.62 972.829 1371.33 969.824 1384.5 966.048 C 1408.67 959.295 1432.2 950.438 1454.82 939.579 C 1490.45 922.803 1523.1 900.305 1551.46 872.978 C 1580.13 845.44 1598.58 822.045 1633.12 801.526 C 1665.56 782.26 1689.96 734.742 1714.66 706.718 C 1727.09 692.611 1780.87 652.055 1742.46 634.806 C 1734.36 631.35 1721.37 639.723 1715.19 645.68 C 1703.83 656.633 1695.84 664.918 1681.61 673.034 C 1682.78 675.123 1683.92 677.228 1685.04 679.347 C 1686.74 682.603 1687.88 684.486 1686.75 688.124 L 1685.01 688.988 C 1677.24 680.958 1670.68 664.564 1660.56 656.085 C 1653.07 649.816 1649.48 646.734 1641.35 641.295 C 1635.07 637.096 1618.25 630.294 1615.47 627.21 L 1615.95 625.518 L 1617.98 624.57 C 1623.54 625.291 1628.97 628.021 1634.23 630.238 C 1639.45 613.316 1667.88 564.272 1657.37 551.566 C 1620.04 506.438 1594.96 626.437 1567.18 636.084 C 1566.81 636.296 1566.43 636.508 1566.05 636.72 C 1566.76 642.531 1567.52 648.335 1568.35 654.13 C 1591.39 664.199 1602.93 678.382 1602.31 704.514 C 1602.23 707.686 1602.14 708.202 1600.03 710.271 L 1597.73 709.823 C 1595.32 703.42 1597.87 694.539 1593.47 684.777 C 1586.19 668.662 1577.34 664.003 1562.28 657.552 C 1561.09 644.209 1559.64 601.835 1546.16 598.569 C 1492.68 585.605 1518.27 694.105 1517.48 721.642 C 1517.23 732.998 1514.66 744.182 1509.95 754.515 C 1482.18 816.403 1417.04 853.925 1356.18 876.718 L 1357.2 870.224 C 1404.19 850.351 1447.36 830.42 1480.15 789.231 C 1497.37 767.599 1511.45 748.881 1511.69 720.129 C 1511.93 690.259 1492.06 606.652 1528.36 592.069 C 1534.28 589.637 1540.94 589.705 1546.81 592.257 C 1562.88 599.174 1563.84 616.09 1565.3 630.99 z"/>
<path transform="translate(0,0)" fill="rgb(121,192,207)" d="M 1697.43 571.033 C 1707.03 570.297 1716.43 573.488 1720.5 582.956 C 1730.14 605.383 1704.67 625.93 1693.34 642.538 C 1686.37 652.744 1683.11 658.219 1678.75 669.77 L 1672.8 661.67 C 1662.35 648.403 1653.11 641.89 1639.2 632.449 C 1646.27 625.653 1651.45 619.88 1657.66 612.341 C 1670.92 596.253 1677.45 579.596 1697.43 571.033 z"/>
<path transform="translate(0,0)" fill="rgb(121,192,207)" d="M 706.612 1466.13 C 708.164 1477.97 711.252 1491.57 703.288 1501.5 C 687.93 1520.65 660.976 1508.92 645.738 1496.9 C 607.475 1466.73 593.518 1413.69 588.214 1367.41 C 581.847 1311.87 596.494 1255.11 607.431 1201.12 C 622.422 1126.21 639.84 1052.69 674.28 983.844 C 681.112 970.186 690.792 952.494 700.28 940.823 L 701.354 949.302 C 703.313 973.058 703.923 996.906 703.181 1020.73 C 701.605 1064.44 696.039 1085.85 704.945 1129.66 C 686.617 1139.25 699.316 1157.94 705.434 1172.71 C 706.82 1175.62 707.922 1177.59 708.64 1180.77 C 707.41 1187.38 706.22 1194.64 704.484 1201.08 C 698.47 1228.69 694.574 1247.78 704.282 1274.97 C 705.12 1277.24 705.889 1279.4 706.835 1281.63 C 713.049 1297.54 712.054 1311.22 716.689 1323.95 C 725.342 1346.01 746.245 1366.08 746.947 1390.77 C 747.362 1405.38 732.849 1418.47 717.924 1416.84 C 699.416 1414.83 694.917 1404.98 684.232 1392.74 L 682.606 1392.75 C 668.986 1421.45 730.507 1419.51 706.612 1466.13 z"/>
<path transform="translate(0,0)" fill="rgb(36,94,111)" d="M 706.612 1466.13 C 708.164 1477.97 711.252 1491.57 703.288 1501.5 C 687.93 1520.65 660.976 1508.92 645.738 1496.9 C 607.475 1466.73 593.518 1413.69 588.214 1367.41 C 581.847 1311.87 596.494 1255.11 607.431 1201.12 C 622.422 1126.21 639.84 1052.69 674.28 983.844 C 681.112 970.186 690.792 952.494 700.28 940.823 L 701.354 949.302 C 652.763 1020.64 628.514 1124.6 612.067 1208.18 C 604.518 1246.55 595.436 1282.93 593.315 1322.26 C 591.922 1345.73 593.464 1369.29 597.906 1392.38 C 605.277 1430.95 620.074 1472.99 654.356 1495.84 C 668.345 1505.17 689.026 1513.42 700.35 1494.81 C 701.116 1493.56 701.179 1493.01 701.19 1491.56 C 696.623 1491.2 688.937 1496.22 685.472 1496.04 C 648.349 1494.16 624.657 1451.35 616.214 1419.43 C 614.706 1413.72 611.092 1408.12 615.524 1403.1 C 617.79 1404.16 618.753 1407.32 619.463 1409.72 C 628.398 1440 638.839 1469.87 668.697 1485.43 C 687.408 1495.19 709.917 1487.9 698.448 1464.01 C 686.466 1440.72 657.041 1423.58 665.633 1392.9 C 667.132 1387.09 670.385 1382.89 674.777 1378.91 C 671.322 1374.93 666.049 1369.69 667.055 1363.98 C 685.726 1369.49 697.362 1426.46 730.818 1407.39 C 735.188 1404.9 738.778 1401.65 739.921 1396.53 C 745.155 1373.1 719.887 1349.36 712.163 1328.83 C 708.77 1319.81 707.272 1304.96 704.744 1294.98 C 701.976 1284.04 693.765 1264.24 692.868 1254.34 C 691.112 1234.94 696.715 1210.81 700.849 1191.76 C 702.161 1184.77 703.515 1179.58 705.434 1172.71 C 706.82 1175.62 707.922 1177.59 708.64 1180.77 C 707.41 1187.38 706.22 1194.64 704.484 1201.08 C 698.47 1228.69 694.574 1247.78 704.282 1274.97 C 705.12 1277.24 705.889 1279.4 706.835 1281.63 C 713.049 1297.54 712.054 1311.22 716.689 1323.95 C 725.342 1346.01 746.245 1366.08 746.947 1390.77 C 747.362 1405.38 732.849 1418.47 717.924 1416.84 C 699.416 1414.83 694.917 1404.98 684.232 1392.74 L 682.606 1392.75 C 668.986 1421.45 730.507 1419.51 706.612 1466.13 z"/>
<path transform="translate(0,0)" fill="rgb(86,159,173)" d="M 676.419 1384.62 L 677.523 1385.82 C 675.31 1404.47 674.856 1413.46 691.661 1424.97 C 706.158 1434.9 709.821 1442.81 703.443 1459.43 C 690.426 1439.09 655.126 1411.96 676.419 1384.62 z"/>
</svg>