<svg width="1024" height="1024" viewBox="0 0 1024 1024" fill="none" xmlns="http://www.w3.org/2000/svg">
<path d="M673.535 490.855L678.17 489.751C678.955 498.914 678.86 508.13 677.89 517.275C684.985 517.575 694.955 518.015 699.795 523.85C709.455 535.485 709.56 568.93 708.725 583.745C707.96 597.235 705.455 628.91 695.92 637.78C688.685 644.515 675.07 643.675 665.915 642.85C660.295 656.015 650.96 663.57 636.455 665.13L636.785 662.385C639.87 643.48 649.53 622.89 654.15 602.515C659.345 605.325 660.225 604.77 664.17 600.675C667.915 592.99 677.005 577.81 675.87 568.97C675.63 567.14 673.075 565.7 671.525 564.855C673.66 555.88 674.035 551.705 674.165 543.05C674.285 535.325 670.96 495.545 672.985 490.913L673.535 490.855Z" fill="#E9C967"/>
<path d="M664.17 600.675C665.34 610.755 662.91 629.42 664.19 638.935C665.15 639.585 664.71 639.41 665.425 639.62L664.29 639.885C662.43 642.995 661.105 647.625 658.24 651.05C653.885 656.25 645.285 660.32 638.98 661.89C638.255 662.075 637.52 662.24 636.785 662.385C639.87 643.48 649.53 622.89 654.15 602.515C659.345 605.325 660.225 604.77 664.17 600.675Z" fill="#CFA949"/>
<path d="M672.5 490.894V489C672.5 489 674.5 489 675.5 489C676.5 489 678.17 489.751 678.17 489.751C678.955 498.914 678.86 508.13 677.89 517.275C684.985 517.575 694.955 518.015 699.795 523.85C709.455 535.485 709.56 568.93 708.725 583.745C707.96 597.235 705.455 628.91 695.92 637.78C688.685 644.515 675.07 643.675 665.915 642.85C660.295 656.015 650.96 663.57 636.455 665.13L636.785 662.385C637.52 662.24 638.255 662.075 638.98 661.89C645.285 660.32 653.885 656.25 658.24 651.05C661.105 647.625 662.43 642.995 664.29 639.885L665.425 639.62C672.725 641.32 688.935 641.135 694 635.485C701.91 626.665 704.155 604.91 705.255 592.645C707.055 572.655 707.94 544.575 698.16 526.49C694.34 520.55 681.65 520.18 674.78 519.79C675.26 514.815 677.22 494.211 674.95 490.894H672.5Z" fill="#9D7429"/>
<path d="M671.693 470C697.578 506.408 709.993 558.182 718.738 601.332C724.828 631.212 732.598 661.833 727.068 692.428C723.408 713.448 716.248 736.703 697.998 749.603C692.223 753.683 684.293 757.553 677.153 755.103C667.198 751.688 667.143 742.233 669.143 733.638L669.323 732.888C656.038 711.968 685.658 712.693 681.123 696.138L680.458 695.908C679.073 697.378 678.183 699.017 676.983 700.777C669.178 712.247 649.333 710.887 649.003 695.087C648.798 685.117 658.733 673.978 662.698 665.113C665.728 658.608 666.223 649.888 668.373 642.538L669.358 639.658C675.648 621.753 672.073 608.317 667.628 590.207C668.253 587.822 668.368 587.678 669.688 585.548C666 577.5 662 574 660.5 564.5C665.84 533.46 667.118 503.842 671.193 475.174L671.693 470Z" fill="#7ABECD"/>
<path d="M671.693 470C697.578 506.408 709.993 558.182 718.738 601.332C724.828 631.212 732.598 661.833 727.068 692.428C723.408 713.448 716.248 736.703 697.998 749.603C692.223 753.683 684.293 757.553 677.153 755.103C667.198 751.688 667.143 742.233 669.143 733.638L669.323 732.888C656.038 711.968 685.658 712.693 681.123 696.138L680.458 695.908C679.073 697.378 678.183 699.017 676.983 700.777C669.178 712.247 649.333 710.887 649.003 695.087C648.798 685.117 658.733 673.978 662.698 665.113C665.728 658.608 666.223 649.888 668.373 642.538L669.358 639.658C675.648 621.753 672.073 608.317 667.628 590.207C668.253 587.822 668.368 587.678 669.688 585.548C671.708 596.793 677.508 614.222 676.113 625.202C674.698 636.347 668.338 651.767 666.508 663.842C665.263 672.052 642.688 694.313 656.208 703.483C668.408 711.758 677.363 695.623 682.668 687.508C683.628 686.033 686.713 682.537 688.653 682.267C689.263 684.747 687.348 686.568 685.893 688.413C699.823 712.888 676.503 717.673 672.358 735.123C671.803 737.448 671.668 740.413 673.183 742.428C674.248 743.838 675.818 744.553 677.518 744.863C681.858 745.663 686.328 744.088 689.993 741.853C708.653 730.473 710.723 704.438 714.633 701.793L715.553 702.353C716.148 708.288 709.398 724.103 705.963 729.498C701.098 737.143 692.478 746.273 683.078 747.863C677.753 748.763 674.703 746.863 670.598 744.058C670.883 744.593 671.233 745.208 671.498 745.748C677.983 759.093 690.533 751.943 699.198 744.918C716.508 730.883 722.733 704.878 725.303 683.673C728.578 656.618 721.118 628.742 715.888 602.337C708.508 565.282 699.628 528.068 682.608 494.067C679.413 487.677 675.693 480.714 671.193 475.174L671.693 470Z" fill="#246070"/>
<path d="M683.973 691.323C685.623 692.478 686.243 694.473 686.623 696.418C689.788 712.418 677.923 718.318 670.918 729.658C669.458 729.058 669.183 725.913 669.063 724.493C668.263 714.723 679.913 712.588 683.303 704.988C685.208 700.723 683.273 695.808 683.973 691.323Z" fill="#569DA9"/>
<path d="M435.19 130.208C446.247 123.825 457.537 119.599 468.48 112.578C475.219 108.184 481.817 103.578 488.266 98.7675C497.036 92.2025 530.725 63.1595 539.635 84.9695C542.58 92.1795 537.87 104.997 534.39 111.948C571.17 106.746 597.73 125.363 629.785 138.439C640.415 142.468 653.015 143.793 663.25 148.742C686.375 159.923 677.65 177.788 657.33 185.293C658.575 186.341 659.8 187.415 661.005 188.512C672.745 199.35 677.13 210.177 686.615 222.201C691.245 227.954 699.23 232.817 703.105 239.053C714 256.588 696.99 261.236 683.86 261.629C685.025 274.199 685.41 280.443 682.585 292.639C708.52 297.378 726.515 312.201 721.8 340.326C717.04 368.682 685.925 372.674 663.565 378.549C662.61 383.38 660.995 393.143 659.705 397.444C651.5 412 653.325 415.028 649.878 426.5C648.709 430.392 647 432.638 647 436.5L644.5 440C644.5 449.541 641.26 457.714 641.26 467.338C641.26 474.257 641.26 481.811 641.26 488.572C641.26 489.543 641.26 490.242 641.26 491.137V491.08V489.976C641.26 499.138 641.26 508.355 641.26 517.5C641.26 517.8 639 507 639 522C641.26 543.5 648.797 571.08 649.878 585.895C650.869 599.385 624.108 636.13 636.455 645C645.61 645.825 624.995 658.57 636.455 645C630.835 658.165 640.005 661.44 625.5 663C623.59 679.465 635.97 697.09 636.965 713.51C637.1 715.7 636.46 719.145 635.485 721.145C631.685 723.895 614.94 727.66 610.065 728.16L607.12 728.78C602.5 729.5 598.5 730 594 731.5C579 733.5 583.5 733 562 736.5C558 736.5 556 737.5 552.5 737.5L546.95 738.245C543.065 738.735 534.575 740.025 531.18 739.255C518.075 736.29 528.56 702.74 513.215 701.485C496.344 700.105 504.61 730.695 496.135 738.38C492.972 741.25 481.505 738.905 477.424 738.38L474.599 738.015C460.888 736.575 429.76 731.975 416.939 728.645L414.365 728.23C408.781 727.635 394.564 724.6 389.547 721.65C387.557 720.735 387.166 717.525 387.243 715.42C387.958 696.005 390.308 678.45 386.711 659.015C376.475 655.5 373.128 649.6 368.678 640.61C362.596 641.395 359.544 641.315 353.418 640.815C352.945 639.7 352.56 638.62 352.141 637.485C347.287 623.89 349.235 614.345 352.242 600.54C353.11 597.32 353.705 593.69 354.32 590.385C353.961 588.795 353.41 587.81 352.717 586.355C349.658 578.97 343.309 569.625 352.472 564.83C348.019 542.925 350.803 532.22 351.591 510.365C351.962 498.453 351.656 486.529 350.677 474.651L350.14 470.411C350.921 457.874 343.454 437.656 345.845 424.922C347.447 416.395 357.324 402.119 364.5 397.383C363.377 394.422 361.718 384.735 361.054 381.238C350.878 379.496 343.313 378.34 333.191 374.874C304.435 365.027 289.567 332.066 312.817 308.388C317.446 303.674 322.32 301.442 328.487 298.801C326.664 286.605 334.153 283.995 336.53 274.239C338.699 265.338 336.344 254.714 338.599 244.648C340.877 231.687 348.809 219.902 353.218 207.93C361.051 186.656 366.886 163.881 388.49 152.18C392.831 149.828 397.438 148.049 402.059 146.038C407.138 134.469 406.886 121.09 413.353 110.077C416.144 105.324 422.912 102.418 427.51 105.993C433.331 110.52 434.175 123.347 435.19 130.208Z" fill="#79C0CF"/>
<path d="M435.19 130.208C446.247 123.825 457.537 119.599 468.48 112.578C475.219 108.184 481.817 103.578 488.266 98.7675C497.036 92.2025 530.725 63.1595 539.635 84.9695C542.58 92.1795 537.87 104.997 534.39 111.948C571.17 106.746 597.73 125.363 629.785 138.439C640.415 142.468 653.015 143.793 663.25 148.742C686.375 159.923 677.65 177.788 657.33 185.293C658.575 186.341 659.8 187.415 661.005 188.512C672.745 199.35 677.13 210.176 686.615 222.201C691.245 227.954 699.23 232.817 703.105 239.053C714 256.589 696.99 261.236 683.86 261.629C685.025 274.199 685.41 280.443 682.585 292.639L679.715 292.503C675.99 292.032 673.57 292.271 669.865 292.543L668.775 295.539C667.6 297.425 666.22 299.783 664.96 301.562L664.05 299.25C663.08 296.059 661.8 292.195 661.295 288.947L658.135 285.994C657.21 281.937 655.31 278.332 654.495 274.251C647.465 273.494 636.86 267.233 631.68 262.509C628.515 263.144 625.915 263.513 622.71 263.927C622.15 259.723 619.055 256.684 619 255.339C616.735 254.521 616.385 254.365 614.035 254.106L612.025 252.723C607.635 250.61 602.985 247.158 599.12 244.236C598.025 242.721 597.385 242.327 595.945 241.184C590.63 239.507 585.18 238.293 579.65 237.559C578.965 236.915 579.26 237.136 578.655 236.72C572.13 232.243 565.935 227.094 559.8 222.101C558.91 231.791 558.195 235.042 554.285 243.799C554.665 244.798 555.065 245.536 554.355 246.69C551.61 251.159 547.195 255.379 541.965 256.479C520.835 260.926 504.78 242.788 490.251 230.632C484.592 225.897 480.976 223.394 474.996 219.708C471.795 228.615 468.713 234.325 461.123 240.07C451.133 235.984 443.14 237.169 432.96 239.557C429.687 240.438 427.29 241.181 424.099 242.319C422.081 243.458 408.074 251.865 407.627 251.946C406.976 252.75 405.289 254.736 404.853 255.515C402.263 260.423 400.563 262.326 403.138 267.664C394.893 274.342 387.342 273.762 377.411 273.441C375.901 282.133 375.075 290.574 374.506 299.382C373.962 307.808 370.924 318.063 360.461 315.952L359.996 315.853L357.603 314.747C356.1 313.477 354.356 311.779 352.877 310.42C349.558 306.049 347.846 303.161 345.865 298.094L344.994 295.967C339.596 296.063 337.104 296.379 331.855 297.852L328.487 298.801C326.664 286.605 334.153 283.995 336.53 274.239C338.699 265.338 336.344 254.714 338.599 244.648C340.877 231.687 348.809 219.902 353.218 207.93C361.051 186.656 366.886 163.881 388.49 152.18C392.831 149.828 397.438 148.049 402.059 146.038C407.138 134.469 406.886 121.09 413.353 110.077C416.144 105.324 422.912 102.418 427.51 105.993C433.331 110.52 434.175 123.347 435.19 130.208Z" fill="#E48541"/>
<path d="M532.62 154.089L533.605 152.808C539.265 152.301 548.89 170.415 552.05 174.203C556.165 175.674 562.575 180.107 566.08 182.781C573.945 188.684 580.945 195.654 586.885 203.49C590.675 208.44 594.265 213.54 597.645 218.78C604.375 229.269 613.815 247.43 625.73 251.227C624.265 252.001 624.19 252.104 622.52 252.496L619.375 252.252C615.595 254.13 615.855 253.088 612.025 252.723C607.635 250.61 602.985 247.158 599.12 244.236C598.025 242.721 597.385 242.327 595.945 241.184C590.63 239.506 585.18 238.293 579.65 237.558C578.965 236.915 579.26 237.136 578.655 236.72C572.13 232.243 565.935 227.094 559.8 222.101C558.91 231.791 558.195 235.042 554.285 243.799C554.665 244.798 555.065 245.535 554.355 246.69C551.61 251.158 547.195 255.379 541.965 256.479C520.835 260.926 504.78 242.788 490.251 230.632C484.592 225.897 480.976 223.394 474.996 219.708C471.795 228.615 468.713 234.324 461.123 240.069C451.133 235.984 443.141 237.169 432.96 239.557C429.688 240.438 427.29 241.181 424.099 242.319C422.081 243.457 408.074 251.865 407.627 251.946C406.976 252.75 405.29 254.735 404.853 255.515C402.264 260.422 400.563 262.326 403.138 267.663C394.893 274.342 387.342 273.762 377.411 273.441C375.901 282.133 375.075 290.574 374.506 299.382C373.962 307.808 370.924 318.063 360.461 315.951L359.996 315.853L357.603 314.747C356.1 313.476 354.356 311.779 352.877 310.42C349.558 306.048 347.846 303.16 345.865 298.093L344.994 295.967C339.596 296.063 337.104 296.379 331.855 297.851L331.244 297.315C330.48 294.006 331.488 291.478 333.03 288.573C337.341 280.448 340.202 274.579 340.486 265.273C356.648 283.862 360.813 249.504 364.019 239.408C362.966 234.044 360.665 223.069 361.621 217.958C362.722 216.823 362.076 217.044 363.493 216.997C364.431 218.287 364.386 224.593 364.677 227.091C366.002 238.493 371.123 254.291 381.876 260.125C400.638 250.985 405.237 222.255 408.28 203.625C409.02 199.097 410.048 193.348 410.052 188.888C409.704 185.121 408.504 182.769 411.513 180.369C413.036 184.445 412.47 188.979 413.508 193.15C418.169 211.889 431.447 231.428 452.644 231.176C466.146 227.846 467.044 212.34 471.209 201.83L471.376 201.42C479.145 204.404 492.515 213.704 498.709 219.285C510.095 229.546 528.62 251.401 546.455 247.449C548.825 246.114 549.575 245.596 551.16 243.465C553.28 240.091 554.63 236.019 555.47 232.138C562.3 200.603 555.345 176.554 532.62 154.089Z" fill="#903C13"/>
<path d="M364.019 239.408C367.531 247.956 370.746 254.905 377.654 261.297L377.399 261.97C373.761 271.712 373.229 283.88 372.235 294.242C371.59 300.962 370.779 315.141 360.75 313.269C351.753 311.548 345.503 284.583 342.191 282.939C341.138 286.088 343.849 292.848 344.994 295.967C339.596 296.063 337.104 296.379 331.855 297.852L331.244 297.315C330.48 294.007 331.488 291.478 333.03 288.573C337.341 280.448 340.202 274.58 340.486 265.273C356.648 283.863 360.813 249.505 364.019 239.408Z" fill="#D56B2A"/>
<path d="M473.029 205.168C481.738 209.696 491.757 216.579 498.917 223.074C506.22 229.772 512.84 237.947 521.34 243.225C532.41 250.103 544.505 255.811 554.285 243.799C554.665 244.798 555.065 245.536 554.355 246.69C551.61 251.159 547.195 255.379 541.965 256.479C520.835 260.926 504.78 242.789 490.251 230.632C484.592 225.897 480.976 223.394 474.996 219.708C471.795 228.615 468.713 234.325 461.123 240.07C451.133 235.984 443.14 237.169 432.96 239.557C429.687 240.438 427.29 241.181 424.099 242.319C422.081 243.458 408.074 251.865 407.627 251.946C415.002 241.853 418.792 230.677 422.896 219.069C434.056 231.003 452.878 243.555 465.479 224.697C469.554 218.599 471.149 212.172 473.029 205.168Z" fill="#569FAD"/>
<path d="M424.099 242.319C424.603 239.652 425.543 237.604 426.544 235.091C429.464 236.794 430.36 237.321 432.96 239.557C429.687 240.438 427.29 241.181 424.099 242.319Z" fill="#79C0CF"/>
<path d="M552.05 174.203C556.165 175.674 562.575 180.107 566.08 182.781C573.945 188.684 580.945 195.654 586.885 203.49C590.675 208.44 594.265 213.54 597.645 218.78C604.375 229.269 613.815 247.43 625.73 251.227C624.265 252.001 624.19 252.104 622.52 252.496L619.375 252.252C605.215 248.059 596.965 237.724 586.18 228.342C577.89 221.133 570.215 214.489 560.57 209.071C560.615 195.198 557.605 186.511 552.05 174.203Z" fill="#D56B2A"/>
<path d="M410.052 188.888C412.032 201.192 414.366 205.852 420.987 216.42C416.107 230.276 411.209 244.769 400.795 255.592C395.892 260.686 388.573 264.27 381.876 260.125C400.638 250.985 405.236 222.255 408.28 203.625C409.019 199.097 410.048 193.348 410.052 188.888Z" fill="#D56B2A"/>
<path d="M560.445 212.326C573.28 219.553 585.1 231.115 595.945 241.184C590.63 239.506 585.18 238.293 579.65 237.559C578.965 236.916 579.26 237.136 578.655 236.72C572.13 232.243 565.935 227.094 559.8 222.101C559.965 219.049 560.075 215.304 560.445 212.326Z" fill="#569FAD"/>
<path d="M379.99 263.031C391.862 266.879 396.291 263.806 404.853 255.515C402.263 260.422 400.563 262.326 403.138 267.664C394.893 274.342 387.342 273.762 377.411 273.441C378.163 269.734 378.974 266.684 379.99 263.031Z" fill="#569FAD"/>
<path d="M435.19 130.208C446.247 123.825 457.537 119.599 468.48 112.578C475.219 108.184 481.817 103.578 488.266 98.7675C497.036 92.2025 530.725 63.1595 539.635 84.9695C542.58 92.1795 537.87 104.997 534.39 111.948C571.17 106.746 597.73 125.363 629.785 138.439C640.415 142.468 653.015 143.793 663.25 148.742C686.375 159.923 677.65 177.788 657.33 185.293C658.575 186.341 659.8 187.415 661.005 188.512C672.745 199.35 677.13 210.176 686.615 222.201C691.245 227.954 699.23 232.817 703.105 239.053C714 256.589 696.99 261.236 683.86 261.629C685.025 274.199 685.41 280.443 682.585 292.639L679.715 292.503C675.99 292.032 673.57 292.271 669.865 292.543L668.775 295.539C667.6 297.425 666.22 299.783 664.96 301.562L664.05 299.25C663.08 296.059 661.8 292.195 661.295 288.947L658.135 285.994C657.21 281.937 655.31 278.332 654.495 274.251C647.465 273.494 636.86 267.233 631.68 262.509C628.515 263.144 625.915 263.513 622.71 263.927C622.15 259.723 619.055 256.684 619 255.339C616.735 254.521 616.385 254.365 614.035 254.106L612.025 252.723C615.855 253.088 615.595 254.13 619.375 252.252L622.52 252.496C624.19 252.105 624.265 252.001 625.73 251.227L626.745 250.845C626.74 249.231 627.21 245.746 627.43 244.152C631.24 216.943 624.74 190.681 609.75 167.826C608.485 165.9 605.77 161.75 605.615 159.473L605.115 158.199C605.225 157.951 605.68 157.382 605.865 157.134C608.095 157.147 612.13 161.32 613.735 162.989C631.27 181.177 638.495 201.965 638.515 226.923C652.89 248.575 653.87 249.027 674.995 264.349C675.34 264.157 675.68 263.965 676.025 263.772C691.58 257.207 670.625 226.823 672.59 222.025L673.455 221.872C679.83 229.856 684.375 248.086 683.91 258.949C685.68 258.833 687.45 258.689 689.21 258.516C696.555 257.751 704.835 255.003 703.355 246.066C700.25 236.359 688.9 230.165 682.855 222.009C673.605 209.533 666.745 194.83 653.34 186.187L652.99 185.893L652.57 184.936C654.92 181.759 666.56 180.734 672.275 171.208C674.28 167.743 674.935 163.945 672.905 160.352L672.39 160.606C665.165 156.871 659.52 156.774 651.595 155.178C646.08 154.061 640.625 152.642 635.265 150.928C626.125 147.976 615.745 143.481 607.315 139.288C577.745 124.574 546.76 118.484 514.06 124.506C511.34 125.006 499.357 127.466 497.582 126.919C496.24 126.031 496.667 126.61 496.116 125.243C497.146 122.764 503.275 120.282 505.975 118.969C508.13 115.736 517.695 108.197 521.005 105.122C528.03 98.597 531.96 93.397 537.1 85.3555C535.935 83.106 535.905 82.972 534.035 81.345C531.475 82.712 525.155 82.6185 522.015 84.8335C506.83 95.548 493.92 109.133 477.884 118.777C467.92 124.801 457.847 129.311 446.393 131.753C444.445 132.192 438.208 133.919 436.724 132.762L434.929 133.58C429.367 133.112 433.547 116.278 425.767 107.991C416.315 113.894 414.161 135.737 409.905 147.079C407.941 147.935 405.612 149.275 403.627 148.51C368.515 163.606 368.875 175.765 355.549 209.611C347.015 231.286 338.731 239.752 340.486 265.273C340.202 274.58 337.341 280.448 333.03 288.573C331.488 291.478 330.48 294.007 331.244 297.315L331.855 297.852L328.487 298.801C326.664 286.605 334.153 283.995 336.53 274.239C338.699 265.338 336.344 254.714 338.599 244.648C340.877 231.687 348.809 219.902 353.218 207.93C361.051 186.656 366.886 163.881 388.49 152.18C392.831 149.828 397.438 148.049 402.059 146.038C407.138 134.469 406.886 121.09 413.353 110.077C416.144 105.324 422.912 102.418 427.51 105.993C433.331 110.52 434.175 123.347 435.19 130.208Z" fill="#903C13"/>
<path d="M497.583 126.918C517.555 114.131 545.385 111.575 568.125 116.444C588.29 120.76 606.695 132.036 625.785 139.907C638.43 145.119 666.57 148.284 672.905 160.352L672.39 160.606C665.165 156.87 659.52 156.774 651.595 155.178C646.08 154.061 640.625 152.642 635.265 150.928C626.125 147.976 615.745 143.48 607.315 139.288C577.745 124.574 546.76 118.484 514.06 124.505C511.34 125.006 499.358 127.465 497.583 126.918Z" fill="#F8A561"/>
<path d="M436.724 132.763C446.465 126.681 460.199 120.669 470.728 114.747C485.421 106.484 518.115 73.392 534.035 81.345C531.475 82.712 525.155 82.6185 522.015 84.8335C506.83 95.548 493.92 109.133 477.884 118.777C467.92 124.801 457.847 129.311 446.393 131.753C444.445 132.192 438.208 133.92 436.724 132.763Z" fill="#F8A561"/>
<path d="M605.615 159.473C629.725 176.224 644.765 221.555 629.545 248.422L626.745 250.845C626.74 249.231 627.21 245.746 627.43 244.152C631.24 216.943 624.74 190.681 609.75 167.826C608.485 165.9 605.77 161.75 605.615 159.473Z" fill="#F8A561"/>
<path d="M638.515 226.923C652.89 248.575 653.87 249.027 674.995 264.349C659.675 266.153 643.445 258.915 633.35 247.512C636.795 238.869 637.375 236.1 638.515 226.923Z" fill="#D56B2A"/>
<path d="M626.745 250.845L629.545 248.422L630.355 249.133L631.26 249.064C633.5 250.665 644.235 258.674 645.11 260.211L650.145 263.219C651.655 266.885 653.185 270.506 654.495 274.251C647.465 273.494 636.86 267.233 631.68 262.509C628.515 263.144 625.915 263.513 622.71 263.927C622.15 259.723 619.055 256.685 619 255.339C616.735 254.521 616.385 254.365 614.035 254.106L612.025 252.723C615.855 253.088 615.595 254.13 619.375 252.252L622.52 252.496C624.19 252.105 624.265 252.001 625.73 251.227L626.745 250.845Z" fill="#569FAD"/>
<path d="M626.745 250.845L629.545 248.422L630.355 249.133L631.26 249.064C633.5 250.665 644.235 258.674 645.11 260.211C640.05 257.906 635.35 254.02 631.445 250.122C630.455 251.166 629.245 252.257 628.18 253.257C624.605 255.246 623.065 255.503 619 255.339C616.735 254.521 616.385 254.365 614.035 254.106L612.025 252.723C615.855 253.088 615.595 254.13 619.375 252.252L622.52 252.496C624.19 252.105 624.265 252.001 625.73 251.227L626.745 250.845Z" fill="#853C1B"/>
<path d="M653.095 264.362C661.205 266.713 663.73 267.462 672.035 267.716L671.235 268.339C671.205 272.366 672.19 275.674 671.995 279.758C672.08 283.817 671.395 288.779 669.865 292.543L668.775 295.539C667.6 297.425 666.22 299.783 664.96 301.562L664.05 299.25C663.08 296.059 661.8 292.195 661.295 288.947C659.515 280.714 656.335 272.146 653.095 264.362Z" fill="#D56B2A"/>
<path d="M664.05 299.25C667.37 293.29 667.695 290.122 669.335 283.663C670.05 280.848 669.94 280.985 671.995 279.758C672.08 283.817 671.395 288.779 669.865 292.543L668.775 295.539C667.6 297.425 666.22 299.783 664.96 301.562L664.05 299.25Z" fill="#903C13"/>
<path d="M537.1 85.3555C538.5 95.3605 535.99 103.681 530.805 112.281C520.78 114.175 515.615 115.703 505.975 118.969C508.13 115.736 517.695 108.197 521.005 105.122C528.03 98.597 531.96 93.397 537.1 85.3555Z" fill="#D56B2A"/>
<path d="M672.035 267.716C676.42 266.9 677.55 266.334 681.21 263.759C682.085 273.726 682.66 282.679 679.715 292.503C675.99 292.032 673.57 292.271 669.865 292.543C671.395 288.779 672.08 283.817 671.995 279.758C672.19 275.674 671.205 272.366 671.235 268.339L672.035 267.716Z" fill="#E48541"/>
<path d="M403.627 148.51C410.153 139.366 410.734 101.862 425.767 107.991C416.315 113.894 414.161 135.737 409.905 147.079C407.941 147.935 405.612 149.275 403.627 148.51Z" fill="#F8A561"/>
<path d="M470.094 173.971C481.591 189.658 495.42 194.392 508.685 207.285C524.975 223.111 525.58 235.732 546.455 247.449C528.62 251.402 510.095 229.546 498.709 219.285C492.515 213.705 479.145 204.405 471.376 201.42C472.251 191.519 472.588 183.816 470.094 173.971Z" fill="#D56B2A"/>
<path d="M411.513 180.369C411.661 169.743 419.489 158.819 427.568 152.518C420.515 170.953 421.671 185.66 429.302 204.172C431.983 210.675 437.956 219.892 443.41 224.417C446.139 226.682 449.866 228.665 452.643 231.176C431.446 231.429 418.169 211.889 413.508 193.15C412.47 188.979 413.036 184.446 411.513 180.369Z" fill="#D56B2A"/>
<path d="M521.14 148.325C524.775 149.717 529.73 151.462 532.62 154.089C555.345 176.554 562.3 200.604 555.47 232.139C554.63 236.02 553.28 240.091 551.16 243.465C550.255 241.688 551.91 231.703 551.89 228.686C551.73 205.963 546.17 183.295 533.885 164.025C530.25 158.327 526.295 152.637 521.14 148.325Z" fill="#F8A561"/>
<path d="M653.34 186.187C666.745 194.83 673.605 209.533 682.855 222.009C688.9 230.166 700.25 236.36 703.355 246.067C702.96 246.604 703.23 246.365 702.46 246.678C698.495 243.945 693.17 240.21 689.395 236.572C686.92 234.192 682.02 229.799 679.52 226.515C670.29 214.379 662.5 200.016 653.405 187.666C653.385 187.173 653.36 186.68 653.34 186.187Z" fill="#F8A561"/>
<path d="M630.12 178.072C646.94 178.676 656.72 175.622 672.275 171.208C666.56 180.735 654.92 181.759 652.57 184.937L652.99 185.893C645.785 186.669 636.01 181.86 630.12 178.072Z" fill="#D56B2A"/>
<path d="M354.32 590.385C357.489 594.77 359.411 602.78 364.978 604.345C366.137 604.67 368.433 603.235 369.506 602.635C370.246 603.29 370.045 602.975 370.297 603.44C374.26 622.51 381.716 637.455 386.337 655.93L386.711 659.015C376.475 655.5 373.128 649.6 368.679 640.61C362.596 641.395 359.544 641.315 353.418 640.815C352.945 639.7 352.56 638.62 352.141 637.485C347.287 623.89 349.235 614.345 352.242 600.54C353.11 597.32 353.705 593.69 354.32 590.385Z" fill="#CFA949"/>
<path d="M370.203 637.495C375.233 647.335 376.691 650.375 386.337 655.93L386.711 659.015C376.475 655.5 373.128 649.6 368.678 640.61C362.596 641.395 359.544 641.315 353.418 640.815C352.945 639.7 352.56 638.62 352.141 637.485C359.188 638.635 363.049 638.64 370.203 637.495Z" fill="#9D7429"/>
<ellipse cx="616" cy="904" rx="68" ry="63" fill="white"/>
<ellipse cx="407" cy="905" rx="67" ry="63" fill="white"/>
<path d="M415.684 725L418.258 725.415C431.079 728.745 462.207 733.345 475.918 734.785L478.743 735.15C477.825 754.55 477.115 775.34 475.177 794.68C484.135 800.59 483.146 810.83 481.303 820.43L480.727 823.5C481.401 824.06 479.43 826.505 479.622 826.8C479.964 831.73 480.268 836.69 479.328 841.28C479.21 841.85 478.941 841.95 478.782 841.95C478.292 841.95 480.75 841.95 479.191 841.95L477.438 843.18L476.097 842.555C471.352 840.12 466.253 836.765 461.313 834.245C443.829 825.315 430.522 823.545 411.479 826.585C410.691 826.775 409.571 827.085 408.799 827.165C407.437 815.36 405.483 802.985 416.431 795.635C415.766 789.825 415.662 782.33 415.453 776.4C414.872 759.27 414.95 742.125 415.684 725Z" fill="#79C0CF"/>
<path d="M412.219 837.5C411.858 830.165 407.227 804.5 415.948 799.59C418.197 803.775 416.746 805.95 422.241 808.345C436.876 814.71 452.882 813.96 467.552 808.15C476.973 804.415 473.226 800.66 475.731 798.775C483.727 803.5 476.028 840.165 475.227 848C470.482 845.565 470.227 844 460.225 840.5C440.222 838 431.264 834.46 412.219 837.5Z" fill="white"/>
<path d="M415.754 718L418.754 718.5C418.587 724.095 417.659 738.89 417.885 744.32C417.633 758.23 417.894 772.14 418.666 786.03C418.902 790.715 419.158 798.915 419.907 803.385C433.272 813.075 458.085 811.13 471.618 802.65C473.309 784.355 474.543 766.02 475.32 747.665L476.254 725.5H479.254C478.336 744.9 477.115 775.34 475.177 794.68C484.135 800.59 483.146 810.83 481.303 820.43L481.26 823.78C481.227 827 480.864 829.5 480.727 831C480.227 836.5 480.822 830.077 480.227 836C480.025 838.017 479.727 840 479.727 840L477.727 849.5H476.727H474.727C475.227 842 482.953 803.34 475.732 798.775C473.227 800.66 476.973 804.415 467.554 808.15C452.885 813.96 436.882 814.71 422.248 808.345C416.754 805.95 418.205 803.775 415.956 799.59C406.227 806.5 412.867 837.165 413.227 844.5C412.439 844.69 411.319 845 410.548 845.08C409.186 833.275 401.227 804 416.431 795.635C415.766 789.825 415.662 782.33 415.453 776.4C414.872 759.27 415.019 735.125 415.754 718Z" fill="#245E6F"/>
<path d="M418.438 718.5C431.259 721.83 462.543 724.56 476.254 726L475.32 747.665C455.125 746.61 437.569 743.84 418.438 737.27C418.387 740.04 418.228 741.61 417.885 744.32C417.659 738.89 418.271 724.095 418.438 718.5Z" fill="#569FAD"/>
<path d="M605.975 726.62L608.92 726C609.81 751.36 608.895 771.775 608.225 796.805C619.125 804.63 616.79 816.155 615.855 828.22L613.045 827.6C595.14 824.665 580.815 826.555 564.365 834.73C558.825 837.48 553.95 840.805 548.645 843.68L546.306 844C546.306 842.5 545.578 838.768 545.306 837C544.306 830.5 543.806 829 543.806 829L543.19 824.745L542.82 821.835C543.306 819.5 540.806 803 549.34 795.675C548.645 780.5 546.485 753.715 545.805 736.085L548.28 735.665C548.695 739.415 548.7 745.93 549.18 748.695C571.025 747.345 585.655 745.19 606.3 738.365C606.37 734.565 606.13 730.445 605.975 726.62Z" fill="#79C0CF"/>
<path d="M551.015 855C548.806 847 539.806 803.5 548.975 799.845L549.635 800.37C549.88 801.78 550.13 803.91 551.015 804.995C554.91 809.775 564.6 812.04 570.41 812.98C581.475 814.775 595.995 813.97 605.45 807.3C606.96 806.235 607.625 804.515 607.725 802.775C607.795 801.495 607.755 801.655 608.355 800.635C616.806 803 612.121 845.62 611.806 852C593.901 849.065 595.806 852 577.806 855C570.41 855 557.306 854 551.015 855Z" fill="white"/>
<path d="M547.806 728C552.301 727.89 562.536 726.74 567.306 726C579.001 724.175 594.306 721.5 605.806 719C605.961 722.825 606.37 734.565 606.3 738.365C585.655 745.19 571.025 747.345 549.18 748.695C548.7 745.93 548.221 731.75 547.806 728Z" fill="#569FAD"/>
<path d="M605.806 719H608.806C609.696 744.36 608.895 771.775 608.225 796.805C623 807 614.5 827 614 844C612.818 843.885 611.5 844 611.5 844C611.815 837.62 615.545 803.26 608.355 800.635C607.755 801.655 607.795 801.495 607.725 802.775C607.625 804.515 606.96 806.235 605.45 807.3C595.995 813.97 581.475 814.775 570.41 812.98C564.6 812.04 554.91 809.775 551.015 804.995C550.13 803.91 549.88 801.78 549.635 800.37L548.975 799.845C541.32 803.785 551.5 855.5 551 855.5C550.5 855.5 548 855.5 548 855.5C547.5 852 545.806 839.5 545.306 837C544.606 833.5 544.306 833 543.806 829.5C543.806 829.5 543.544 828.357 543.306 826.5C543.161 825.364 542.909 823.739 542.82 821.835C542.72 819.67 538.72 803.46 549.34 795.675C547.14 778.22 545.986 745.63 545.306 728H547.806C548.221 731.75 548.7 745.93 549.18 748.695C549.845 765.655 550.875 786.605 552.845 803.415C566.74 812.325 590.935 814.175 604.74 804.35C605.88 780.46 607.05 762.485 606.3 738.365C606.37 734.565 605.806 723 605.806 719Z" fill="#245E6F"/>
<path d="M377 627C376 624 374.676 621.114 373.5 617C372.5 613.5 372.5 613 371.5 609C371 607 370.593 605.88 370.296 603.44C370 601 370.903 599.1 371.472 596.81C437.524 623.575 586.37 624.205 652.44 596.665C653.01 598.34 654.085 600.885 654.15 602.515C649.53 622.89 639.87 643.48 636.785 662.385L636.455 665.13C634.545 681.595 635.97 697.09 636.965 713.51C637.1 715.7 636.46 719.145 635.485 721.145C631.685 723.895 614.94 727.66 610.065 728.16L607.12 728.78C603.5 729.5 594 731.5 594 731.5L570 735.5C570 735.5 556.5 737.825 549.425 737.825L546.95 738.245C543.065 738.735 534.575 740.025 531.18 739.255C518.075 736.29 528.56 702.74 513.215 701.485C496.344 700.105 504.61 730.695 496.135 738.38C492.972 741.25 481.504 738.905 477.424 738.38L474.598 738.015C460.888 736.575 429.76 731.975 416.939 728.645L414.365 728.23C408.781 727.635 394.564 724.6 389.547 721.65C387.557 720.735 387.487 721.84 387.243 715.42C387 709 388.922 669.03 386.711 659.015C384.5 649 383 644.5 383 644.5C383 644.5 382.043 642.077 381.5 640.5C381.299 639.916 381.195 639.586 381 639C380.414 637.243 380.159 636.231 379.5 634.5C378.351 631.479 378.031 630.094 377 627Z" fill="#903C13"/>
<path d="M512.47 619.605C557.775 619.41 609.4 615.895 651.95 599.635C650.38 605.955 648.43 614.195 646.365 620.315C639.405 640.925 633.585 654.085 632.815 676.545C632.565 683.935 632.71 691.33 633.25 698.7C633.59 704.095 634.89 711.175 633.975 716.45C633.69 718.085 633.14 718.78 631.705 719.6C623.155 724.495 540.435 738.625 531.865 736.19C530.25 735.73 529.115 734.775 528.345 733.275C526.045 728.795 526.05 718.34 524.855 712.855C523.94 708.335 523.455 705.95 520.98 701.88C534.445 700.77 541.565 698.535 553.855 693.575L554.36 693.015L553.75 691.695C550.76 690.915 545.385 694.235 542.245 695.21C533.03 698.065 522.03 700.005 512.41 698.61L512.47 619.605Z" fill="#E48541"/>
<path d="M520.98 701.88C534.445 700.77 541.565 698.535 553.855 693.575C549.5 701.41 533.33 710.615 524.855 712.855C523.94 708.335 523.455 705.95 520.98 701.88Z" fill="#D56B2A"/>
<path d="M516.495 680.055C517.22 680.23 517.67 680.435 518.365 680.705C519.71 683.35 518.985 686.81 518.665 689.805C517.13 689.89 517.755 690.135 516.68 689.195C515.98 686.3 516.355 683.09 516.495 680.055Z" fill="#903C13"/>
<path d="M516.86 620.65C518.08 621.125 517.655 620.89 518.635 621.805C519.475 625.215 519.07 627.385 518.67 630.9C517.205 630.51 517.775 630.92 516.76 629.915C515.995 626.555 516.395 624.055 516.86 620.65Z" fill="#903C13"/>
<path d="M516.78 665.105C518.285 665.61 517.675 665.195 518.7 666.355C519.435 669.665 519.1 672.07 518.525 675.405C517.32 674.98 517.725 675.21 516.795 674.33C516.035 670.97 516.465 668.515 516.78 665.105Z" fill="#903C13"/>
<path d="M516.54 635.59L518.025 635.985C519.78 638.12 518.99 642.54 518.805 645.475C517.175 645.395 517.79 645.745 516.775 644.68C516.115 641.805 516.435 638.59 516.54 635.59Z" fill="#903C13"/>
<path d="M516.935 650.2C518.08 650.535 517.99 650.57 518.73 651.535C519.355 654.545 519.175 657.585 518.365 660.54C517.255 660.325 517.79 660.505 516.835 659.655C516.145 656.575 516.345 653.28 516.935 650.2Z" fill="#903C13"/>
<path d="M372.011 599.715C409.649 614.53 469.58 619.47 510.06 619.575C510.465 645.39 510.32 672.915 510.105 698.805C501.725 700.32 489.748 697.695 481.541 695.15C478.542 694.22 475.313 691.905 471.5 691.585C470.463 692.315 470.836 691.83 470.58 693.22L471.51 694.095C485.562 699.295 488.15 700.325 502.955 702.09C501.055 706.385 500.27 708.76 499.301 713.405C498.531 718.085 497.925 730.045 496.065 733.675C495.425 734.925 494.268 735.74 492.956 736.15C483.695 739.075 400.415 723.955 392.24 719.59C391.01 718.935 390.616 718.52 390.351 717.125C389.188 710.965 390.713 703.12 391.085 696.85C391.511 690.18 391.629 683.49 391.439 676.81C390.828 655.15 385.047 640.86 378.039 621.045C375.849 614.85 373.688 606.12 372.011 599.715Z" fill="#E48541"/>
<path d="M471.51 694.095C485.562 699.295 488.15 700.325 502.955 702.09C501.055 706.385 500.27 708.76 499.301 713.405C497.149 710.52 478.744 706.49 471.51 694.095Z" fill="#D56B2A"/>
<path d="M372.858 575.205C373.138 573.15 372.66 573.88 373.982 572.735L379.19 574.595C448.609 596.24 575.75 597.72 645.51 574.69L650.64 572.725C650.975 573.51 651.455 574.45 651.6 575.255C655.835 586.33 652.555 586.755 652.44 596.665C586.37 624.205 437.525 623.575 371.473 596.81C371.413 591.065 368.751 579.77 372.858 575.205Z" fill="#E48541"/>
<path d="M372.858 575.205C373.138 573.15 372.66 573.88 373.982 572.735L379.19 574.595C448.609 596.24 575.75 597.72 645.51 574.69L650.64 572.725C650.975 573.51 651.455 574.45 651.6 575.255C639.35 579.97 626.54 583.64 613.64 586.05C551.215 597.715 430.907 598.02 372.858 575.205Z" fill="#903C13"/>
<path d="M659.705 397.444C667.225 402.203 676.285 415.739 678.19 424.553C679.01 428.35 678.92 431.25 678.6 435.112L678.09 438.359C676.475 447.9 675.17 457.49 674.165 467.113C673.49 474.033 673.155 481.586 672.36 488.348C672.555 489.318 672.625 490.017 672.985 490.913C670.96 495.545 674.285 535.325 674.165 543.05C674.035 551.705 673.66 555.88 671.525 564.855C673.075 565.7 675.63 567.14 675.87 568.97C677.005 577.81 667.915 592.99 664.17 600.675C660.225 604.77 659.345 605.325 654.15 602.515C654.085 600.885 653.01 598.34 652.44 596.665C652.555 586.755 655.835 586.33 651.6 575.255C651.455 574.45 650.975 573.51 650.64 572.725C643.03 537.095 640.17 504.38 642.64 467.755C643.45 455.745 646.195 444.595 647.155 433.387C649.91 425.033 652.44 415.58 654.88 407.066C656.625 403.962 657.365 400.222 659.705 397.444Z" fill="#9D7429"/>
<path d="M660.225 401.736C666.02 405.175 675.715 421.217 675.925 428.384C676.09 433.962 674.825 441.168 673.955 446.776C670.94 465.29 669.48 484.024 669.585 502.78C669.96 527.68 673.57 540.61 668.705 565.78C663.495 569.38 662.32 570.205 658.605 575.425L656.24 580.04C651.01 564.98 648.735 549.6 646.96 533.86C641.705 487.29 644.08 445.798 660.225 401.736Z" fill="#E9C967"/>
<path d="M669.75 568.365C670.67 568.35 671.13 568.47 672.045 568.605C672.79 569.39 673.585 570.15 673.43 571.44C672.635 578.005 663.115 597.795 659.075 601.825C654.965 599.575 654.615 595.38 655.47 591.1C657.285 581.995 661.895 573.585 669.75 568.365Z" fill="#E9C967"/>
<path d="M350.14 470.411C350.921 457.875 343.454 437.656 345.845 424.922C347.447 416.395 357.324 402.119 364.5 397.383C366.776 400.781 367.489 404.707 369.118 407.056C371.674 415.473 374.123 423.921 376.467 432.399C376.665 439.907 379.576 449.789 380.403 457.543C383.497 486.555 382.655 515.535 378.828 544.425C378.418 547.52 373.724 571.88 373.982 572.735C372.66 573.88 373.138 573.15 372.858 575.205C368.75 579.77 371.413 591.065 371.472 596.81C370.903 599.1 370.239 601.095 370.297 603.44C370.045 602.975 370.246 603.29 369.506 602.635C368.433 603.235 366.136 604.67 364.978 604.345C359.41 602.78 357.489 594.77 354.32 590.385C353.961 588.795 353.41 587.81 352.717 586.355C349.658 578.97 343.309 569.625 352.472 564.83C348.019 542.925 350.803 532.22 351.591 510.365C351.962 498.453 351.656 486.529 350.677 474.651L350.14 470.411Z" fill="#9D7429"/>
<path d="M363.277 401.887C364.835 403.437 366.865 409.926 367.63 412.335C374.353 433.573 378.261 455.603 379.254 477.858C380.509 504.515 378.305 531.33 373.691 557.59C373.14 560.725 369.633 576.945 368.175 578.55C366.727 578.12 366.747 577.455 365.651 575.81C362.061 570.73 360.782 569.635 355.785 565.835C350.296 546.46 354.818 515.49 354.455 493.361C354.227 481.032 353.282 468.728 351.626 456.509C350.44 447.908 348.676 438.571 348.247 429.987C347.81 421.225 357.099 407.906 363.277 401.887Z" fill="#E9C967"/>
<path d="M352.36 567.755C363.086 572.225 373.552 591.51 366.33 601.83C359.853 599.375 352.564 578.625 350.705 571.765C350.278 570.185 351.454 568.84 352.36 567.755Z" fill="#E9C967"/>
<path d="M658.135 285.994L661.295 288.947C661.8 292.195 663.08 296.059 664.05 299.25L664.96 301.562C666.22 299.783 667.6 297.425 668.775 295.539L669.865 292.543C673.57 292.271 675.99 292.032 679.715 292.503L682.585 292.639C708.52 297.378 726.515 312.201 721.8 340.326C717.04 368.682 685.925 372.674 663.565 378.549C662.61 383.38 660.995 393.143 659.705 397.444C657.365 400.222 656.625 403.962 654.88 407.066C656.455 397.286 659.345 385.712 661.155 375.699C667.225 342.171 666.63 318.819 658.135 285.994Z" fill="#79C0CF"/>
<path d="M665.875 308.027C677.975 307.895 689.255 307.801 698.83 316.589C708.78 325.718 707.6 340.564 698.07 349.425C689.82 357.1 676.945 359.553 666.19 361.282C668.11 342.082 668.405 327.256 665.875 308.027Z" fill="#569FAD"/>
<path d="M658.135 285.994L661.295 288.947C661.8 292.195 663.08 296.059 664.05 299.25L664.96 301.562C665.23 303.795 665.49 305.812 665.875 308.027C668.405 327.256 668.11 342.083 666.19 361.283C665.68 365.959 664.82 370.616 664.025 375.256C680.71 370.944 698.885 369.126 711.47 355.533C717.825 348.483 720.18 339.332 719.62 330.034C718.04 303.703 691.735 293.822 668.775 295.539L669.865 292.543C673.57 292.271 675.99 292.032 679.715 292.503L682.585 292.639C708.52 297.378 726.515 312.201 721.8 340.326C717.04 368.682 685.925 372.674 663.565 378.549C662.61 383.38 660.995 393.143 659.705 397.444C657.365 400.222 656.625 403.962 654.88 407.066C656.455 397.286 659.345 385.712 661.155 375.699C667.225 342.171 666.63 318.819 658.135 285.994Z" fill="#245E6F"/>
<path d="M344.994 295.967L345.865 298.094C347.846 303.161 349.558 306.049 352.877 310.42C354.356 311.779 356.1 313.476 357.603 314.747L359.996 315.853C357.815 338.909 359.118 355.76 363.52 378.647C364.948 386.07 368.41 400.176 369.118 407.056C367.489 404.707 366.776 400.781 364.5 397.383C363.377 394.422 361.718 384.735 361.054 381.238C350.878 379.496 343.313 378.34 333.191 374.874C304.435 365.027 289.567 332.066 312.817 308.388C317.446 303.674 322.32 301.442 328.487 298.801L331.855 297.852C337.104 296.379 339.596 296.063 344.994 295.967Z" fill="#79C0CF"/>
<path d="M352.877 310.42C354.356 311.779 356.101 313.476 357.604 314.747C355.512 331.731 356.429 346.709 358.122 363.587C341.343 362.906 318.485 355.014 318.153 334.34C317.998 324.667 326.776 316.876 335.03 313.448C340.932 310.997 347.45 311.933 352.877 310.42Z" fill="#569FAD"/>
<path d="M344.994 295.967L345.865 298.094C337.578 299.028 332.664 299.917 325.155 303.418C299.432 315.411 297.455 347.846 319.948 364.391C333.169 374.115 344.978 375.427 360.507 378.051C359.693 373.339 358.726 368.303 358.122 363.587C356.429 346.709 355.511 331.731 357.603 314.747L359.996 315.853C357.815 338.909 359.118 355.76 363.52 378.647C364.948 386.07 368.41 400.176 369.118 407.056C367.489 404.707 366.776 400.781 364.5 397.383C363.377 394.422 361.718 384.735 361.054 381.238C350.878 379.496 343.313 378.34 333.191 374.874C304.435 365.027 289.567 332.066 312.817 308.388C317.446 303.674 322.32 301.442 328.487 298.801L331.855 297.852C337.104 296.379 339.596 296.063 344.994 295.967Z" fill="#245E6F"/>
<path d="M432.96 239.557C443.14 237.169 451.133 235.984 461.123 240.07C468.076 245.969 466.624 256.399 457.706 255.967C446.704 255.434 440.997 256.044 430.385 258.204C422.181 259.874 409.994 269.678 403.138 267.664C400.563 262.326 402.264 260.422 404.853 255.515C405.29 254.735 406.976 252.75 407.627 251.946C408.074 251.865 422.081 243.457 424.099 242.319C427.29 241.181 429.688 240.438 432.96 239.557Z" fill="#245E6F"/>
<path d="M443.772 240.191C449.371 239.703 458.934 239.259 462.457 244.966C464.141 247.517 462.575 253.248 459.207 253.306C443.535 253.573 434.418 253.247 419.374 259.701C415.271 261.444 407.586 267.469 404.123 264.141C403.851 261.787 405.158 259.511 406.689 257.736C416.05 246.885 430.177 241.779 443.772 240.191Z" fill="#569FAD"/>
<path d="M579.65 237.558C585.18 238.293 590.63 239.506 595.945 241.184C597.385 242.327 598.025 242.721 599.12 244.236C602.985 247.158 607.635 250.61 612.025 252.723L614.035 254.106C616.385 254.365 616.735 254.52 619 255.338C619.055 256.684 622.15 259.723 622.71 263.927C619.475 270.661 615.34 267.923 609.83 265.071C599.74 259.849 589.4 255.73 577.86 255.783C571.275 255.814 558.73 258.649 558.59 248.62C558.575 245.804 559.75 243.115 561.825 241.209C566.425 237.034 573.875 237.457 579.65 237.558Z" fill="#569FAD"/>
<path d="M579.65 237.558C585.18 238.293 590.63 239.506 595.945 241.184C597.385 242.327 598.025 242.721 599.12 244.236C592.095 242.444 562.64 233.913 560.825 246.968C560.56 248.715 561.09 250.49 562.26 251.813C565.16 255.1 575.71 252.977 580.105 253.335C591.365 254.253 601.54 257.672 611.405 263.084C614.41 264.706 617.255 266.507 619.66 264.322C620.71 260.584 616.42 256.682 614.035 254.106C616.385 254.365 616.735 254.52 619 255.338C619.055 256.684 622.15 259.723 622.71 263.927C619.475 270.661 615.34 267.923 609.83 265.071C599.74 259.849 589.4 255.73 577.86 255.783C571.275 255.814 558.73 258.649 558.59 248.62C558.575 245.804 559.75 243.115 561.825 241.209C566.425 237.034 573.875 237.457 579.65 237.558Z" fill="#245E6F"/>
<path d="M376.467 432.399C379.315 437.226 382.599 447.648 383.979 453.488C393.07 491.947 391.672 526.26 381.937 564.05L379.19 574.595L373.982 572.735C373.724 571.88 378.418 547.52 378.828 544.425C382.655 515.535 383.497 486.555 380.403 457.543C379.576 449.789 376.665 439.907 376.467 432.399Z" fill="#569FAD"/>
<path d="M645.51 574.69C644.215 570.885 642.95 566.4 641.89 562.5C632.52 527.64 631.81 491.014 639.815 455.813C641.445 448.705 643.525 439.725 647.155 433.387C646.195 444.595 643.45 455.745 642.64 467.755C640.17 504.38 643.03 537.095 650.64 572.725L645.51 574.69Z" fill="#569FAD"/>
<path d="M438.956 266.707C490.899 262.018 505.455 348.666 437.345 352.938C434.072 352.862 430.45 352.905 427.214 352.532C408.252 350.352 393.389 338.556 391.625 318.98C390.581 306.419 394.6 293.962 402.788 284.38C412.224 273.354 424.704 267.894 438.956 266.707Z" fill="#245E6F"/>
<path d="M441.515 268.707C464.249 269.388 480.455 285.678 481.088 308.408C481.445 319.173 477.448 329.629 470.002 337.411C459.969 347.757 447.44 350.569 433.625 350.862C423.204 350.106 413.364 348.112 405.227 341.198C388.506 326.992 391.181 300.76 404.935 285.531C414.984 274.404 426.996 269.741 441.515 268.707Z" fill="white"/>
<path d="M441.126 282.321C456.253 279.753 470.612 289.892 473.254 305.007C475.897 320.121 465.828 334.53 450.727 337.247C435.52 339.982 420.988 329.828 418.328 314.608C415.667 299.388 425.892 284.906 441.126 282.321Z" fill="#245E6F"/>
<path d="M455.658 291.201C457.826 290.317 460.302 290.669 462.137 292.123C463.972 293.577 464.882 295.907 464.517 298.22C464.152 300.533 462.57 302.469 460.377 303.288C457.055 304.528 453.353 302.871 452.064 299.569C450.774 296.266 452.375 292.54 455.658 291.201Z" fill="white"/>
<path d="M581.635 266.702C636.22 264.396 657.605 348.25 592.28 352.901C578.89 353.163 566.275 350.739 555.705 341.998C547.205 334.996 541.915 324.836 541.06 313.856C538.92 287.268 555.24 268.696 581.635 266.702Z" fill="#245E6F"/>
<path d="M582.415 268.707C593.66 268.587 606.245 273.621 614.7 280.947C623.845 288.898 629.47 300.147 630.34 312.233C631.99 337.337 613.81 349.477 590.815 350.767C578.78 351.148 566.23 347.777 556.91 339.934C548.89 333.137 543.93 323.406 543.145 312.922C541.04 287.843 557.905 270.491 582.415 268.707Z" fill="white"/>
<path d="M573.41 282.327C588.685 279.6 603.25 289.851 605.84 305.149C608.43 320.446 598.05 334.921 582.73 337.375C567.605 339.797 553.35 329.575 550.79 314.469C548.235 299.363 558.33 285.019 573.41 282.327Z" fill="#245E6F"/>
<path d="M588.685 291.203C591.995 289.907 595.735 291.518 597.065 294.815C598.39 298.112 596.82 301.865 593.535 303.227C591.38 304.12 588.915 303.788 587.07 302.358C585.23 300.927 584.3 298.619 584.635 296.311C584.97 294.004 586.515 292.053 588.685 291.203Z" fill="white"/>
<path d="M474.506 352.152C476.78 352.951 483.299 358.24 486.03 359.912C500.36 368.68 522.98 369.327 537.455 360.488C540.92 358.371 546.51 353.112 549.245 352.534C551.055 352.943 550.445 352.452 551.315 353.818C551.135 356.38 551.37 355.419 549.935 357.667C532.88 373.698 506.18 375.947 485.526 365.482C481.082 363.231 475.638 360.207 473.296 355.681C473.237 353.543 473.209 354.262 474.506 352.152Z" fill="#245E6F"/>
<path d="M508.57 314.093C525.245 313.081 530.76 328.086 516.005 334.162C509.995 334.923 503.13 333.78 500.51 327.521C499.579 325.344 499.573 322.884 500.49 320.703C502.095 316.948 505.1 315.515 508.57 314.093Z" fill="#245E6F"/>
<path d="M511.33 316.125C522.98 316.405 527.1 328.328 513.53 332.121C500.505 332.026 497.299 319 511.33 316.125Z" fill="#DEB7B5"/>
<path d="M338.354 912.005C341.781 876.77 352.625 855.595 385.315 839.22L387.676 840.75C383.275 843.135 369.001 850.525 367.686 854.465C349.057 869.87 341.866 890.325 341.427 914.135C362.058 922.84 412.584 925.155 435.622 924.205C445.163 923.815 457.444 922.11 466.677 919.815C470.354 919.085 475.646 917.34 479.147 915.98C486.897 912.76 495.874 908.865 502.24 903.395C502.42 900.975 503.075 899.57 504.355 897.585C505.57 898.365 506.66 899.33 507.575 900.445C511.82 905.625 510.145 921.98 509.675 928.7C508.81 934.205 509.51 947.205 504.035 950.53C492.771 957.36 475.517 965.97 463.011 969.195C434.78 976.48 404.185 975.265 375.323 972.41C365.753 971.465 344.176 969.015 337.055 961.42C332.882 955.28 332.251 929.025 333.04 920.57C333.409 916.625 335.297 914.235 338.354 912.005Z" fill="#245E6F"/>
<path d="M504.925 902.01C510.48 907.895 505.75 933.085 505.595 941.43C505.43 950.465 486.501 956.19 478.89 960.145C463.163 968.32 443.091 970.77 425.466 971.53C407.37 972.165 351.698 971.26 338.79 959.365C336.156 951.515 333.144 921.75 338.252 915.41C340.361 916.665 343.168 918.365 345.513 918.94C362.106 922.865 377.334 924.97 394.582 926.215C429.82 928.765 468.927 928.75 499.779 909.005C502.67 907.155 503.975 905.155 504.925 902.01Z" fill="white"/>
<path d="M479.941 827.01C480.615 827.57 483.12 829.735 483.721 830.03C484.793 834.96 485.744 839.92 482.802 844.51C482.432 845.08 482.043 845.635 481.637 846.18C480.388 845.875 479.239 845.735 477.97 845.545C477.848 842.465 479.458 830.7 479.941 827.01Z" fill="#8373B5"/>
<path d="M479.984 823.66C492.801 831.435 495.524 841.56 499.28 855.65C501.375 863.5 505.415 890.245 504.355 897.585C503.075 899.57 502.42 900.975 502.24 903.395C495.874 908.865 486.897 912.76 479.147 915.98C478.217 896.36 473.079 875.105 460.113 859.88C446.609 844.02 425.483 836.37 404.978 836.67C402.468 836.705 400.32 836.895 397.786 836.66C395.185 837.475 389.938 839.375 387.676 840.75L385.315 839.22C392.755 834.92 399.197 832.39 407.48 830.395C408.252 830.315 409.371 830.005 410.159 829.815C429.202 826.775 442.51 828.545 459.993 837.475C464.934 839.995 470.032 843.35 474.777 845.785L476.118 846.41L477.97 845.545C479.239 845.735 480.388 845.875 481.637 846.18C482.043 845.635 482.432 845.08 482.802 844.51C485.744 839.92 484.793 834.96 483.721 830.03C483.12 829.735 480.615 827.57 479.941 827.01L479.984 823.66Z" fill="#E48541"/>
<path d="M410.159 829.815C429.202 826.775 442.51 828.545 459.993 837.475C464.934 839.995 470.032 843.35 474.777 845.785L476.118 846.41L477.97 845.545C479.239 845.735 480.388 845.875 481.637 846.18C478.746 849.625 476.897 849.21 472.808 847.915C464.024 843.45 458.349 838.88 448.41 835.37C432.867 829.885 412.799 829.435 397.786 836.66C395.185 837.475 389.938 839.375 387.676 840.75L385.315 839.22C392.755 834.92 399.197 832.39 407.48 830.395C408.252 830.315 409.371 830.005 410.159 829.815Z" fill="#903C13"/>
<path d="M479.984 823.66C492.801 831.435 495.525 841.56 499.281 855.65C501.375 863.5 505.415 890.245 504.355 897.585C503.075 899.57 502.42 900.975 502.24 903.395C502.01 896.48 501.52 889.58 500.77 882.7C499.211 868.015 495.493 839.55 483.721 830.03C483.12 829.735 480.615 827.57 479.941 827.01L479.984 823.66Z" fill="#903C13"/>
<path d="M387.676 840.75C389.938 839.375 395.186 837.475 397.787 836.66C400.321 836.895 402.468 836.705 404.978 836.67C425.483 836.37 446.61 844.02 460.114 859.88C473.08 875.105 478.217 896.36 479.147 915.98C475.647 917.34 470.354 919.085 466.677 919.815C465.394 888.585 451.837 858.765 420.127 849C401.683 843.32 384.54 844.7 367.686 854.465C369.001 850.525 383.275 843.135 387.676 840.75Z" fill="#8373B5"/>
<path d="M660.6 857.64C661.485 856.495 661.485 856.585 662.605 855.61C678.605 870.73 684.64 890.005 685.79 911.625C689.03 914.085 690.96 917.005 691.31 921.415C691.95 929.47 691.515 956.02 687.055 961.82C680.295 968.83 660.605 971.23 651.445 972.155C613.76 975.96 572.19 977.785 537.655 959.795C527.77 954.645 516.5 952.535 515.59 939.79C514.84 929.335 513.755 918.77 513.9 908.265C513.9 903.775 516.29 900.59 519.665 898.025C520.69 900.3 520.925 901.575 522.46 903.54C526.6 908.17 539.505 913.59 545.44 915.94C549.11 917.635 553.72 918.365 557.52 919.815C566.245 921.81 575.115 923.145 584.04 923.81C607.565 925.51 661.67 923.395 682.86 914.035C682.095 890.93 676.81 874.22 660.6 857.64Z" fill="#245E6F"/>
<path d="M519.295 901.875C520.87 903.44 519.54 905.545 523.04 907.92C551.03 926.88 586.85 928.35 619.59 926.885C639.39 926 660.555 923.795 679.775 918.55C682.095 917.915 683.96 916.115 686.185 915.78C691.545 921.06 687.79 951.155 685.76 958.86C681.46 964.36 671.045 966.315 664.16 967.41C632.35 972.375 598.645 974.065 566.915 967.695C554.92 964.795 543.795 959.29 532.64 954.15C526.45 951.3 518.3 947.75 518.39 939.75C518.495 930.535 513.82 908.95 519.295 901.875Z" fill="white"/>
<path d="M544.335 826.905C545.155 833.39 546.045 839.87 547 846.335C545.365 845.535 543.945 845.435 542.145 845.14C538.485 840.275 538.915 834.87 541.285 829.57L544.335 826.905Z" fill="#8373B5"/>
<path d="M543.965 823.995L544.335 826.905L541.285 829.57C538.915 834.87 538.485 840.275 542.145 845.14C543.945 845.435 545.365 845.535 547 846.335L549.79 845.84C555.095 842.965 559.97 839.64 565.51 836.89C581.96 828.715 596.285 826.825 614.19 829.76L617 830.38C623.26 831.555 632.595 835.625 638.17 838.75C636.895 839.87 637.155 839.93 635.665 840.305C633.385 839.255 630.545 838.16 628.19 837.19C622.79 837.645 617.17 836.595 611.55 836.99C594 838.22 576.96 845.68 565.11 858.845C551.875 873.555 545.435 896.365 545.44 915.94C539.505 913.59 526.6 908.17 522.46 903.54C520.925 901.575 520.69 900.3 519.665 898.025C520.615 878.88 522.63 858.345 529.88 840.45C532.985 832.78 536.73 828.125 543.965 823.995Z" fill="#E48541"/>
<path d="M549.79 845.84C555.095 842.965 559.97 839.64 565.51 836.89C581.96 828.715 596.285 826.825 614.19 829.76L617 830.38C623.26 831.555 632.595 835.625 638.17 838.75C636.895 839.87 637.155 839.93 635.665 840.305C633.385 839.255 630.545 838.16 628.19 837.19C606.86 828.255 585.465 829.62 564.93 840.325C558.58 843.635 547.495 854.13 542.145 845.14C543.945 845.435 545.365 845.535 547 846.335L549.79 845.84Z" fill="#903C13"/>
<path d="M543.965 823.995L544.335 826.905L541.285 829.57C526.68 842.335 523.855 873.785 522.63 892.485C522.42 896.165 522.365 899.855 522.46 903.54C520.925 901.575 520.69 900.3 519.665 898.025C520.615 878.88 522.63 858.345 529.88 840.45C532.985 832.78 536.73 828.125 543.965 823.995Z" fill="#903C13"/>
<path d="M545.44 915.94C545.435 896.365 551.875 873.555 565.11 858.845C576.96 845.68 594 838.22 611.55 836.99C617.17 836.595 622.79 837.645 628.19 837.19C630.545 838.16 633.385 839.255 635.665 840.305C637.155 839.93 636.895 839.87 638.17 838.75C646.6 842.58 655.88 849.335 662.605 855.61C661.485 856.585 661.485 856.495 660.6 857.64C658.245 855.435 656.125 854.12 653.445 852.335C633.635 844.385 618.92 842.67 598.635 851.11C568.45 863.665 560.75 890.005 557.52 919.815C553.72 918.365 549.11 917.635 545.44 915.94Z" fill="#8373B5"/>
<path d="M638.17 838.75C646.6 842.58 655.88 849.335 662.605 855.61C661.485 856.585 661.485 856.495 660.6 857.64C658.245 855.435 656.125 854.12 653.445 852.335C651.87 849.185 639.48 842.675 635.665 840.305C637.155 839.93 636.895 839.87 638.17 838.75Z" fill="#5A4377"/>
<path d="M353.306 733.065C354.082 738.985 355.626 745.785 351.644 750.75C343.965 760.325 330.488 754.46 322.869 748.45C303.737 733.365 296.759 706.845 294.107 683.705C290.924 655.935 298.247 627.555 303.716 600.56C311.211 563.105 319.92 526.345 337.14 491.922C340.556 485.093 345.396 476.247 350.14 470.411L350.677 474.651C351.657 486.529 351.962 498.453 351.591 510.365C350.803 532.22 348.02 542.925 352.473 564.83C343.309 569.625 349.658 578.97 352.717 586.355C353.41 587.81 353.961 588.795 354.32 590.385C353.705 593.69 353.11 597.32 352.242 600.54C349.235 614.345 347.287 623.89 352.141 637.485C352.56 638.62 352.945 639.7 353.418 640.815C356.525 648.77 356.027 655.61 358.345 661.975C362.671 673.005 373.123 683.04 373.474 695.385C373.681 702.69 366.425 709.235 358.962 708.42C349.708 707.415 347.459 702.49 342.116 696.37L341.303 696.375C334.493 710.725 365.254 709.755 353.306 733.065Z" fill="#79C0CF"/>
<path d="M353.306 733.065C354.082 738.985 355.626 745.785 351.644 750.75C343.965 760.325 330.488 754.46 322.869 748.45C303.738 733.365 296.759 706.845 294.107 683.705C290.924 655.935 298.247 627.555 303.716 600.56C311.211 563.105 319.92 526.345 337.14 491.922C340.556 485.093 345.396 476.247 350.14 470.411L350.677 474.651C326.382 510.32 314.257 562.3 306.034 604.09C302.259 623.275 297.718 641.465 296.658 661.13C295.961 672.865 296.732 684.645 298.953 696.19C302.639 715.475 310.037 736.495 327.178 747.92C334.173 752.585 344.513 756.71 350.175 747.405C350.558 746.78 350.59 746.505 350.595 745.78C348.312 745.6 344.469 748.11 342.736 748.02C324.175 747.08 312.329 725.675 308.107 709.715C307.353 706.86 305.546 704.06 307.762 701.55C308.895 702.08 309.377 703.66 309.732 704.86C314.199 720 319.42 734.935 334.349 742.715C343.704 747.595 354.959 743.95 349.224 732.005C343.233 720.36 328.521 711.79 332.817 696.45C333.566 693.545 335.193 691.445 337.389 689.455C335.661 687.465 333.025 684.845 333.528 681.99C342.863 684.745 348.681 713.23 365.409 703.695C367.594 702.45 369.389 700.825 369.961 698.265C372.578 686.55 359.944 674.68 356.082 664.415C354.385 659.905 353.636 652.48 352.372 647.49C350.988 642.02 346.883 632.12 346.434 627.17C345.556 617.47 348.358 605.405 350.425 595.88C351.081 592.385 351.758 589.79 352.717 586.355C353.41 587.81 353.961 588.795 354.32 590.385C353.705 593.69 353.11 597.32 352.242 600.54C349.235 614.345 347.287 623.89 352.141 637.485C352.56 638.62 352.945 639.7 353.418 640.815C356.525 648.77 356.027 655.61 358.345 661.975C362.671 673.005 373.123 683.04 373.474 695.385C373.681 702.69 366.425 709.235 358.962 708.42C349.708 707.415 347.459 702.49 342.116 696.37L341.303 696.375C334.493 710.725 365.254 709.755 353.306 733.065Z" fill="#245E6F"/>
<path d="M338.209 692.31L338.761 692.91C337.655 702.235 337.428 706.73 345.83 712.485C353.079 717.45 354.91 721.405 351.721 729.715C345.213 719.545 327.563 705.98 338.209 692.31Z" fill="#569FAD"/>
</svg>
