<svg width="256" height="256" viewBox="0 0 256 256" fill="none" xmlns="http://www.w3.org/2000/svg">
<path d="M26.5508 98.1633C26.8761 99.1979 27.4654 100.102 28.3188 100.875C28.5214 101.062 28.5588 101.278 28.4308 101.523C25.1828 107.822 24.7294 114.185 27.0708 120.611C28.1054 123.459 30.2734 125.169 33.5748 125.739C33.8361 125.787 33.9588 125.942 33.9428 126.203C33.7081 131.083 35.8921 134.369 40.4948 136.059" stroke="#A99692" stroke-width="2"/>
<path d="M40.4951 136.059C41.5138 139.153 42.9458 142.198 44.7911 145.195" stroke="#FCDAC9" stroke-width="2"/>
<path d="M44.7908 145.195C42.8468 145.307 45.8948 153.547 46.5428 154.763C48.4788 158.401 51.7268 160.014 56.2868 159.603C56.4035 159.594 56.5203 159.618 56.6226 159.674C56.725 159.729 56.8085 159.813 56.8628 159.915C59.9908 165.851 66.9668 166.059 72.3188 163.283" stroke="#A99692" stroke-width="2"/>
<path d="M72.3184 163.284C73.3584 163.612 73.4144 164.58 73.9744 165.204C84.545 176.937 97.8464 184.441 113.878 187.716" stroke="#FCDAC9" stroke-width="2"/>
<path d="M113.879 187.716C112.221 188.83 110.119 189.489 107.575 189.692" stroke="#F5C9BE" stroke-width="2"/>
<path d="M107.575 189.691C93.9959 190.417 81.3106 194.518 69.5186 201.995" stroke="#AFBBC4" stroke-width="2"/>
<path d="M69.5198 201.995L64.2238 204.667C64.1346 204.713 64.0571 204.778 63.9974 204.858C63.9377 204.938 63.8973 205.031 63.8795 205.13C63.8617 205.228 63.8669 205.329 63.8947 205.425C63.9225 205.521 63.9721 205.61 64.0398 205.683C82.3864 225.401 104.866 235.017 131.48 234.531C155.56 234.091 177.232 224.107 193.32 206.067C193.517 205.843 193.496 205.641 193.256 205.459C191.362 203.998 189.341 203.054 187.192 202.627" stroke="#E8EEEE" stroke-width="2"/>
<path d="M187.191 202.627C174.076 193.987 159.652 189.91 143.919 190.395" stroke="#AFBBC4" stroke-width="2"/>
<path d="M143.919 190.395C143.146 190.31 142.669 189.819 142.487 188.923" stroke="#F5C9BE" stroke-width="2"/>
<path d="M142.487 188.923C142.818 188.481 143.093 188.225 143.311 188.155C149.253 186.31 153.135 185.067 154.959 184.427C166.378 180.422 175.954 173.801 183.687 164.563" stroke="#FCDAC9" stroke-width="2"/>
<path d="M183.688 164.564C189.442 165.908 193.528 164.054 195.944 159.004C196.061 158.758 196.253 158.625 196.519 158.604C203.567 157.972 208.592 155.116 208.688 147.148" stroke="#A99692" stroke-width="2"/>
<path d="M208.688 147.147C211.082 144.459 213.186 141.497 214.999 138.259" stroke="#FCDAC9" stroke-width="2"/>
<path d="M214.999 138.26C222.431 136.324 222.927 132.98 223.151 126.116C223.162 125.855 223.295 125.692 223.551 125.628C225.354 125.18 226.756 124.161 227.759 122.572" stroke="#9E8A86" stroke-width="2"/>
<path d="M227.759 122.571C229.503 120.683 229.327 114.811 229.327 111.547C229.327 108.326 228.109 105.294 225.671 102.451C225.591 102.357 225.545 102.239 225.539 102.117C225.533 101.996 225.568 101.876 225.639 101.779C228.205 98.126 228.687 94.1206 227.087 89.7633" stroke="#A99692" stroke-width="2"/>
<path d="M227.087 89.7635C227.466 85.9609 226.306 82.8702 223.607 80.4915C223.521 80.4139 223.462 80.3094 223.442 80.1949C223.422 80.0803 223.441 79.9622 223.495 79.8595C226.583 74.0035 220.751 64.8035 216.567 61.2755C216.37 61.1102 216.247 60.9022 216.199 60.6515C215.874 58.8755 215.09 57.0675 213.847 55.2275C209.647 49.0195 206.343 43.0515 198.263 43.6275C197.965 43.6435 197.834 43.5049 197.871 43.2115C198.719 36.0115 196.431 33.1555 188.999 33.5715C188.717 33.5875 188.509 33.4702 188.375 33.2195C187.005 30.6649 184.869 29.7315 181.967 30.4195C181.824 30.454 181.673 30.4313 181.547 30.3564C181.421 30.2816 181.331 30.1605 181.295 30.0195C180.346 26.2649 177.965 24.1982 174.151 23.8195C174.031 23.8077 173.917 23.7633 173.821 23.6914C173.725 23.6194 173.651 23.5225 173.607 23.4115C171.767 18.8435 167.759 18.5395 163.215 19.2755C162.949 19.3182 162.717 19.2489 162.519 19.0675C157.655 14.7795 152.255 11.9955 145.671 12.6355C145.421 12.6569 145.178 12.6142 144.943 12.5075C139.818 10.1448 134.919 10.4515 130.247 13.4275C130.023 13.5715 129.81 13.5582 129.607 13.3875C126.578 10.8969 123.181 9.96354 119.415 10.5875C116.791 11.0195 114.927 10.9235 112.527 10.8915C108.271 10.8328 104.402 11.9955 100.919 14.3795C100.704 14.5279 100.437 14.5853 100.175 14.5395C96.1913 13.8035 90.5593 17.0915 86.9113 19.5315C86.6926 19.6755 86.4526 19.7448 86.1913 19.7395C81.0713 19.6835 76.5113 20.3555 74.5433 25.6355C74.4473 25.8969 74.2633 26.0515 73.9913 26.0995C73.1753 26.2488 72.3539 26.3609 71.5273 26.4355C66.1033 26.9475 62.2526 29.5902 59.9753 34.3635C59.8633 34.6035 59.6766 34.7262 59.4153 34.7315C54.2233 34.8835 47.1273 37.0675 49.0553 44.0195C49.0751 44.0908 49.0766 44.1659 49.0598 44.2379C49.0429 44.31 49.0081 44.3765 48.9587 44.4315C48.9092 44.4866 48.8467 44.5283 48.7769 44.5527C48.7071 44.5772 48.6322 44.5837 48.5593 44.5715C39.8873 43.2275 31.2553 52.0035 33.7753 60.5875C33.8499 60.8382 33.802 61.0649 33.6313 61.2675C31.7006 63.4809 30.0819 65.8969 28.7753 68.5155C27.4873 71.0915 26.1993 76.9075 28.7353 79.0275C28.9379 79.1982 28.97 79.3982 28.8313 79.6275C26.1593 83.9235 26.5193 87.9235 25.7513 93.1635C25.5113 94.7955 25.7779 96.4622 26.5513 98.1635" stroke="#B8A29B" stroke-width="2"/>
<path d="M227.087 89.7637C226.442 90.5477 226.311 91.3904 226.695 92.2917C226.796 92.5248 226.858 92.7734 226.879 93.0277C227.029 95.0224 226.919 96.9984 226.551 98.9557C226.499 99.23 226.356 99.4784 226.143 99.6597L224.247 101.244C224.002 101.446 223.722 101.582 223.407 101.652C217.423 102.916 194.375 106.372 192.543 97.3637C192.015 94.7717 190.095 89.6917 192.751 87.7877C194.869 86.2731 197.077 84.6704 199.375 82.9797C199.431 82.9364 199.473 82.8768 199.494 82.809C199.514 82.7413 199.514 82.6687 199.492 82.6013C199.47 82.5339 199.428 82.4749 199.371 82.4324C199.315 82.3898 199.246 82.3659 199.175 82.3637H198.719C198.591 82.3637 198.527 82.2997 198.527 82.1717C198.575 79.8757 199.119 77.1477 198.479 75.0757C196.295 67.9877 189.647 69.0597 183.911 71.0837C183.661 71.1691 183.41 71.1797 183.159 71.1157C176.751 69.4997 173.127 58.8117 172.295 53.0757C172.278 52.968 172.232 52.8672 172.16 52.7847C172.089 52.7022 171.996 52.6412 171.892 52.6088C171.788 52.5763 171.677 52.5736 171.572 52.601C171.466 52.6284 171.37 52.6847 171.295 52.7637C169.386 54.785 167.183 56.401 164.687 57.6117C164.287 57.8054 163.828 57.8351 163.407 57.6944C162.987 57.5538 162.639 57.2541 162.439 56.8597C154.943 42.0997 137.359 48.1877 130.591 59.4917C130.54 59.58 130.465 59.6518 130.374 59.6987C130.283 59.7456 130.181 59.7656 130.079 59.7564C129.978 59.7471 129.881 59.7091 129.8 59.6466C129.719 59.5841 129.658 59.4998 129.623 59.4037L126.551 51.1477C126.514 51.048 126.454 50.958 126.377 50.8844C126.3 50.8108 126.207 50.7555 126.106 50.7225C126.004 50.6894 125.897 50.6796 125.791 50.6936C125.686 50.7077 125.584 50.7453 125.495 50.8037C122.183 52.9717 112.151 59.2117 108.319 58.3637C105.189 57.665 102.474 57.5477 100.175 58.0117C95.3912 58.9877 88.1272 62.8437 86.0232 67.9317C85.959 68.0879 85.8604 68.2276 85.7349 68.3406C85.6095 68.4536 85.4602 68.5369 85.2982 68.5845C85.1362 68.6321 84.9655 68.6428 84.7989 68.6156C84.6322 68.5885 84.4738 68.5243 84.3352 68.4277C82.5219 67.1477 80.9832 65.5877 79.7192 63.7477C79.6113 63.5893 79.4692 63.4572 79.3033 63.361C79.1374 63.2648 78.9519 63.207 78.7603 63.1916C78.5687 63.1763 78.3758 63.2039 78.1957 63.2725C78.0156 63.341 77.8528 63.4487 77.7192 63.5877C75.4046 66.0304 73.1779 68.417 71.0392 70.7477C68.8072 73.1797 64.7752 72.6277 62.2632 74.2997C60.0979 75.745 59.0232 77.961 59.0392 80.9477C59.0392 81.2144 59.1246 81.449 59.2952 81.6517C61.3272 84.1584 63.7619 86.0997 66.5992 87.4757" stroke="#623A2E" stroke-width="2"/>
<path d="M66.5996 87.475L67.1036 93.835" stroke="#AF6E5B" stroke-width="2"/>
<path d="M67.1038 93.8359C66.3998 94.7106 65.9918 95.7719 65.8798 97.0199C65.8584 97.3079 65.7144 97.5159 65.4478 97.6439C54.4478 102.94 42.1277 103.556 30.1837 101.508C29.9117 101.46 29.7091 101.316 29.5758 101.076C28.8611 99.7746 27.8531 98.8039 26.5518 98.1639" stroke="#623A2E" stroke-width="2"/>
<path d="M196.752 110.963C198.229 115.065 198.608 119.265 197.888 123.563" stroke="#955646" stroke-width="2"/>
<path d="M197.887 123.563C197.103 123.547 196.671 123.262 196.591 122.707C195.599 115.595 193.967 111.739 190.663 104.619C188.887 100.774 187.516 96.0886 186.551 90.5633C186.063 87.7553 180.911 89.0353 178.727 85.7793C178.567 85.5446 178.353 85.3739 178.087 85.2673C175.047 84.0779 172.58 82.1259 170.687 79.4113C170.516 79.1659 170.289 79.0993 170.007 79.2113C168.449 79.8513 166.404 80.8059 163.871 82.0753C151.175 88.4513 137.935 82.8833 127.895 74.4753C127.623 74.2459 127.361 74.2566 127.111 74.5073C121.807 79.8833 113.575 82.8193 106.439 79.3633C106.167 79.2353 105.903 79.2486 105.647 79.4033C100.303 82.6753 98.7668 82.7312 91.6868 81.7472C91.4308 81.7099 91.2121 81.7846 91.0308 81.9713C86.6068 86.4353 83.9988 89.8993 77.0548 86.2593C75.2148 85.2993 71.5028 88.5953 68.8148 88.8593C68.5161 88.8859 68.4388 89.0299 68.5828 89.2912C68.8868 89.8352 69.0628 90.0433 69.1028 90.6993C69.5508 98.9713 67.2868 104.747 63.5908 112.203C61.6228 116.179 60.7748 120.395 59.1748 124.611" stroke="#F3A689" stroke-width="2"/>
<path d="M59.1758 124.612C59.1491 120.729 59.3971 118.124 59.9198 116.796C62.8318 109.34 66.9918 102.3 67.1038 93.8359" stroke="#A06252" stroke-width="2"/>
<path d="M227.76 122.571L222.736 125.467C222.517 125.59 222.421 125.777 222.448 126.027C223.088 131.579 222.144 134.171 217.264 136.939C217.16 136.998 217.041 137.026 216.922 137.02C216.803 137.013 216.688 136.972 216.591 136.903C216.494 136.833 216.419 136.736 216.375 136.625C216.332 136.514 216.321 136.393 216.344 136.275C216.989 132.974 216.736 129.721 215.584 126.515C213.44 120.555 206.96 114.931 200.608 119.467C200.534 119.518 200.45 119.551 200.361 119.563C200.272 119.574 200.182 119.564 200.099 119.533C200.015 119.503 199.941 119.452 199.882 119.386C199.823 119.32 199.781 119.241 199.76 119.155L197.568 110.363C197.509 110.139 197.435 110.131 197.344 110.339C197.221 110.622 197.024 110.83 196.752 110.963" stroke="#49221A" stroke-width="2"/>
<path d="M196.752 110.963C194.488 105.571 192.08 100.5 190.8 94.7715C190.17 91.9555 189.576 89.1742 189.016 86.4275C188.961 86.1567 188.82 85.9105 188.614 85.7248C188.408 85.5392 188.148 85.4237 187.872 85.3955C185.344 85.1555 182.96 85.0835 180.72 83.8835C175.882 81.3075 172.562 77.3635 170.76 72.0515C170.755 72.0412 170.749 72.0319 170.74 72.0244C170.732 72.0169 170.723 72.0114 170.713 72.0083C170.702 72.0052 170.692 72.0046 170.682 72.0065C170.672 72.0085 170.663 72.0129 170.656 72.0195C156.736 82.8435 139.576 81.6595 128.368 68.2915C128.334 68.2513 128.291 68.2195 128.243 68.1984C128.195 68.1773 128.142 68.1676 128.09 68.1699C128.037 68.1722 127.986 68.1865 127.94 68.2118C127.894 68.237 127.854 68.2725 127.824 68.3155C123.128 75.1155 114.432 78.9395 106.272 76.4195C105.651 76.2295 104.983 76.2839 104.408 76.5715C98.4983 79.5315 92.6769 79.3395 86.9436 75.9955C86.8317 75.9289 86.7063 75.888 86.5767 75.8757C86.447 75.8634 86.3162 75.88 86.1938 75.9244C86.0713 75.9688 85.9602 76.0399 85.8685 76.1324C85.7769 76.2249 85.7069 76.3366 85.6636 76.4595C83.9836 81.1262 80.7996 83.9155 76.1116 84.8275C72.7356 85.4835 70.0556 86.9715 66.5996 87.4755" stroke="#A06252" stroke-width="2"/>
<path d="M197.887 123.563C197.711 123.899 197.668 124.254 197.759 124.627C197.866 125.064 197.983 125.067 198.111 124.635C199.383 120.379 203.239 117.403 207.743 119.059C215.527 121.923 216.911 131.131 214.999 138.259" stroke="#9C6651" stroke-width="2"/>
<path d="M208.688 147.148C203.904 148.988 198.791 149.988 193.807 148.292C193.562 148.206 193.383 148.281 193.271 148.516C190.567 154.148 187.373 159.497 183.688 164.564" stroke="#A6725D" stroke-width="2"/>
<path d="M142.487 188.924C141.884 188.748 141.228 188.705 140.519 188.796C134.359 189.59 128.175 189.764 121.967 189.316C120.036 189.177 117.34 188.644 113.879 187.716" stroke="#F3A689" stroke-width="2"/>
<path d="M72.3189 163.283C72.3563 162.985 72.2229 162.689 71.9189 162.395" stroke="#A6725D" stroke-width="2"/>
<path d="M71.9188 162.396C72.1642 161.201 71.5962 160.46 70.2148 160.172" stroke="#FCC5A8" stroke-width="2"/>
<path d="M70.215 160.171C67.8683 156.587 65.799 152.683 64.007 148.459C63.8814 148.162 63.6443 147.926 63.3466 147.802C63.049 147.678 62.7145 147.676 62.415 147.795C55.967 150.345 50.0923 149.478 44.791 145.195" stroke="#A6725D" stroke-width="2"/>
<path d="M40.4952 136.06C39.6152 130.241 40.6846 125.556 43.7032 122.004C46.3912 118.836 53.0712 116.044 56.0152 120.684C57.2685 122.657 58.2979 124.75 59.1032 126.964C59.2472 127.364 59.3085 127.35 59.2872 126.924L59.1752 124.612" stroke="#A6725D" stroke-width="2"/>
<path d="M143.919 190.395C143.967 191.427 143.831 192.019 142.847 192.547C132.711 197.907 116.103 199.147 107.575 189.691" stroke="#A68784" stroke-width="2"/>
<path d="M70.2148 160.172L71.9188 162.396" stroke="#A98170" stroke-width="2"/>
<path d="M187.191 202.627C179.023 207.947 171.967 212.699 162.615 215.931C131.679 226.603 95.3746 223.323 69.5186 201.995" stroke="#98ABB4" stroke-width="2"/>
<path d="M81.471 37.2113C87.783 39.8673 92.903 38.6432 100.663 37.0912C109.647 35.2832 127.647 30.1153 132.911 21.9873C133.071 21.7473 133.103 21.4913 133.007 21.2193C130.151 13.0513 104.255 19.8912 98.279 21.8512C92.6897 23.6859 87.543 26.3606 82.839 29.8753C80.839 31.3793 78.255 35.8593 81.471 37.2113Z" stroke="#7F4E3C" stroke-width="2"/>
<path d="M82.4482 41.0567C82.3381 40.1981 81.6249 39.4525 80.4652 38.9839C79.3056 38.5154 77.7946 38.3623 76.2646 38.5583C75.507 38.6553 74.7675 38.8351 74.0885 39.0875C73.4094 39.3399 72.804 39.6598 72.3068 40.0291C71.8096 40.3983 71.4304 40.8097 71.1908 41.2396C70.9512 41.6695 70.8559 42.1097 70.9104 42.5348C71.0204 43.3935 71.7337 44.1391 72.8934 44.6076C74.053 45.0762 75.564 45.2293 77.094 45.0333C77.8516 44.9363 78.591 44.7564 79.2701 44.5041C79.9492 44.2517 80.5546 43.9318 81.0518 43.5625C81.5489 43.1933 81.9282 42.7819 82.1677 42.352C82.4073 41.922 82.5026 41.4819 82.4482 41.0567Z" stroke="#7F4E3C" stroke-width="2"/>
<path d="M158.623 92.5556C150.999 90.6436 150.015 101.148 156.991 101.948C163.194 102.657 169.412 103.681 175.647 105.02C175.93 105.079 176.226 105.036 176.479 104.898C176.733 104.76 176.929 104.537 177.031 104.268C178.807 99.5476 161.687 93.3316 158.623 92.5556Z" stroke="#B3765B" stroke-width="2"/>
<path d="M101.168 101.283C104.648 99.1073 103.6 91.7313 97.7438 92.9153C92.4158 93.9873 81.1598 97.6353 78.6238 102.955C78.5227 103.164 78.4813 103.396 78.5042 103.627C78.527 103.857 78.6131 104.077 78.753 104.262C78.893 104.446 79.0813 104.589 79.297 104.673C79.5128 104.757 79.7477 104.78 79.9758 104.739C85.2558 103.795 90.6451 103.03 96.1438 102.443C98.6878 102.177 100.362 101.79 101.168 101.283Z" stroke="#B3765B" stroke-width="2"/>
<path d="M136.745 95.6795C136.781 95.4854 136.76 95.2825 136.683 95.0825C136.606 94.8824 136.475 94.689 136.296 94.5135C136.117 94.338 135.895 94.1836 135.641 94.0594C135.388 93.9351 135.109 93.8433 134.82 93.7891C134.236 93.6799 133.647 93.7308 133.182 93.9307C132.717 94.1307 132.415 94.4633 132.342 94.8554C132.305 95.0495 132.326 95.2524 132.403 95.4525C132.48 95.6525 132.612 95.8459 132.791 96.0214C132.97 96.197 133.192 96.3513 133.445 96.4756C133.698 96.5999 133.978 96.6917 134.267 96.7458C134.851 96.8551 135.44 96.8041 135.905 96.6041C136.369 96.4042 136.672 96.0716 136.745 95.6795Z" stroke="#EAA482" stroke-width="2"/>
<path d="M137.066 105.611C137.102 105.373 137.091 105.13 137.033 104.897C136.975 104.663 136.872 104.443 136.729 104.25C136.587 104.056 136.407 103.892 136.201 103.768C135.995 103.644 135.767 103.561 135.529 103.525L134.247 103.332C134.009 103.296 133.767 103.307 133.533 103.365C133.3 103.422 133.08 103.526 132.886 103.668C132.692 103.811 132.529 103.991 132.405 104.197C132.28 104.403 132.198 104.631 132.162 104.869L132.052 105.597C132.016 105.835 132.027 106.077 132.085 106.311C132.143 106.544 132.246 106.764 132.389 106.958C132.531 107.151 132.711 107.315 132.917 107.439C133.123 107.564 133.351 107.646 133.589 107.682L134.871 107.876C135.109 107.912 135.351 107.901 135.585 107.843C135.818 107.785 136.038 107.682 136.232 107.539C136.425 107.396 136.589 107.217 136.713 107.011C136.838 106.805 136.92 106.576 136.956 106.338L137.066 105.611Z" stroke="#F3A689" stroke-width="2"/>
<path d="M137.308 112.392C137.166 112.187 136.972 112.022 136.736 111.905C136.5 111.789 136.228 111.723 135.934 111.712C135.64 111.702 135.331 111.746 135.023 111.843C134.716 111.94 134.417 112.087 134.143 112.277C133.87 112.466 133.626 112.694 133.428 112.948C133.229 113.201 133.079 113.475 132.985 113.754C132.892 114.033 132.857 114.311 132.883 114.573C132.91 114.835 132.996 115.075 133.138 115.279C133.28 115.484 133.474 115.649 133.71 115.766C133.945 115.882 134.218 115.948 134.512 115.959C134.806 115.969 135.115 115.925 135.422 115.828C135.729 115.731 136.028 115.584 136.302 115.394C136.576 115.205 136.819 114.977 137.018 114.723C137.217 114.47 137.367 114.196 137.46 113.917C137.554 113.638 137.588 113.36 137.562 113.098C137.536 112.837 137.449 112.597 137.308 112.392Z" stroke="#F3A689" stroke-width="2"/>
<path d="M78.6949 124.963L77.127 126.731" stroke="#BC7D60" stroke-width="2"/>
<path d="M77.1266 126.731C76.828 127.259 76.82 127.718 77.1026 128.107C77.2733 128.331 77.4973 128.457 77.7746 128.483C78.8306 128.574 79.716 128.945 80.4307 129.595" stroke="#9C6651" stroke-width="2"/>
<path d="M80.4316 129.595C83.9596 143.123 104.872 145.259 107.6 129.963" stroke="#FCDAC9" stroke-width="2"/>
<path d="M107.599 129.963C109.527 122.435 105.807 112.995 97.5266 112.179C89.4306 111.39 83.1533 114.502 78.6946 121.515C78.3213 122.107 77.532 122.368 76.3266 122.299C75.8733 122.272 75.7186 122.475 75.8626 122.907L76.2306 124.019C76.3426 124.36 76.5746 124.486 76.9266 124.395C77.5773 124.224 78.1666 124.414 78.6946 124.963" stroke="#9C6651" stroke-width="2"/>
<path d="M107.599 129.964C107.418 127.126 106.578 124.356 105.079 121.652C105.045 121.592 104.998 121.541 104.941 121.501C104.885 121.462 104.82 121.435 104.753 121.424C104.686 121.412 104.617 121.416 104.551 121.435C104.486 121.453 104.426 121.487 104.375 121.532C104.253 121.644 104.237 121.91 104.327 122.332" stroke="#9E8A86" stroke-width="2"/>
<path d="M104.326 122.331C102.062 122.339 103.334 131.267 97.1184 131.971C93.4277 132.392 90.8757 130.792 89.4624 127.171C87.7104 122.675 89.0384 120.043 91.8624 116.147C92.0224 115.928 91.9664 115.824 91.6944 115.835C90.4997 115.888 89.3744 116.187 88.3184 116.731" stroke="#883D24" stroke-width="2"/>
<path d="M88.3196 116.731C82.7516 119.062 80.1223 123.35 80.4316 129.595" stroke="#9E8A86" stroke-width="2"/>
<path d="M77.127 126.731C77.7883 126.731 78.3109 126.966 78.6949 127.435C78.8283 127.601 78.9296 127.585 78.999 127.387C79.383 126.321 79.2816 125.513 78.6949 124.963" stroke="#5E2D1D" stroke-width="2"/>
<path d="M104.327 122.331C109.847 137.315 88.583 143.283 85.639 127.395C84.935 123.614 85.8283 120.059 88.319 116.731" stroke="#E8B09C" stroke-width="2"/>
<path d="M149.392 130.275C150.416 133.955 152.306 136.728 155.064 138.595C162.432 143.571 174.152 139.203 176.552 130.763" stroke="#FCDAC9" stroke-width="2"/>
<path d="M176.551 130.764L179.999 127.604C180.223 127.396 180.236 127.174 180.039 126.94L178.919 125.62C178.874 125.568 178.84 125.508 178.821 125.442C178.801 125.376 178.796 125.307 178.806 125.24C178.816 125.172 178.84 125.107 178.878 125.05C178.915 124.992 178.965 124.944 179.023 124.908L181.039 123.644C181.295 123.484 181.367 123.262 181.255 122.98L180.991 122.308C180.884 122.041 180.695 121.95 180.423 122.036L178.783 122.548C178.703 122.573 178.618 122.57 178.539 122.54C178.461 122.509 178.394 122.453 178.351 122.38C174.623 116.065 169.145 112.724 161.919 112.356C147.879 111.644 147.271 130.532 149.391 130.276" stroke="#9C6651" stroke-width="2"/>
<path d="M176.551 130.764C177.207 126.156 175.711 122.548 172.063 119.588C171.479 119.116 167.135 115.996 166.591 116.404C166.426 116.521 166.436 116.623 166.623 116.708C168.223 117.396 169.599 118.689 170.751 120.588" stroke="#9E8A86" stroke-width="2"/>
<path d="M170.751 120.588L167.671 118.42C167.287 118.148 167.127 118.244 167.191 118.708C167.591 121.7 168.327 125.884 166.935 128.5C163.503 134.94 152.535 131.7 154.047 124.86C154.095 124.63 154.087 124.398 154.023 124.164C153.836 123.502 153.412 123.036 152.751 122.764" stroke="#883D24" stroke-width="2"/>
<path d="M152.751 122.763C152.666 122.342 152.69 121.953 152.823 121.595" stroke="#9E8A86" stroke-width="2"/>
<path d="M152.823 121.596C152.786 120.673 153.023 120.177 153.535 120.108" stroke="#803630" stroke-width="2"/>
<path d="M153.535 120.108C154.73 121.495 156.084 121.863 157.599 121.212C162.967 118.884 154.807 112.604 153.287 119.372" stroke="#9E8A86" stroke-width="2"/>
<path d="M153.287 119.372C152.679 119.82 152.418 120.433 152.503 121.212" stroke="#803630" stroke-width="2"/>
<path d="M152.504 121.212C150.626 124.182 149.589 127.204 149.392 130.276" stroke="#9E8A86" stroke-width="2"/>
<path d="M152.503 121.212C152.578 121.079 152.684 121.207 152.823 121.596" stroke="#E0A9A8" stroke-width="2"/>
<path d="M152.75 122.764C151.977 125.756 151.822 128.294 152.286 130.38C153.678 136.708 161.894 139.339 166.918 135.364C171.878 131.449 173.156 126.524 170.75 120.588" stroke="#E8B09C" stroke-width="2"/>
<path d="M153.535 120.108L153.287 119.372" stroke="#E0A9A8" stroke-width="2"/>
<path d="M53.5108 125.051C50.8601 124.678 48.7801 125.521 47.2708 127.579C47.2619 127.594 47.2582 127.61 47.2604 127.627C47.2626 127.644 47.2706 127.659 47.2829 127.671C47.2953 127.682 47.3112 127.689 47.328 127.69C47.3447 127.69 47.3613 127.685 47.3748 127.675C49.9294 125.387 52.9614 124.726 56.4708 125.691C56.5048 125.698 56.5403 125.694 56.5713 125.678C56.6022 125.662 56.6267 125.636 56.6408 125.604C56.6548 125.572 56.6575 125.536 56.6484 125.503C56.6393 125.469 56.619 125.44 56.5908 125.419C55.8601 124.961 55.0761 124.827 54.2388 125.019C54.0011 125.077 53.7538 125.088 53.5108 125.051Z" stroke="#F4AE8A" stroke-width="2"/>
<path d="M204.395 125.078C204.39 125.023 204.079 124.999 203.53 125.011C202.981 125.022 202.239 125.069 201.468 125.141C201.087 125.176 200.709 125.217 200.357 125.26C200.005 125.303 199.686 125.348 199.418 125.392C199.15 125.436 198.938 125.479 198.794 125.518C198.65 125.557 198.578 125.59 198.58 125.618C198.585 125.673 198.897 125.697 199.445 125.685C199.994 125.673 200.736 125.627 201.507 125.555C201.889 125.52 202.266 125.479 202.618 125.436C202.97 125.393 203.289 125.348 203.557 125.304C203.826 125.259 204.038 125.217 204.181 125.178C204.325 125.139 204.398 125.105 204.395 125.078Z" stroke="#E2A486" stroke-width="2"/>
<path d="M134.143 140.836C133.079 145.772 125.871 145.804 124.199 141.284C124.132 141.119 124.009 140.983 123.852 140.901C123.695 140.818 123.513 140.794 123.34 140.832C123.166 140.87 123.012 140.969 122.904 141.11C122.796 141.251 122.742 141.426 122.751 141.604C123.511 151.036 138.047 149.42 136.815 140.932C136.768 140.618 136.613 140.33 136.376 140.119C136.139 139.908 135.836 139.786 135.519 139.774C135.202 139.763 134.89 139.863 134.639 140.057C134.388 140.251 134.212 140.526 134.143 140.836Z" stroke="#F3A689" stroke-width="2"/>
<path d="M162.632 152.46C166.632 156.076 176.04 155.068 180.608 153.516C185.208 151.956 187.92 147.716 182.84 144.212C177.624 140.612 169.704 141.092 164.568 144.092C161.248 146.028 159.072 149.244 162.632 152.46Z" stroke="#F69C82" stroke-width="2"/>
<path d="M72.6711 152.611C77.1591 155.219 86.7031 155.827 91.2631 153.347C95.4551 151.059 94.1271 145.787 90.2551 143.971C85.5244 141.758 80.5991 141.497 75.4791 143.187C70.7911 144.731 66.9751 149.307 72.6711 152.611Z" stroke="#F69C82" stroke-width="2"/>
<path d="M147.719 162.203C147.628 162.166 147.562 162.102 147.519 162.011C147.46 161.883 147.359 161.825 147.215 161.835C133.908 163.195 120.572 162.817 107.207 160.699" stroke="#FCDAC9" stroke-width="2"/>
<path d="M107.207 160.699C103.543 159.771 106.455 164.739 107.495 165.747C113.343 171.435 136.687 171.243 143.943 168.699C146.047 167.955 150.567 164.643 148.831 161.971C148.681 161.747 148.487 161.689 148.247 161.795C148.049 161.881 147.873 162.017 147.719 162.203" stroke="#BC7D60" stroke-width="2"/>
<path d="M107.207 160.699C108.594 162.454 109.959 163.558 111.303 164.011C122.508 167.787 133.762 167.953 145.063 164.507C145.804 164.278 146.69 163.51 147.719 162.203" stroke="#BEA195" stroke-width="2"/>
<path d="M103.151 118.947C103.151 118.198 102.853 117.48 102.324 116.951C101.794 116.421 101.076 116.123 100.327 116.123C99.578 116.123 98.8597 116.421 98.3301 116.951C97.8005 117.48 97.5029 118.198 97.5029 118.947C97.5029 119.696 97.8005 120.415 98.3301 120.944C98.8597 121.474 99.578 121.771 100.327 121.771C101.076 121.771 101.794 121.474 102.324 120.944C102.853 120.415 103.151 119.696 103.151 118.947Z" stroke="#9E8A86" stroke-width="2"/>
<path d="M130.983 167.9C124.471 168.108 117.671 166.884 111.511 165.164C110.535 164.892 109.687 163.868 108.455 164.34C108.172 164.452 108.09 164.646 108.207 164.924C109.399 167.724 116.047 168.548 119.119 168.964C126.535 169.964 137.095 169.804 145.527 167.284C145.744 167.235 145.934 167.102 146.053 166.913C146.172 166.725 146.212 166.497 146.163 166.28C146.114 166.062 145.981 165.873 145.793 165.754C145.604 165.635 145.376 165.595 145.159 165.644C140.495 166.356 135.311 167.756 130.983 167.9Z" stroke="#934437" stroke-width="2"/>
<path d="M227.087 89.7635C226.442 90.5475 226.311 91.3902 226.695 92.2915C226.796 92.5246 226.858 92.7732 226.879 93.0275C227.029 95.0222 226.919 96.9982 226.551 98.9555C226.5 99.2298 226.356 99.4782 226.143 99.6595L224.247 101.243C224.002 101.446 223.722 101.582 223.407 101.652C217.423 102.916 194.375 106.372 192.543 97.3635C192.015 94.7715 190.095 89.6915 192.751 87.7875C194.869 86.2729 197.077 84.6702 199.375 82.9795C199.431 82.9362 199.473 82.8766 199.494 82.8088C199.514 82.7411 199.514 82.6685 199.492 82.6011C199.47 82.5337 199.428 82.4747 199.371 82.4322C199.315 82.3896 199.246 82.3657 199.175 82.3635H198.719C198.591 82.3635 198.527 82.2995 198.527 82.1715C198.575 79.8755 199.119 77.1475 198.479 75.0755C196.295 67.9875 189.647 69.0595 183.911 71.0835C183.661 71.1689 183.41 71.1795 183.159 71.1155C176.751 69.4995 173.127 58.8115 172.295 53.0755C172.278 52.9679 172.232 52.867 172.16 52.7845C172.089 52.702 171.996 52.6411 171.892 52.6086C171.788 52.5761 171.677 52.5734 171.572 52.6008C171.466 52.6282 171.37 52.6846 171.295 52.7635C169.386 54.7849 167.183 56.4009 164.687 57.6115C164.287 57.8052 163.828 57.8349 163.407 57.6942C162.987 57.5536 162.639 57.2539 162.439 56.8595C154.943 42.0995 137.359 48.1875 130.591 59.4915C130.54 59.5798 130.465 59.6516 130.374 59.6985C130.283 59.7454 130.181 59.7654 130.079 59.7562C129.978 59.747 129.881 59.7089 129.8 59.6464C129.719 59.5839 129.658 59.4996 129.623 59.4035L126.551 51.1475C126.514 51.0478 126.454 50.9578 126.377 50.8842C126.3 50.8106 126.207 50.7553 126.106 50.7223C126.004 50.6892 125.897 50.6794 125.791 50.6935C125.686 50.7075 125.584 50.7451 125.495 50.8035C122.183 52.9715 112.151 59.2115 108.319 58.3635C105.189 57.6649 102.474 57.5475 100.175 58.0115C95.3913 58.9875 88.1273 62.8435 86.0233 67.9315C85.959 68.0877 85.8605 68.2274 85.735 68.3404C85.6095 68.4534 85.4602 68.5367 85.2982 68.5843C85.1362 68.6319 84.9656 68.6426 84.7989 68.6154C84.6323 68.5883 84.4738 68.5241 84.3353 68.4275C82.5219 67.1475 80.9833 65.5875 79.7193 63.7475C79.6114 63.5891 79.4693 63.457 79.3034 63.3608C79.1375 63.2646 78.952 63.2068 78.7603 63.1914C78.5687 63.1761 78.3758 63.2037 78.1957 63.2723C78.0156 63.3408 77.8529 63.4485 77.7193 63.5875C75.4046 66.0302 73.1779 68.4168 71.0393 70.7475C68.8073 73.1795 64.7753 72.6275 62.2633 74.2995C60.0979 75.7448 59.0233 77.9608 59.0393 80.9475C59.0393 81.2142 59.1246 81.4488 59.2953 81.6515C61.3273 84.1582 63.7619 86.0995 66.5993 87.4755L67.1033 93.8355C66.3993 94.7102 65.9913 95.7715 65.8793 97.0195C65.8579 97.3075 65.7139 97.5155 65.4473 97.6435C54.4473 102.939 42.1273 103.556 30.1833 101.508C29.9113 101.46 29.7086 101.316 29.5753 101.076C28.8606 99.7742 27.8526 98.8035 26.5513 98.1635C25.7779 96.4622 25.5113 94.7955 25.7513 93.1635C26.5193 87.9235 26.1593 83.9235 28.8313 79.6275C28.97 79.3982 28.9379 79.1982 28.7353 79.0275C26.1993 76.9075 27.4873 71.0915 28.7753 68.5155C30.0819 65.8969 31.7006 63.4809 33.6313 61.2675C33.802 61.0649 33.8499 60.8382 33.7753 60.5875C31.2553 52.0035 39.8873 43.2275 48.5593 44.5715C48.6322 44.5837 48.7071 44.5772 48.7769 44.5527C48.8467 44.5283 48.9092 44.4866 48.9587 44.4315C49.0081 44.3765 49.0429 44.31 49.0598 44.2379C49.0766 44.1659 49.0751 44.0908 49.0553 44.0195C47.1273 37.0675 54.2233 34.8835 59.4153 34.7315C59.6766 34.7262 59.8633 34.6035 59.9753 34.3635C62.2526 29.5902 66.1033 26.9475 71.5273 26.4355C72.3539 26.3609 73.1753 26.2488 73.9913 26.0995C74.2633 26.0515 74.4473 25.8969 74.5433 25.6355C76.5113 20.3555 81.0713 19.6835 86.1913 19.7395C86.4526 19.7448 86.6926 19.6755 86.9113 19.5315C90.5593 17.0915 96.1913 13.8035 100.175 14.5395C100.437 14.5853 100.704 14.5279 100.919 14.3795C104.402 11.9955 108.271 10.8328 112.527 10.8915C114.927 10.9235 116.791 11.0195 119.415 10.5875C123.181 9.96354 126.578 10.8969 129.607 13.3875C129.81 13.5582 130.023 13.5715 130.247 13.4275C134.919 10.4515 139.818 10.1448 144.943 12.5075C145.178 12.6142 145.421 12.6569 145.671 12.6355C152.255 11.9955 157.655 14.7795 162.519 19.0675C162.717 19.2489 162.949 19.3182 163.215 19.2755C167.759 18.5395 171.767 18.8435 173.607 23.4115C173.651 23.5225 173.725 23.6194 173.821 23.6914C173.917 23.7633 174.031 23.8077 174.151 23.8195C177.965 24.1982 180.346 26.2649 181.295 30.0195C181.331 30.1605 181.421 30.2816 181.547 30.3564C181.673 30.4313 181.824 30.454 181.967 30.4195C184.869 29.7315 187.005 30.6649 188.375 33.2195C188.509 33.4702 188.717 33.5875 188.999 33.5715C196.431 33.1555 198.719 36.0115 197.871 43.2115C197.834 43.5049 197.965 43.6435 198.263 43.6275C206.343 43.0515 209.647 49.0195 213.847 55.2275C215.09 57.0675 215.874 58.8755 216.199 60.6515C216.247 60.9022 216.37 61.1102 216.567 61.2755C220.751 64.8035 226.583 74.0035 223.495 79.8595C223.441 79.9622 223.422 80.0803 223.442 80.1949C223.462 80.3094 223.521 80.4139 223.607 80.4915C226.306 82.8702 227.466 85.9609 227.087 89.7635ZM81.4713 37.2115C87.7833 39.8675 92.9033 38.6435 100.663 37.0915C109.647 35.2835 127.647 30.1155 132.911 21.9875C133.071 21.7475 133.103 21.4915 133.007 21.2195C130.151 13.0515 104.255 19.8915 98.2793 21.8515C92.6899 23.6862 87.5433 26.3609 82.8393 29.8755C80.8393 31.3795 78.2553 35.8595 81.4713 37.2115ZM82.4482 41.0565C82.3381 40.1979 81.6248 39.4522 80.4652 38.9837C79.3055 38.5151 77.7945 38.362 76.2646 38.558C75.507 38.6551 74.7675 38.8349 74.0885 39.0873C73.4094 39.3396 72.804 39.6595 72.3068 40.0288C71.8096 40.3981 71.4304 40.8094 71.1908 41.2394C70.9512 41.6693 70.8559 42.1094 70.9104 42.5346C71.0204 43.3932 71.7337 44.1388 72.8933 44.6074C74.053 45.0759 75.564 45.229 77.094 45.0331C77.8516 44.936 78.591 44.7562 79.2701 44.5038C79.9492 44.2514 80.5546 43.9315 81.0517 43.5623C81.5489 43.193 81.9281 42.7816 82.1677 42.3517C82.4073 41.9218 82.5026 41.4817 82.4482 41.0565Z" fill="#714637"/>
<path d="M81.471 37.2113C78.255 35.8593 80.839 31.3793 82.839 29.8753C87.543 26.3606 92.6897 23.6859 98.279 21.8512C104.255 19.8912 130.151 13.0513 133.007 21.2193C133.103 21.4913 133.071 21.7473 132.911 21.9873C127.647 30.1153 109.647 35.2832 100.663 37.0912C92.903 38.6432 87.783 39.8673 81.471 37.2113Z" fill="#8C5541"/>
<path d="M77.0935 45.033C80.2795 44.6248 82.6766 42.8444 82.4476 41.0564C82.2185 39.2684 79.45 38.1497 76.264 38.5579C73.0779 38.966 70.6808 40.7464 70.9099 42.5344C71.1389 44.3225 73.9074 45.4411 77.0935 45.033Z" fill="#8C5541"/>
<path d="M227.087 89.7637C228.687 94.121 228.205 98.1264 225.639 101.78C225.568 101.877 225.533 101.996 225.539 102.118C225.545 102.24 225.591 102.357 225.671 102.452C228.109 105.294 229.327 108.326 229.327 111.548C229.327 114.812 229.503 120.684 227.759 122.572L222.735 125.468C222.517 125.59 222.421 125.777 222.447 126.028C223.087 131.58 222.143 134.172 217.263 136.94C217.159 136.999 217.041 137.027 216.921 137.02C216.802 137.013 216.687 136.973 216.59 136.903C216.493 136.833 216.418 136.737 216.375 136.626C216.331 136.514 216.32 136.393 216.343 136.276C216.989 132.974 216.735 129.721 215.583 126.516C213.439 120.556 206.959 114.932 200.607 119.468C200.534 119.519 200.449 119.551 200.36 119.563C200.271 119.574 200.181 119.564 200.098 119.534C200.014 119.503 199.94 119.453 199.881 119.387C199.822 119.321 199.78 119.242 199.759 119.156L197.567 110.364C197.509 110.14 197.434 110.132 197.343 110.34C197.221 110.622 197.023 110.83 196.751 110.964C194.487 105.572 192.079 100.5 190.799 94.7717C190.17 91.9557 189.575 89.1744 189.015 86.4277C188.96 86.1569 188.82 85.9107 188.614 85.725C188.408 85.5394 188.148 85.424 187.871 85.3957C185.343 85.1557 182.959 85.0837 180.719 83.8837C175.882 81.3077 172.562 77.3637 170.759 72.0517C170.755 72.0414 170.748 72.0322 170.74 72.0247C170.732 72.0171 170.722 72.0116 170.712 72.0085C170.702 72.0054 170.692 72.0048 170.682 72.0067C170.672 72.0087 170.663 72.0131 170.655 72.0197C156.735 82.8437 139.575 81.6597 128.367 68.2917C128.333 68.2515 128.291 68.2197 128.242 68.1986C128.194 68.1775 128.142 68.1678 128.089 68.1701C128.037 68.1724 127.985 68.1868 127.939 68.212C127.893 68.2372 127.854 68.2727 127.823 68.3157C123.127 75.1157 114.431 78.9397 106.271 76.4197C105.65 76.2297 104.983 76.2841 104.407 76.5717C98.4979 79.5317 92.6766 79.3397 86.9432 75.9957C86.8313 75.9291 86.706 75.8882 86.5763 75.8759C86.4466 75.8636 86.3158 75.8803 86.1934 75.9247C86.0709 75.969 85.9598 76.0401 85.8682 76.1326C85.7765 76.2251 85.7065 76.3368 85.6632 76.4597C83.9832 81.1264 80.7992 83.9157 76.1112 84.8277C72.7352 85.4837 70.0552 86.9717 66.5992 87.4757C63.7619 86.0997 61.3272 84.1584 59.2952 81.6517C59.1246 81.449 59.0392 81.2144 59.0392 80.9477C59.0232 77.961 60.0979 75.745 62.2632 74.2997C64.7752 72.6277 68.8072 73.1797 71.0392 70.7477C73.1779 68.417 75.4046 66.0304 77.7192 63.5877C77.8528 63.4487 78.0156 63.341 78.1957 63.2725C78.3758 63.2039 78.5687 63.1763 78.7603 63.1916C78.9519 63.207 79.1374 63.2648 79.3033 63.361C79.4692 63.4572 79.6113 63.5893 79.7192 63.7477C80.9832 65.5877 82.5219 67.1477 84.3352 68.4277C84.4738 68.5243 84.6322 68.5885 84.7989 68.6156C84.9655 68.6428 85.1362 68.6321 85.2982 68.5845C85.4602 68.5369 85.6095 68.4536 85.7349 68.3406C85.8604 68.2276 85.959 68.0879 86.0232 67.9317C88.1272 62.8437 95.3913 58.9877 100.175 58.0117C102.474 57.5477 105.189 57.665 108.319 58.3637C112.151 59.2117 122.183 52.9717 125.495 50.8037C125.584 50.7453 125.686 50.7077 125.791 50.6936C125.897 50.6796 126.004 50.6894 126.106 50.7225C126.207 50.7555 126.3 50.8108 126.377 50.8844C126.454 50.958 126.514 51.048 126.551 51.1477L129.623 59.4037C129.658 59.4998 129.719 59.5841 129.8 59.6466C129.881 59.7091 129.978 59.7471 130.079 59.7564C130.181 59.7656 130.283 59.7456 130.374 59.6987C130.465 59.6518 130.54 59.58 130.591 59.4917C137.359 48.1877 154.943 42.0997 162.439 56.8597C162.639 57.2541 162.987 57.5538 163.407 57.6944C163.828 57.8351 164.287 57.8054 164.687 57.6117C167.183 56.401 169.386 54.785 171.295 52.7637C171.37 52.6848 171.466 52.6284 171.572 52.601C171.677 52.5736 171.788 52.5763 171.892 52.6088C171.996 52.6412 172.089 52.7022 172.16 52.7847C172.232 52.8672 172.278 52.968 172.295 53.0757C173.127 58.8117 176.751 69.4997 183.159 71.1157C183.41 71.1797 183.661 71.1691 183.911 71.0837C189.647 69.0597 196.295 67.9877 198.479 75.0757C199.119 77.1477 198.575 79.8757 198.527 82.1717C198.527 82.2997 198.591 82.3637 198.719 82.3637H199.175C199.246 82.3659 199.315 82.3898 199.371 82.4324C199.428 82.4749 199.47 82.5339 199.492 82.6013C199.514 82.6687 199.514 82.7413 199.494 82.809C199.473 82.8768 199.431 82.9364 199.375 82.9797C197.077 84.6704 194.869 86.2731 192.751 87.7877C190.095 89.6917 192.015 94.7717 192.543 97.3637C194.375 106.372 217.423 102.916 223.407 101.652C223.722 101.582 224.002 101.446 224.247 101.244L226.143 99.6597C226.356 99.4784 226.499 99.23 226.551 98.9557C226.919 96.9984 227.029 95.0224 226.879 93.0277C226.858 92.7734 226.796 92.5247 226.695 92.2917C226.311 91.3904 226.442 90.5477 227.087 89.7637Z" fill="#532E25"/>
<path d="M196.752 110.963C198.229 115.065 198.608 119.265 197.888 123.563C197.104 123.547 196.672 123.262 196.592 122.707C195.6 115.595 193.968 111.74 190.664 104.62C188.888 100.774 187.517 96.0888 186.552 90.5635C186.064 87.7555 180.912 89.0355 178.728 85.7795C178.568 85.5448 178.354 85.3742 178.088 85.2675C175.048 84.0782 172.581 82.1262 170.688 79.4115C170.517 79.1662 170.29 79.0995 170.008 79.2115C168.45 79.8515 166.405 80.8062 163.872 82.0755C151.176 88.4515 137.936 82.8835 127.896 74.4755C127.624 74.2462 127.362 74.2568 127.112 74.5075C121.808 79.8835 113.576 82.8195 106.44 79.3635C106.168 79.2355 105.904 79.2488 105.648 79.4035C100.304 82.6755 98.7678 82.7315 91.6878 81.7475C91.4318 81.7101 91.2131 81.7848 91.0318 81.9715C86.6078 86.4355 83.9998 89.8995 77.0558 86.2595C75.2158 85.2995 71.5038 88.5955 68.8158 88.8595C68.5171 88.8862 68.4398 89.0301 68.5838 89.2915C68.8878 89.8355 69.0638 90.0435 69.1038 90.6995C69.5518 98.9715 67.2878 104.747 63.5918 112.203C61.6238 116.179 60.7758 120.395 59.1758 124.611C59.1491 120.729 59.3971 118.123 59.9198 116.795C62.8318 109.339 66.9918 102.3 67.1038 93.8355L66.5998 87.4755C70.0558 86.9715 72.7358 85.4835 76.1118 84.8275C80.7998 83.9155 83.9838 81.1262 85.6638 76.4595C85.707 76.3366 85.777 76.2249 85.8687 76.1324C85.9604 76.0399 86.0715 75.9688 86.1939 75.9244C86.3164 75.88 86.4471 75.8634 86.5768 75.8757C86.7065 75.888 86.8318 75.9289 86.9438 75.9955C92.6771 79.3395 98.4984 79.5315 104.408 76.5715C104.984 76.2839 105.651 76.2295 106.272 76.4195C114.432 78.9395 123.128 75.1155 127.824 68.3155C127.854 68.2725 127.894 68.237 127.94 68.2118C127.986 68.1865 128.037 68.1722 128.09 68.1699C128.142 68.1676 128.195 68.1773 128.243 68.1984C128.291 68.2195 128.334 68.2513 128.368 68.2915C139.576 81.6595 156.736 82.8435 170.656 72.0195C170.663 72.0129 170.672 72.0085 170.682 72.0065C170.692 72.0046 170.703 72.0052 170.713 72.0083C170.723 72.0114 170.732 72.0169 170.741 72.0244C170.749 72.0319 170.755 72.0412 170.76 72.0515C172.562 77.3635 175.882 81.3075 180.72 83.8835C182.96 85.0835 185.344 85.1555 187.872 85.3955C188.148 85.4237 188.408 85.5392 188.614 85.7248C188.82 85.9105 188.961 86.1567 189.016 86.4275C189.576 89.1742 190.17 91.9555 190.8 94.7715C192.08 100.5 194.488 105.571 196.752 110.963Z" fill="#EC957E"/>
<path d="M197.887 123.563C197.711 123.899 197.669 124.254 197.759 124.627C197.866 125.065 197.983 125.067 198.111 124.635C199.383 120.379 203.239 117.403 207.743 119.059C215.527 121.923 216.911 131.131 214.999 138.259C213.186 141.497 211.082 144.459 208.687 147.147C203.903 148.987 198.791 149.987 193.807 148.291C193.562 148.206 193.383 148.281 193.271 148.515C190.567 154.147 187.373 159.497 183.687 164.563C175.954 173.801 166.378 180.422 154.959 184.427C153.135 185.067 149.253 186.31 143.311 188.155C143.093 188.225 142.818 188.481 142.487 188.923C141.885 188.747 141.229 188.705 140.519 188.795C134.359 189.59 128.175 189.763 121.967 189.315C120.037 189.177 117.341 188.643 113.879 187.715C97.8472 184.441 84.5459 176.937 73.9752 165.203C73.4152 164.579 73.3592 163.611 72.3192 163.283C72.3565 162.985 72.2232 162.689 71.9192 162.395C72.1645 161.201 71.5965 160.459 70.2152 160.171C67.8685 156.587 65.7992 152.683 64.0072 148.459C63.8816 148.162 63.6445 147.926 63.3468 147.802C63.0491 147.678 62.7147 147.676 62.4152 147.795C55.9672 150.345 50.0925 149.478 44.7912 145.195C42.9459 142.198 41.5139 139.153 40.4952 136.059C39.6152 130.241 40.6846 125.555 43.7032 122.003C46.3912 118.835 53.0712 116.043 56.0152 120.683C57.2685 122.657 58.2979 124.75 59.1032 126.963C59.2472 127.363 59.3085 127.35 59.2872 126.923L59.1752 124.611C60.7752 120.395 61.6232 116.179 63.5912 112.203C67.2872 104.747 69.5512 98.9713 69.1032 90.6993C69.0632 90.0433 68.8872 89.8352 68.5832 89.2912C68.4392 89.0299 68.5165 88.8859 68.8152 88.8593C71.5032 88.5953 75.2152 85.2993 77.0552 86.2593C83.9992 89.8993 86.6072 86.4353 91.0312 81.9713C91.2126 81.7846 91.4312 81.7099 91.6872 81.7472C98.7672 82.7312 100.303 82.6753 105.647 79.4033C105.903 79.2486 106.167 79.2353 106.439 79.3633C113.575 82.8193 121.807 79.8833 127.111 74.5073C127.362 74.2566 127.623 74.2459 127.895 74.4753C137.935 82.8833 151.175 88.4513 163.871 82.0753C166.405 80.8059 168.45 79.8513 170.007 79.2113C170.29 79.0993 170.517 79.1659 170.687 79.4113C172.581 82.1259 175.047 84.0779 178.087 85.2673C178.354 85.3739 178.567 85.5446 178.727 85.7793C180.911 89.0353 186.063 87.7553 186.551 90.5633C187.517 96.0886 188.887 100.774 190.663 104.619C193.967 111.739 195.599 115.595 196.591 122.707C196.671 123.262 197.103 123.547 197.887 123.563ZM158.623 92.5553C150.999 90.6433 150.015 101.147 156.991 101.947C163.194 102.657 169.413 103.681 175.647 105.019C175.931 105.079 176.226 105.036 176.48 104.898C176.733 104.76 176.929 104.536 177.031 104.267C178.807 99.5473 161.687 93.3313 158.623 92.5553ZM101.167 101.283C104.647 99.1073 103.599 91.7313 97.7432 92.9153C92.4152 93.9873 81.1592 97.6353 78.6232 102.955C78.5222 103.164 78.4808 103.396 78.5036 103.627C78.5264 103.857 78.6125 104.077 78.7525 104.262C78.8924 104.446 79.0807 104.589 79.2965 104.673C79.5123 104.757 79.7472 104.78 79.9752 104.739C85.2552 103.795 90.6445 103.03 96.1432 102.443C98.6872 102.177 100.362 101.79 101.167 101.283ZM136.745 95.6793C136.781 95.4852 136.76 95.2823 136.683 95.0823C136.606 94.8822 136.474 94.6889 136.296 94.5133C136.117 94.3378 135.895 94.1834 135.641 94.0592C135.388 93.9349 135.109 93.8431 134.82 93.7889C134.236 93.6797 133.647 93.7306 133.182 93.9305C132.717 94.1305 132.415 94.4631 132.341 94.8552C132.305 95.0493 132.326 95.2522 132.403 95.4523C132.48 95.6523 132.612 95.8457 132.791 96.0212C132.969 96.1968 133.192 96.3511 133.445 96.4754C133.698 96.5997 133.977 96.6915 134.267 96.7456C134.851 96.8549 135.44 96.8039 135.904 96.6039C136.369 96.404 136.672 96.0714 136.745 95.6793ZM137.066 105.61C137.102 105.372 137.091 105.13 137.033 104.896C136.975 104.663 136.872 104.443 136.73 104.249C136.587 104.056 136.407 103.892 136.201 103.768C135.995 103.643 135.767 103.561 135.529 103.525L134.247 103.331C134.01 103.295 133.767 103.306 133.533 103.364C133.3 103.422 133.08 103.525 132.886 103.668C132.693 103.811 132.529 103.99 132.405 104.196C132.281 104.402 132.198 104.631 132.162 104.869L132.052 105.596C132.016 105.834 132.027 106.077 132.085 106.31C132.143 106.544 132.246 106.764 132.389 106.957C132.532 107.151 132.711 107.315 132.917 107.439C133.123 107.563 133.352 107.646 133.59 107.682L134.871 107.875C135.109 107.911 135.352 107.9 135.585 107.842C135.819 107.785 136.038 107.681 136.232 107.539C136.426 107.396 136.589 107.216 136.714 107.01C136.838 106.804 136.92 106.576 136.956 106.338L137.066 105.61ZM137.308 112.392C137.166 112.187 136.972 112.022 136.736 111.905C136.501 111.788 136.228 111.723 135.934 111.712C135.64 111.702 135.331 111.746 135.024 111.843C134.717 111.939 134.418 112.087 134.144 112.276C133.87 112.466 133.627 112.694 133.428 112.948C133.229 113.201 133.079 113.475 132.986 113.754C132.892 114.033 132.858 114.311 132.884 114.573C132.91 114.834 132.997 115.074 133.138 115.279C133.28 115.484 133.474 115.649 133.71 115.766C133.946 115.882 134.218 115.948 134.512 115.958C134.806 115.969 135.115 115.925 135.423 115.828C135.73 115.731 136.029 115.584 136.303 115.394C136.576 115.204 136.82 114.976 137.018 114.723C137.217 114.469 137.367 114.195 137.461 113.917C137.554 113.638 137.589 113.36 137.563 113.098C137.536 112.836 137.45 112.596 137.308 112.392ZM78.6952 124.963L77.1272 126.731C76.8286 127.259 76.8206 127.718 77.1032 128.107C77.2739 128.331 77.4979 128.457 77.7752 128.483C78.8312 128.574 79.7166 128.945 80.4312 129.595C83.9592 143.123 104.871 145.259 107.599 129.963C109.527 122.435 105.807 112.995 97.5272 112.179C89.4312 111.39 83.1539 114.502 78.6952 121.515C78.3219 122.107 77.5326 122.369 76.3272 122.299C75.8739 122.273 75.7192 122.475 75.8632 122.907L76.2312 124.019C76.3432 124.361 76.5752 124.486 76.9272 124.395C77.5779 124.225 78.1672 124.414 78.6952 124.963ZM149.391 130.275C150.415 133.955 152.306 136.729 155.063 138.595C162.431 143.571 174.151 139.203 176.551 130.763L179.999 127.603C180.223 127.395 180.237 127.174 180.039 126.939L178.919 125.619C178.874 125.568 178.84 125.507 178.821 125.442C178.802 125.376 178.797 125.307 178.806 125.239C178.816 125.171 178.841 125.107 178.878 125.049C178.916 124.992 178.965 124.944 179.023 124.907L181.039 123.643C181.295 123.483 181.367 123.262 181.255 122.979L180.991 122.307C180.885 122.041 180.695 121.95 180.423 122.035L178.783 122.547C178.704 122.573 178.618 122.57 178.539 122.539C178.461 122.509 178.395 122.452 178.351 122.379C174.623 116.065 169.146 112.723 161.919 112.355C147.879 111.643 147.271 130.531 149.391 130.275ZM53.5112 125.051C50.8605 124.678 48.7805 125.521 47.2712 127.579C47.2623 127.594 47.2586 127.61 47.2608 127.627C47.2631 127.644 47.271 127.659 47.2834 127.67C47.2957 127.682 47.3116 127.689 47.3284 127.689C47.3452 127.69 47.3617 127.685 47.3752 127.675C49.9299 125.387 52.9619 124.726 56.4712 125.691C56.5053 125.698 56.5408 125.694 56.5717 125.678C56.6026 125.662 56.6272 125.636 56.6412 125.604C56.6553 125.572 56.658 125.536 56.6489 125.503C56.6398 125.469 56.6194 125.44 56.5912 125.419C55.8605 124.961 55.0765 124.827 54.2392 125.019C54.0016 125.077 53.7542 125.088 53.5112 125.051ZM204.395 125.078C204.39 125.023 204.078 124.998 203.529 125.01C202.981 125.022 202.239 125.069 201.468 125.14C201.086 125.176 200.708 125.216 200.357 125.259C200.005 125.302 199.686 125.347 199.417 125.392C199.149 125.436 198.937 125.479 198.793 125.517C198.65 125.556 198.577 125.59 198.58 125.617C198.585 125.672 198.896 125.696 199.445 125.684C199.994 125.673 200.735 125.626 201.506 125.554C201.888 125.519 202.266 125.479 202.618 125.435C202.97 125.392 203.289 125.347 203.557 125.303C203.825 125.259 204.037 125.216 204.181 125.177C204.325 125.139 204.397 125.105 204.395 125.078ZM134.143 140.835C133.079 145.771 125.871 145.803 124.199 141.283C124.132 141.119 124.01 140.983 123.852 140.9C123.695 140.817 123.514 140.793 123.34 140.831C123.167 140.87 123.012 140.968 122.904 141.11C122.797 141.251 122.742 141.426 122.751 141.603C123.511 151.035 138.047 149.419 136.815 140.931C136.768 140.617 136.613 140.33 136.376 140.118C136.139 139.907 135.836 139.785 135.519 139.774C135.202 139.762 134.891 139.862 134.639 140.056C134.388 140.25 134.213 140.526 134.143 140.835ZM162.631 152.459C166.631 156.075 176.039 155.067 180.607 153.515C185.207 151.955 187.919 147.715 182.839 144.211C177.623 140.611 169.703 141.091 164.567 144.091C161.247 146.027 159.071 149.243 162.631 152.459ZM72.6712 152.611C77.1592 155.219 86.7032 155.827 91.2632 153.347C95.4552 151.059 94.1272 145.787 90.2552 143.971C85.5246 141.758 80.5992 141.497 75.4792 143.187C70.7912 144.731 66.9752 149.307 72.6712 152.611ZM147.719 162.203C147.629 162.166 147.562 162.102 147.519 162.011C147.461 161.883 147.359 161.825 147.215 161.835C133.909 163.195 120.573 162.817 107.207 160.699C103.543 159.771 106.455 164.739 107.495 165.747C113.343 171.435 136.687 171.243 143.943 168.699C146.047 167.955 150.567 164.643 148.831 161.971C148.682 161.747 148.487 161.689 148.247 161.795C148.05 161.881 147.874 162.017 147.719 162.203Z" fill="#F9B694"/>
<path d="M156.991 101.948C150.015 101.148 150.999 90.6436 158.623 92.5556C161.687 93.3316 178.807 99.5476 177.031 104.268C176.929 104.537 176.733 104.76 176.479 104.898C176.226 105.036 175.93 105.079 175.647 105.02C169.412 103.681 163.194 102.657 156.991 101.948Z" fill="#6D3521"/>
<path d="M97.7438 92.9153C103.6 91.7313 104.648 99.1073 101.168 101.283C100.362 101.79 98.6878 102.177 96.1438 102.443C90.6451 103.03 85.2558 103.795 79.9758 104.739C79.7477 104.78 79.5128 104.757 79.297 104.673C79.0813 104.589 78.893 104.446 78.753 104.262C78.6131 104.077 78.527 103.857 78.5042 103.627C78.4813 103.396 78.5227 103.164 78.6238 102.955C81.1598 97.6353 92.4158 93.9873 97.7438 92.9153Z" fill="#6D3521"/>
<path d="M134.267 96.746C135.483 96.9736 136.592 96.4962 136.745 95.6798C136.898 94.8633 136.036 94.0169 134.82 93.7894C133.604 93.5618 132.494 94.0392 132.342 94.8557C132.189 95.6721 133.051 96.5185 134.267 96.746Z" fill="#DB926F"/>
<path d="M67.1028 93.8359C66.9908 102.3 62.8308 109.34 59.9188 116.796C59.3961 118.124 59.1481 120.729 59.1748 124.612L59.2868 126.924C59.3081 127.351 59.2468 127.364 59.1028 126.964C58.2974 124.751 57.2681 122.657 56.0148 120.684C53.0708 116.044 46.3908 118.836 43.7028 122.004C40.6841 125.556 39.6148 130.241 40.4948 136.06C35.8921 134.369 33.7081 131.084 33.9428 126.204C33.9588 125.943 33.8361 125.788 33.5748 125.74C30.2734 125.169 28.1054 123.46 27.0708 120.612C24.7294 114.185 25.1828 107.823 28.4308 101.524C28.5588 101.279 28.5214 101.063 28.3188 100.876C27.4654 100.103 26.8761 99.1986 26.5508 98.1639C27.8521 98.8039 28.8601 99.7746 29.5748 101.076C29.7081 101.316 29.9107 101.46 30.1827 101.508C42.1267 103.556 54.4468 102.94 65.4468 97.6439C65.7134 97.5159 65.8574 97.3079 65.8788 97.0199C65.9908 95.7719 66.3988 94.7106 67.1028 93.8359Z" fill="#532E25"/>
<path d="M135.528 103.526L134.247 103.332C133.247 103.18 132.313 103.869 132.162 104.869L132.052 105.597C131.9 106.597 132.589 107.531 133.589 107.682L134.87 107.876C135.871 108.027 136.804 107.339 136.956 106.339L137.066 105.611C137.217 104.61 136.529 103.677 135.528 103.526Z" fill="#EC957E"/>
<path d="M227.76 122.571C226.757 124.161 225.355 125.179 223.552 125.627C223.296 125.691 223.163 125.854 223.152 126.115C222.928 132.979 222.432 136.323 215 138.259C216.912 131.131 215.528 121.923 207.744 119.059C203.24 117.403 199.384 120.379 198.112 124.635C197.984 125.067 197.867 125.065 197.76 124.627C197.669 124.254 197.712 123.899 197.888 123.563C198.608 119.265 198.229 115.065 196.752 110.963C197.024 110.83 197.221 110.622 197.344 110.339C197.435 110.131 197.509 110.139 197.568 110.363L199.76 119.155C199.781 119.241 199.823 119.32 199.882 119.386C199.941 119.452 200.015 119.503 200.099 119.533C200.182 119.564 200.272 119.574 200.361 119.563C200.45 119.551 200.534 119.518 200.608 119.467C206.96 114.931 213.44 120.555 215.584 126.515C216.736 129.721 216.989 132.974 216.344 136.275C216.321 136.393 216.332 136.514 216.375 136.625C216.419 136.736 216.494 136.833 216.591 136.903C216.688 136.972 216.803 137.013 216.922 137.02C217.041 137.026 217.16 136.998 217.264 136.939C222.144 134.171 223.088 131.579 222.448 126.027C222.421 125.777 222.517 125.59 222.736 125.467L227.76 122.571Z" fill="#3E160E"/>
<path d="M136.302 115.394C137.454 114.597 137.904 113.253 137.308 112.392C136.712 111.531 135.295 111.479 134.144 112.277C132.992 113.074 132.542 114.418 133.138 115.279C133.734 116.14 135.151 116.192 136.302 115.394Z" fill="#EC957E"/>
<path d="M107.599 129.963C107.417 127.126 106.577 124.355 105.079 121.651C105.044 121.591 104.997 121.54 104.94 121.5C104.884 121.461 104.82 121.435 104.752 121.423C104.685 121.412 104.616 121.415 104.551 121.434C104.485 121.453 104.425 121.486 104.375 121.531C104.252 121.643 104.236 121.91 104.327 122.331C102.063 122.339 103.335 131.267 97.1186 131.971C93.428 132.392 90.8759 130.792 89.4626 127.171C87.7106 122.675 89.0386 120.043 91.8626 116.147C92.0226 115.928 91.9666 115.825 91.6946 115.835C90.5 115.889 89.3746 116.187 88.3186 116.731C82.7506 119.062 80.1213 123.35 80.4306 129.595C79.716 128.944 78.8306 128.574 77.7746 128.483C77.4973 128.457 77.2733 128.331 77.1026 128.107C76.82 127.718 76.828 127.259 77.1266 126.731C77.788 126.731 78.3106 126.966 78.6946 127.435C78.828 127.601 78.9293 127.585 78.9986 127.387C79.3826 126.321 79.2813 125.512 78.6946 124.963C78.1666 124.414 77.5773 124.224 76.9266 124.395C76.5746 124.486 76.3426 124.36 76.2306 124.019L75.8626 122.907C75.7186 122.475 75.8733 122.272 76.3266 122.299C77.532 122.368 78.3213 122.107 78.6946 121.515C83.1533 114.502 89.4306 111.39 97.5266 112.179C105.807 112.995 109.527 122.435 107.599 129.963ZM103.151 118.947C103.151 118.198 102.853 117.48 102.323 116.95C101.794 116.421 101.076 116.123 100.327 116.123C99.5777 116.123 98.8594 116.421 98.3298 116.95C97.8002 117.48 97.5026 118.198 97.5026 118.947C97.5026 119.696 97.8002 120.414 98.3298 120.944C98.8594 121.474 99.5777 121.771 100.327 121.771C101.076 121.771 101.794 121.474 102.323 120.944C102.853 120.414 103.151 119.696 103.151 118.947Z" fill="#3E160E"/>
<path d="M176.551 130.764C177.207 126.156 175.711 122.548 172.063 119.588C171.479 119.116 167.135 115.996 166.591 116.404C166.425 116.521 166.436 116.622 166.623 116.708C168.223 117.396 169.599 118.689 170.751 120.588L167.671 118.42C167.287 118.148 167.127 118.244 167.191 118.708C167.591 121.7 168.327 125.884 166.935 128.5C163.503 134.94 152.535 131.7 154.047 124.86C154.095 124.63 154.087 124.398 154.023 124.164C153.836 123.502 153.412 123.036 152.751 122.764C152.665 122.342 152.689 121.953 152.823 121.596C152.785 120.673 153.023 120.177 153.535 120.108C154.729 121.494 156.084 121.862 157.599 121.212C162.967 118.884 154.807 112.604 153.287 119.372C152.679 119.82 152.417 120.433 152.503 121.212C150.625 124.182 149.588 127.204 149.391 130.276C147.271 130.532 147.879 111.644 161.919 112.356C169.145 112.724 174.623 116.065 178.351 122.38C178.394 122.453 178.461 122.509 178.539 122.54C178.618 122.57 178.703 122.573 178.783 122.548L180.423 122.036C180.695 121.95 180.884 122.041 180.991 122.308L181.255 122.98C181.367 123.262 181.295 123.484 181.039 123.644L179.023 124.908C178.965 124.944 178.915 124.992 178.878 125.05C178.84 125.107 178.816 125.172 178.806 125.24C178.796 125.307 178.801 125.376 178.821 125.442C178.84 125.508 178.874 125.568 178.919 125.62L180.039 126.94C180.236 127.174 180.223 127.396 179.999 127.604L176.551 130.764Z" fill="#3E160E"/>
<path d="M104.327 122.331C109.847 137.315 88.583 143.283 85.639 127.395C84.935 123.614 85.8283 120.059 88.319 116.731C89.375 116.187 90.5003 115.888 91.695 115.835C91.967 115.824 92.023 115.928 91.863 116.147C89.039 120.043 87.711 122.675 89.463 127.171C90.8763 130.792 93.4283 132.392 97.119 131.971C103.335 131.267 102.063 122.339 104.327 122.331Z" fill="#D16339"/>
<path d="M100.327 121.771C101.887 121.771 103.151 120.507 103.151 118.947C103.151 117.388 101.887 116.123 100.327 116.123C98.7673 116.123 97.5029 117.388 97.5029 118.947C97.5029 120.507 98.7673 121.771 100.327 121.771Z" fill="#FEFDFE"/>
<path d="M153.535 120.108L153.287 119.372C154.807 112.604 162.967 118.884 157.599 121.212C156.084 121.863 154.73 121.495 153.535 120.108Z" fill="#FEFDFE"/>
<path d="M176.552 130.764C174.152 139.204 162.432 143.572 155.064 138.596C152.306 136.729 150.416 133.956 149.392 130.276C149.589 127.204 150.626 124.183 152.504 121.212C152.578 121.079 152.685 121.207 152.824 121.596C152.69 121.953 152.666 122.343 152.752 122.764C151.978 125.756 151.824 128.295 152.288 130.38C153.68 136.708 161.896 139.34 166.92 135.364C171.88 131.449 173.157 126.524 170.752 120.588C169.6 118.689 168.224 117.396 166.624 116.708C166.437 116.623 166.426 116.521 166.592 116.404C167.136 115.996 171.48 119.116 172.064 119.588C175.712 122.548 177.208 126.156 176.552 130.764Z" fill="#FEFDFE"/>
<path d="M88.3196 116.731C85.829 120.059 84.9356 123.614 85.6396 127.395C88.5836 143.283 109.848 137.315 104.328 122.331C104.237 121.91 104.253 121.643 104.376 121.531C104.426 121.486 104.486 121.453 104.552 121.434C104.617 121.415 104.686 121.412 104.753 121.423C104.821 121.435 104.885 121.461 104.941 121.501C104.998 121.54 105.045 121.591 105.08 121.651C106.578 124.355 107.418 127.126 107.6 129.963C104.872 145.259 83.9596 143.123 80.4316 129.595C80.1223 123.35 82.7516 119.062 88.3196 116.731Z" fill="#FEFDFE"/>
<path d="M170.751 120.588C173.157 126.524 171.879 131.449 166.919 135.364C161.895 139.34 153.679 136.708 152.287 130.38C151.823 128.294 151.978 125.756 152.751 122.764C153.413 123.036 153.837 123.502 154.023 124.164C154.087 124.398 154.095 124.63 154.047 124.86C152.535 131.7 163.503 134.94 166.935 128.5C168.327 125.884 167.591 121.7 167.191 118.708C167.127 118.244 167.287 118.148 167.671 118.42L170.751 120.588Z" fill="#D16339"/>
<path d="M153.287 119.372L153.535 120.108C153.023 120.177 152.786 120.673 152.823 121.596C152.684 121.207 152.578 121.079 152.503 121.212C152.418 120.433 152.679 119.82 153.287 119.372Z" fill="#C15551"/>
<path d="M54.2388 125.019C55.0761 124.827 55.8601 124.961 56.5908 125.419C56.619 125.44 56.6393 125.469 56.6484 125.503C56.6575 125.536 56.6548 125.572 56.6408 125.604C56.6267 125.636 56.6022 125.662 56.5713 125.678C56.5403 125.694 56.5048 125.698 56.4708 125.691C52.9614 124.726 49.9294 125.387 47.3748 127.675C47.3613 127.685 47.3447 127.69 47.328 127.69C47.3112 127.689 47.2953 127.682 47.2829 127.671C47.2706 127.659 47.2626 127.644 47.2604 127.627C47.2582 127.61 47.2619 127.594 47.2708 127.579C48.7801 125.521 50.8601 124.678 53.5108 125.051C53.7538 125.088 54.0011 125.077 54.2388 125.019Z" fill="#EEA57F"/>
<path d="M78.6949 124.963C79.2816 125.513 79.383 126.321 78.999 127.387C78.9296 127.585 78.8283 127.601 78.6949 127.435C78.3109 126.966 77.7883 126.731 77.127 126.731L78.6949 124.963Z" fill="#7E442B"/>
<path d="M201.506 125.555C203.112 125.406 204.405 125.192 204.395 125.078C204.384 124.963 203.074 124.991 201.468 125.14C199.862 125.289 198.569 125.503 198.58 125.617C198.59 125.732 199.901 125.704 201.506 125.555Z" fill="#CB9278"/>
<path d="M124.199 141.284C125.871 145.804 133.079 145.772 134.143 140.836C134.212 140.526 134.388 140.251 134.639 140.057C134.89 139.863 135.202 139.763 135.519 139.774C135.836 139.786 136.139 139.908 136.376 140.119C136.613 140.33 136.768 140.618 136.815 140.932C138.047 149.42 123.511 151.036 122.751 141.604C122.742 141.426 122.796 141.251 122.904 141.11C123.012 140.969 123.166 140.87 123.34 140.832C123.513 140.794 123.695 140.818 123.852 140.901C124.009 140.983 124.132 141.119 124.199 141.284Z" fill="#EC957E"/>
<path d="M162.632 152.46C159.072 149.244 161.248 146.028 164.568 144.092C169.704 141.092 177.624 140.612 182.84 144.212C187.92 147.716 185.208 151.956 180.608 153.516C176.04 155.068 166.632 156.076 162.632 152.46Z" fill="#F38270"/>
<path d="M72.6711 152.611C66.9751 149.307 70.7911 144.731 75.4791 143.187C80.5991 141.497 85.5244 141.758 90.2551 143.971C94.1271 145.787 95.4551 151.059 91.2631 153.347C86.7031 155.827 77.1591 155.219 72.6711 152.611Z" fill="#F38270"/>
<path d="M44.7908 145.195C50.0921 149.478 55.9668 150.345 62.4148 147.795C62.7142 147.676 63.0487 147.678 63.3464 147.802C63.644 147.926 63.8811 148.162 64.0068 148.459C65.7988 152.683 67.8681 156.587 70.2148 160.171L71.9188 162.395C72.2228 162.689 72.3561 162.985 72.3188 163.283C66.9668 166.059 59.9908 165.851 56.8628 159.915C56.8085 159.813 56.725 159.729 56.6226 159.674C56.5203 159.618 56.4035 159.594 56.2868 159.603C51.7268 160.014 48.4788 158.401 46.5428 154.763C45.8948 153.547 42.8468 145.307 44.7908 145.195Z" fill="#532E25"/>
<path d="M208.688 147.148C208.592 155.116 203.567 157.972 196.519 158.604C196.253 158.625 196.061 158.758 195.944 159.004C193.528 164.054 189.442 165.908 183.688 164.564C187.373 159.497 190.567 154.148 193.271 148.516C193.383 148.281 193.562 148.206 193.807 148.292C198.791 149.988 203.903 148.988 208.688 147.148Z" fill="#532E25"/>
<path d="M70.2148 160.172C71.5962 160.46 72.1642 161.201 71.9188 162.396L70.2148 160.172Z" fill="#FFD4BB"/>
<path d="M107.207 160.699C108.593 162.454 109.959 163.558 111.303 164.011C122.508 167.787 133.761 167.953 145.063 164.507C145.804 164.278 146.689 163.51 147.719 162.203C147.873 162.017 148.049 161.881 148.247 161.795C148.487 161.689 148.681 161.747 148.831 161.971C150.567 164.643 146.047 167.955 143.943 168.699C136.687 171.243 113.343 171.435 107.495 165.747C106.455 164.739 103.543 159.771 107.207 160.699ZM130.983 167.899C124.471 168.107 117.671 166.883 111.511 165.163C110.535 164.891 109.687 163.867 108.455 164.339C108.172 164.451 108.089 164.646 108.207 164.923C109.399 167.723 116.047 168.547 119.119 168.963C126.535 169.963 137.095 169.803 145.527 167.283C145.744 167.234 145.933 167.101 146.053 166.913C146.172 166.725 146.212 166.497 146.163 166.279C146.114 166.062 145.981 165.873 145.792 165.753C145.604 165.634 145.376 165.594 145.159 165.643C140.495 166.355 135.311 167.755 130.983 167.899Z" fill="#7E442B"/>
<path d="M147.719 162.203C146.69 163.51 145.804 164.278 145.063 164.507C133.762 167.953 122.508 167.787 111.303 164.011C109.959 163.558 108.594 162.454 107.207 160.699C120.572 162.817 133.908 163.195 147.215 161.835C147.359 161.825 147.46 161.883 147.519 162.011C147.562 162.102 147.628 162.166 147.719 162.203Z" fill="#FEFDFE"/>
<path d="M111.511 165.164C117.671 166.884 124.471 168.108 130.983 167.9C135.311 167.756 140.495 166.356 145.159 165.644C145.376 165.595 145.604 165.635 145.793 165.754C145.981 165.873 146.114 166.062 146.163 166.28C146.212 166.497 146.172 166.725 146.053 166.913C145.934 167.102 145.744 167.235 145.527 167.284C137.095 169.804 126.535 169.964 119.119 168.964C116.047 168.548 109.399 167.724 108.207 164.924C108.09 164.646 108.172 164.452 108.455 164.34C109.687 163.868 110.535 164.892 111.511 165.164Z" fill="#A84342"/>
<path d="M142.487 188.924C142.669 189.82 143.146 190.31 143.919 190.396C143.967 191.428 143.831 192.02 142.847 192.548C132.711 197.908 116.103 199.148 107.575 189.692C110.119 189.489 112.221 188.83 113.879 187.716C117.341 188.644 120.037 189.177 121.967 189.316C128.175 189.764 134.359 189.59 140.519 188.796C141.229 188.705 141.885 188.748 142.487 188.924Z" fill="#EC957E"/>
<path d="M107.575 189.691C116.103 199.147 132.711 197.907 142.847 192.547C143.831 192.019 143.967 191.427 143.919 190.395C159.652 189.91 174.076 193.987 187.191 202.627C179.023 207.947 171.967 212.699 162.615 215.931C131.679 226.603 95.3746 223.323 69.5186 201.995C81.3106 194.518 93.9959 190.417 107.575 189.691Z" fill="#5F788A"/>
<path d="M69.5198 201.995C95.3758 223.323 131.68 226.603 162.616 215.931C171.968 212.699 179.024 207.947 187.192 202.627C189.341 203.054 191.362 203.998 193.256 205.459C193.496 205.641 193.517 205.843 193.32 206.067C177.232 224.107 155.56 234.091 131.48 234.531C104.866 235.017 82.3864 225.401 64.0398 205.683C63.9721 205.61 63.9225 205.521 63.8947 205.425C63.8669 205.329 63.8617 205.228 63.8795 205.13C63.8973 205.031 63.9377 204.938 63.9974 204.858C64.0571 204.778 64.1346 204.713 64.2238 204.667L69.5198 201.995Z" fill="#D1DEDE"/>
</svg>
